<svg width="21" height="21" viewBox="0 0 21 21" fill="none" xmlns="http://www.w3.org/2000/svg">
<g clip-path="url(#clip0_22_220)">
<path d="M10.5 0.000488281C4.71024 0.000488281 0 4.71073 0 10.5004C0 16.29 4.71024 21.0003 10.5 21.0003C16.2898 21.0003 21 16.29 21 10.5004C21 4.71073 16.2898 0.000488281 10.5 0.000488281ZM17.3424 4.95248C18.5212 6.40346 19.2469 8.23489 19.3073 10.2313C17.1237 9.77927 15.1465 9.83232 13.4011 10.1746C13.085 9.43546 12.7578 8.73133 12.4276 8.06586C14.3285 7.24697 15.9834 6.20105 17.3424 4.95248ZM16.1596 3.75034C14.8106 4.9817 13.2472 5.89343 11.6464 6.56654C10.4715 4.41795 9.34731 2.79995 8.6625 1.88047C9.25548 1.75414 9.86993 1.68637 10.5 1.68637C12.6531 1.68637 14.6273 2.46345 16.1596 3.75034ZM6.95976 2.43108C7.47688 3.10116 8.70858 4.77895 10.0317 7.16604C6.70643 8.24939 3.47988 8.43192 1.92943 8.44889C2.57569 5.74923 4.46623 3.52937 6.95976 2.43108ZM1.6951 10.139C1.71173 10.139 1.7278 10.1392 1.74477 10.1392C2.81609 10.1392 4.77891 10.0671 7.08969 9.64575C8.40805 9.40534 9.65819 9.08177 10.8312 8.68075C11.1366 9.28935 11.4402 9.93134 11.7345 10.6042C10.092 11.133 8.7069 11.8939 7.60973 12.6494C5.76987 13.9164 4.48096 15.3221 3.77716 16.1912C2.47409 14.6545 1.68588 12.6683 1.68588 10.5004C1.68588 10.3792 1.69015 10.2591 1.6951 10.139ZM4.992 17.3742C5.59791 16.6112 6.83119 15.2226 8.61519 14.0042C9.82756 13.1761 11.0819 12.5609 12.3731 12.157C13.1223 14.0989 13.762 16.2446 14.1433 18.5229C13.032 19.0296 11.799 19.3144 10.5 19.3144C8.41715 19.3144 6.5021 18.5866 4.992 17.3742ZM15.6943 17.6151C15.3013 15.5227 14.7152 13.5553 14.0375 11.7573C15.7043 11.4761 17.4269 11.534 19.1962 11.9315C18.8146 14.2569 17.5207 16.2781 15.6943 17.6151Z" fill="#A1A1AA"/>
</g>
<defs>
<clipPath id="clip0_22_220">
<rect width="21" height="21" fill="white"/>
</clipPath>
</defs>
</svg>
