<svg width="21" height="21" viewBox="0 0 21 21" fill="none" xmlns="http://www.w3.org/2000/svg">
<g clip-path="url(#clip0_22_224)">
<path d="M15.7502 0H5.25047C2.3633 0 0.000602722 2.3627 0.000602722 5.24987V15.7501C0.000602722 18.6365 2.3633 21 5.25047 21H15.7502C18.6374 21 21.0001 18.6365 21.0001 15.7501V5.24987C21.0001 2.3627 18.6374 0 15.7502 0ZM19.25 15.7501C19.25 17.6795 17.6806 19.25 15.7502 19.25H5.25047C3.32089 19.25 1.75065 17.6795 1.75065 15.7501V5.24987C1.75065 3.32003 3.32089 1.75004 5.25047 1.75004H15.7502C17.6806 1.75004 19.25 3.32003 19.25 5.24987V15.7501Z" fill="#A1A1AA"/>
<path d="M16.1882 6.12469C16.9131 6.12469 17.5007 5.53708 17.5007 4.81222C17.5007 4.08737 16.9131 3.49976 16.1882 3.49976C15.4634 3.49976 14.8757 4.08737 14.8757 4.81222C14.8757 5.53708 15.4634 6.12469 16.1882 6.12469Z" fill="#A1A1AA"/>
<path d="M10.5 5.24976C7.59996 5.24976 5.25013 7.59984 5.25013 10.4996C5.25013 13.3983 7.59996 15.75 10.5 15.75C13.3992 15.75 15.7499 13.3983 15.7499 10.4996C15.7499 7.59984 13.3992 5.24976 10.5 5.24976ZM10.5 14C8.56724 14 7.00017 12.4329 7.00017 10.4996C7.00017 8.56635 8.56724 6.9998 10.5 6.9998C12.4328 6.9998 13.9998 8.56635 13.9998 10.4996C13.9998 12.4329 12.4328 14 10.5 14Z" fill="#A1A1AA"/>
</g>
<defs>
<clipPath id="clip0_22_224">
<rect width="21" height="21" fill="white"/>
</clipPath>
</defs>
</svg>
