<svg width="21" height="21" viewBox="0 0 21 21" fill="none" xmlns="http://www.w3.org/2000/svg">
<g clip-path="url(#clip0_22_234)">
<path d="M0.320457 20.9153H5.75794V6.6167H0.320457V20.9153ZM1.55093 7.84717H4.52747V19.6848H1.55093V7.84717Z" fill="#A1A1AA"/>
<path d="M3.03922 0.0847168C1.36336 0.0847168 0 1.44812 0 3.12393C0 4.79975 1.36336 6.16319 3.03922 6.16319C4.71507 6.16319 6.07847 4.79979 6.07847 3.12393C6.07847 1.44808 4.71503 0.0847168 3.03922 0.0847168ZM1.23047 3.12393C1.23047 2.1266 2.04184 1.31519 3.03922 1.31519C4.03659 1.31519 4.84801 2.12656 4.84801 3.12393C4.84801 4.12131 4.03659 4.93272 3.03922 4.93272C2.04184 4.93272 1.23047 4.12127 1.23047 3.12393Z" fill="#A1A1AA"/>
<path d="M20.9868 11.1067C20.7933 8.32362 18.4718 6.17896 15.5937 6.17896C14.3064 6.17896 13.0911 6.62652 12.1336 7.42066V6.61676H6.92339V20.9153H12.3609V13.0951C12.3609 12.2138 13.0779 11.4968 13.9593 11.4968C14.8406 11.4968 15.5576 12.2138 15.5576 13.0955L15.5629 20.9154H21V11.1199L20.9868 11.1067ZM11.1304 19.685H8.15386V7.84727H10.9031V9.60466L11.8877 9.61032L12.0706 9.32633C12.8438 8.12601 14.1608 7.40947 15.5937 7.40947C17.8839 7.40947 19.7176 9.15681 19.7683 11.3874L19.7695 19.685H16.7925L16.7881 13.0951C16.7881 11.5353 15.5191 10.2663 13.9593 10.2663C12.3995 10.2663 11.1304 11.5353 11.1304 13.0951V19.685Z" fill="#A1A1AA"/>
</g>
<defs>
<clipPath id="clip0_22_234">
<rect width="21" height="21" fill="white"/>
</clipPath>
</defs>
</svg>
