<svg width="167" height="49" viewBox="0 0 167 49" fill="none" xmlns="http://www.w3.org/2000/svg">
<path d="M166.072 43.349C166.072 45.9603 163.946 48.0754 161.317 48.0754H5.68949C3.06116 48.0754 0.927734 45.9603 0.927734 43.349V5.65712C0.927734 3.04708 3.06116 0.9245 5.68949 0.9245H161.315C163.946 0.9245 166.071 3.04708 166.071 5.65712L166.072 43.349Z" fill="black"/>
<path d="M160.815 0.981533C163.679 0.981533 166.009 3.28913 166.009 6.125V42.875C166.009 45.7109 163.679 48.0185 160.815 48.0185H6.18518C3.32144 48.0185 0.991176 45.7109 0.991176 42.875V6.125C0.991176 3.28913 3.32144 0.981533 6.18518 0.981533H160.815ZM160.815 3.8147e-06H6.18518C2.78488 3.8147e-06 0 2.75779 0 6.125V42.875C0 46.2422 2.78488 49 6.18518 49H160.815C164.215 49 167 46.2422 167 42.875V6.125C167 2.75779 164.215 3.8147e-06 160.815 3.8147e-06Z" fill="#A6A6A6"/>
<path d="M37.2694 24.2354C37.2335 20.2872 40.5339 18.3664 40.6848 18.277C38.8157 15.5783 35.9185 15.2096 34.9004 15.1802C32.4672 14.9266 30.1069 16.622 28.8674 16.622C27.6032 16.622 25.6944 15.2047 23.6372 15.2464C20.99 15.2868 18.5134 16.8046 17.1551 19.1615C14.352 23.9671 16.4426 31.0293 19.1282 34.9137C20.4716 36.8162 22.0414 38.9403 24.0962 38.8656C26.1063 38.7835 26.8572 37.5965 29.2831 37.5965C31.6866 37.5965 32.3917 38.8656 34.4873 38.8178C36.6447 38.7835 38.0029 36.9068 39.2993 34.9872C40.8518 32.8067 41.4753 30.6593 41.5 30.5491C41.4493 30.5319 37.3102 28.9676 37.2694 24.2354Z" fill="white"/>
<path d="M33.3109 12.6249C34.392 11.2859 35.1318 9.46437 34.9264 7.61584C33.3616 7.68444 31.4046 8.68772 30.2776 9.99724C29.2806 11.1512 28.3899 13.0426 28.62 14.8213C30.3778 14.9511 32.1827 13.943 33.3109 12.6249Z" fill="white"/>
<path d="M60.6767 12.261C60.6767 13.7029 60.24 14.7882 59.3679 15.5171C58.5601 16.1896 57.4121 16.5265 55.9252 16.5265C55.1879 16.5265 54.557 16.4946 54.0288 16.4309V8.55295C54.7178 8.4427 55.4601 8.38635 56.2617 8.38635C57.6781 8.38635 58.7456 8.69138 59.4656 9.30143C60.2721 9.9911 60.6767 10.9772 60.6767 12.261ZM59.3097 12.2966C59.3097 11.3619 59.0598 10.6453 58.5601 10.1455C58.0603 9.64688 57.3305 9.39698 56.3693 9.39698C55.9611 9.39698 55.6135 9.42393 55.3252 9.48028V15.4693C55.4848 15.4938 55.7767 15.5048 56.201 15.5048C57.1932 15.5048 57.9589 15.2317 58.4982 14.6853C59.0376 14.139 59.3097 13.3427 59.3097 12.2966Z" fill="white"/>
<path d="M67.9245 13.5203C67.9245 14.4084 67.6685 15.1361 67.1563 15.7069C66.6195 16.2937 65.9082 16.5865 65.02 16.5865C64.1639 16.5865 63.4823 16.306 62.9739 15.7425C62.4667 15.1802 62.2131 14.4709 62.2131 13.6159C62.2131 12.7216 62.4741 11.9878 62.9987 11.4182C63.5232 10.8486 64.2283 10.5632 65.1165 10.5632C65.9725 10.5632 66.6603 10.8437 67.1811 11.406C67.6759 11.9523 67.9245 12.6579 67.9245 13.5203ZM66.5799 13.562C66.5799 13.0291 66.4636 12.5722 66.2323 12.1912C65.9601 11.7306 65.5729 11.5003 65.0695 11.5003C64.5487 11.5003 64.1528 11.7306 63.8807 12.1912C63.6481 12.5722 63.5331 13.0364 63.5331 13.5852C63.5331 14.1181 63.6493 14.575 63.8807 14.956C64.1615 15.4166 64.5524 15.6469 65.0571 15.6469C65.5519 15.6469 65.9403 15.4129 66.2199 14.9438C66.4599 14.5554 66.5799 14.0948 66.5799 13.562Z" fill="white"/>
<path d="M77.6426 10.6807L75.8179 16.4554H74.6304L73.8746 13.9478C73.6828 13.3218 73.5269 12.6995 73.4057 12.0821H73.3822C73.2696 12.7167 73.1138 13.3377 72.9134 13.9478L72.1105 16.4554H70.9094L69.1936 10.6807H70.5259L71.1852 13.426C71.3448 14.0752 71.4759 14.6938 71.5811 15.2794H71.6046C71.7011 14.7967 71.8607 14.1818 72.0858 13.4382L72.9134 10.682H73.9698L74.7627 13.3794C74.9545 14.0372 75.1103 14.6706 75.2303 15.2806H75.2662C75.354 14.6865 75.4864 14.0532 75.6621 13.3794L76.3697 10.682H77.6426V10.6807Z" fill="white"/>
<path d="M84.3634 16.4554H83.067V13.1479C83.067 12.1287 82.6761 11.6191 81.8918 11.6191C81.5071 11.6191 81.1966 11.7587 80.9553 12.0392C80.7166 12.3198 80.5954 12.6505 80.5954 13.029V16.4542H79.299V12.3308C79.299 11.8236 79.2829 11.2736 79.252 10.6783H80.3913L80.4519 11.5811H80.4878C80.6387 11.3006 80.8638 11.069 81.1595 10.8841C81.5108 10.6685 81.9042 10.5594 82.3346 10.5594C82.8789 10.5594 83.3317 10.7334 83.6917 11.0825C84.1395 11.51 84.3634 12.1483 84.3634 12.996V16.4554Z" fill="white"/>
<path d="M87.9385 16.4554H86.6433V8.03107H87.9385V16.4554Z" fill="white"/>
<path d="M95.571 13.5203C95.571 14.4084 95.315 15.1361 94.8028 15.7069C94.266 16.2937 93.5534 16.5865 92.6665 16.5865C91.8092 16.5865 91.1276 16.306 90.6204 15.7425C90.1132 15.1802 89.8596 14.4709 89.8596 13.6159C89.8596 12.7216 90.1206 11.9878 90.6451 11.4182C91.1696 10.8486 91.8748 10.5632 92.7617 10.5632C93.619 10.5632 94.3055 10.8437 94.8276 11.406C95.3224 11.9523 95.571 12.6579 95.571 13.5203ZM94.2251 13.562C94.2251 13.0291 94.1088 12.5722 93.8775 12.1912C93.6066 11.7306 93.2182 11.5003 92.7159 11.5003C92.1939 11.5003 91.7981 11.7306 91.5271 12.1912C91.2946 12.5722 91.1795 13.0364 91.1795 13.5852C91.1795 14.1181 91.2958 14.575 91.5271 14.956C91.808 15.4166 92.1989 15.6469 92.7036 15.6469C93.1984 15.6469 93.5856 15.4129 93.8651 14.9438C94.1064 14.5554 94.2251 14.0948 94.2251 13.562Z" fill="white"/>
<path d="M101.845 16.4554H100.681L100.585 15.7902H100.549C100.15 16.3207 99.5827 16.5865 98.8454 16.5865C98.2949 16.5865 97.8496 16.4113 97.5143 16.0634C97.21 15.7474 97.0579 15.3541 97.0579 14.8874C97.0579 14.1818 97.3547 13.644 97.9522 13.2716C98.5485 12.8992 99.3872 12.7167 100.467 12.7253V12.6175C100.467 11.8568 100.064 11.477 99.2561 11.477C98.6809 11.477 98.1737 11.6203 97.7358 11.9045L97.4723 11.0617C98.0141 10.7298 98.6833 10.5632 99.4726 10.5632C100.997 10.5632 101.761 11.3594 101.761 12.9519V15.0785C101.761 15.6555 101.79 16.1149 101.845 16.4554ZM100.499 14.4709V13.5803C99.0693 13.5558 98.3543 13.9442 98.3543 14.7441C98.3543 15.0454 98.4359 15.2708 98.6029 15.4215C98.7699 15.5722 98.9827 15.6469 99.2363 15.6469C99.5208 15.6469 99.7868 15.5575 100.029 15.3799C100.273 15.201 100.423 14.9744 100.478 14.6963C100.492 14.6338 100.499 14.5579 100.499 14.4709Z" fill="white"/>
<path d="M109.212 16.4554H108.061L108.001 15.5281H107.965C107.598 16.2337 106.972 16.5865 106.092 16.5865C105.389 16.5865 104.804 16.3133 104.34 15.7669C103.877 15.2206 103.645 14.5113 103.645 13.6403C103.645 12.7057 103.896 11.9486 104.401 11.3704C104.89 10.8314 105.488 10.5619 106.201 10.5619C106.984 10.5619 107.532 10.8228 107.844 11.3459H107.868V8.03107H109.166V14.8996C109.166 15.4619 109.181 15.9801 109.212 16.4554ZM107.868 14.0201V13.0572C107.868 12.8906 107.856 12.7559 107.833 12.653C107.76 12.3443 107.603 12.0846 107.364 11.8751C107.123 11.6656 106.832 11.5603 106.497 11.5603C106.013 11.5603 105.634 11.7502 105.356 12.1311C105.08 12.5121 104.94 12.9984 104.94 13.5926C104.94 14.1634 105.073 14.6265 105.339 14.9829C105.62 15.3627 105.998 15.5526 106.472 15.5526C106.897 15.5526 107.238 15.3945 107.496 15.0773C107.746 14.7845 107.868 14.4317 107.868 14.0201Z" fill="white"/>
<path d="M120.299 13.5203C120.299 14.4084 120.043 15.1361 119.531 15.7069C118.994 16.2937 118.284 16.5865 117.395 16.5865C116.54 16.5865 115.858 16.306 115.349 15.7425C114.841 15.1802 114.588 14.4709 114.588 13.6159C114.588 12.7216 114.849 11.9878 115.373 11.4182C115.898 10.8486 116.603 10.5632 117.492 10.5632C118.347 10.5632 119.036 10.8437 119.556 11.406C120.051 11.9523 120.299 12.6579 120.299 13.5203ZM118.956 13.562C118.956 13.0291 118.84 12.5722 118.608 12.1912C118.335 11.7306 117.949 11.5003 117.444 11.5003C116.925 11.5003 116.529 11.7306 116.255 12.1912C116.023 12.5722 115.908 13.0364 115.908 13.5852C115.908 14.1181 116.024 14.575 116.255 14.956C116.536 15.4166 116.927 15.6469 117.432 15.6469C117.927 15.6469 118.316 15.4129 118.596 14.9438C118.835 14.5554 118.956 14.0948 118.956 13.562Z" fill="white"/>
<path d="M127.27 16.4554H125.975V13.1479C125.975 12.1287 125.584 11.6191 124.799 11.6191C124.414 11.6191 124.103 11.7587 123.863 12.0392C123.623 12.3198 123.503 12.6505 123.503 13.029V16.4542H122.206V12.3308C122.206 11.8236 122.191 11.2736 122.16 10.6783H123.298L123.359 11.5811H123.394C123.547 11.3006 123.772 11.069 124.066 10.8841C124.419 10.6685 124.811 10.5594 125.243 10.5594C125.786 10.5594 126.238 10.7334 126.598 11.0825C127.047 11.51 127.27 12.1483 127.27 12.996V16.4554Z" fill="white"/>
<path d="M135.995 11.6424H134.567V14.4476C134.567 15.1606 134.821 15.5171 135.323 15.5171C135.556 15.5171 135.749 15.4975 135.901 15.457L135.934 16.4309C135.678 16.5265 135.342 16.5742 134.927 16.5742C134.415 16.5742 134.017 16.4199 133.729 16.1112C133.439 15.8025 133.296 15.2831 133.296 14.5542V11.6424H132.443V10.6808H133.296V9.62236L134.566 9.24261V10.6795H135.994V11.6424H135.995Z" fill="white"/>
<path d="M142.858 16.4554H141.56V13.1724C141.56 12.1373 141.169 11.6191 140.386 11.6191C139.785 11.6191 139.374 11.9192 139.149 12.5195C139.111 12.6456 139.089 12.8 139.089 12.9813V16.4542H137.793V8.03107H139.089V11.5113H139.113C139.522 10.878 140.107 10.5619 140.865 10.5619C141.402 10.5619 141.846 10.7359 142.199 11.085C142.638 11.5199 142.858 12.1667 142.858 13.0217V16.4554Z" fill="white"/>
<path d="M149.938 13.2949C149.938 13.5252 149.92 13.7187 149.889 13.8768H146.001C146.019 14.4476 146.204 14.8825 146.564 15.1838C146.893 15.4533 147.318 15.5881 147.837 15.5881C148.412 15.5881 148.937 15.4974 149.409 15.3149L149.612 16.2067C149.059 16.4444 148.409 16.5632 147.655 16.5632C146.752 16.5632 146.041 16.2998 145.526 15.7731C145.009 15.2463 144.753 14.5395 144.753 13.6526C144.753 12.7816 144.992 12.0564 145.473 11.4782C145.975 10.8608 146.655 10.5521 147.512 10.5521C148.35 10.5521 148.988 10.8608 149.418 11.4782C149.766 11.9682 149.938 12.5746 149.938 13.2949ZM148.701 12.9629C148.71 12.5819 148.625 12.2536 148.449 11.9768C148.224 11.6203 147.882 11.4415 147.418 11.4415C146.995 11.4415 146.65 11.6154 146.386 11.9645C146.171 12.2426 146.043 12.5746 146.001 12.9629H148.701Z" fill="white"/>
<path d="M66.3608 38.5923H63.5514L62.0126 33.8038H56.6636L55.1977 38.5923H52.4626L57.7621 22.29H61.0353L66.3608 38.5923ZM61.5487 31.7948L60.157 27.5379C60.0098 27.1031 59.7339 26.079 59.327 24.4669H59.2775C59.1154 25.1602 58.8544 26.1843 58.4957 27.5379L57.1287 31.7948H61.5487Z" fill="white"/>
<path d="M79.9891 32.5703C79.9891 34.5695 79.4435 36.1497 78.3525 37.3098C77.3752 38.3425 76.1617 38.8582 74.7131 38.8582C73.1495 38.8582 72.0263 38.302 71.3422 37.1897H71.2927V43.3821H68.6553V30.707C68.6553 29.4502 68.6219 28.1603 68.5576 26.8373H70.8771L71.0243 28.7005H71.0738C71.9533 27.2966 73.288 26.5959 75.0793 26.5959C76.4796 26.5959 77.6486 27.1435 78.5838 28.2399C79.5215 29.3375 79.9891 30.7805 79.9891 32.5703ZM77.3022 32.6658C77.3022 31.5217 77.0425 30.5784 76.5204 29.8361C75.9502 29.0619 75.1844 28.6748 74.2245 28.6748C73.5738 28.6748 72.9825 28.8904 72.4543 29.3154C71.9248 29.7442 71.5785 30.304 71.4164 30.9974C71.3348 31.3208 71.2939 31.5854 71.2939 31.7936V33.7536C71.2939 34.6087 71.5587 35.3302 72.0881 35.9194C72.6176 36.5086 73.3054 36.8026 74.1515 36.8026C75.1448 36.8026 75.918 36.4229 76.4709 35.6658C77.0251 34.9076 77.3022 33.908 77.3022 32.6658Z" fill="white"/>
<path d="M93.6424 32.5703C93.6424 34.5695 93.0968 36.1497 92.0045 37.3098C91.0285 38.3425 89.815 38.8582 88.3664 38.8582C86.8028 38.8582 85.6796 38.302 84.9967 37.1897H84.9472V43.3821H82.3099V30.707C82.3099 29.4502 82.2765 28.1603 82.2122 26.8373H84.5316L84.6788 28.7005H84.7283C85.6066 27.2966 86.9414 26.5959 88.7338 26.5959C90.1329 26.5959 91.3019 27.1435 92.2396 28.2399C93.1735 29.3375 93.6424 30.7805 93.6424 32.5703ZM90.9555 32.6658C90.9555 31.5217 90.6945 30.5784 90.1725 29.8361C89.6022 29.0619 88.839 28.6748 87.8778 28.6748C87.2259 28.6748 86.6358 28.8904 86.1064 29.3154C85.5769 29.7442 85.2318 30.304 85.0697 30.9974C84.9893 31.3208 84.9472 31.5854 84.9472 31.7936V33.7536C84.9472 34.6087 85.212 35.3302 85.7389 35.9194C86.2684 36.5074 86.9562 36.8026 87.8048 36.8026C88.7981 36.8026 89.5713 36.4229 90.1243 35.6658C90.6784 34.9076 90.9555 33.908 90.9555 32.6658Z" fill="white"/>
<path d="M108.907 34.0207C108.907 35.4074 108.421 36.5356 107.445 37.4066C106.373 38.3584 104.88 38.8337 102.961 38.8337C101.189 38.8337 99.7693 38.4956 98.6943 37.8182L99.3054 35.6414C100.463 36.3347 101.734 36.6826 103.118 36.6826C104.111 36.6826 104.884 36.4597 105.44 36.0162C105.993 35.5728 106.269 34.9774 106.269 34.2351C106.269 33.5736 106.041 33.0162 105.585 32.5642C105.131 32.1121 104.372 31.692 103.313 31.3036C100.431 30.2391 98.9912 28.6797 98.9912 26.629C98.9912 25.2889 99.4959 24.1901 100.507 23.335C101.514 22.4787 102.857 22.0512 104.537 22.0512C106.035 22.0512 107.279 22.3097 108.273 22.8254L107.613 24.9545C106.686 24.4547 105.637 24.2048 104.463 24.2048C103.535 24.2048 102.81 24.4314 102.29 24.8822C101.851 25.2852 101.631 25.7764 101.631 26.3583C101.631 27.0027 101.882 27.5355 102.387 27.9545C102.826 28.3416 103.624 28.7605 104.782 29.2126C106.198 29.7773 107.239 30.4376 107.908 31.1946C108.575 31.9492 108.907 32.8937 108.907 34.0207Z" fill="white"/>
<path d="M117.627 28.7973H114.72V34.5046C114.72 35.9562 115.232 36.6814 116.259 36.6814C116.73 36.6814 117.121 36.641 117.43 36.5601L117.503 38.5434C116.984 38.7357 116.3 38.8325 115.452 38.8325C114.411 38.8325 113.597 38.5177 113.009 37.8893C112.424 37.2596 112.13 36.2037 112.13 34.7202V28.7949H110.398V26.8349H112.13V24.6825L114.72 23.9083V26.8349H117.627V28.7973Z" fill="white"/>
<path d="M130.744 32.618C130.744 34.4249 130.222 35.9084 129.18 37.0685C128.088 38.2628 126.638 38.8582 124.831 38.8582C123.089 38.8582 121.702 38.2861 120.668 37.142C119.634 35.9978 119.117 34.5535 119.117 32.8128C119.117 30.9912 119.649 29.4992 120.716 28.3391C121.781 27.1778 123.219 26.5972 125.026 26.5972C126.768 26.5972 128.169 27.1692 129.227 28.3146C130.239 29.4257 130.744 30.8602 130.744 32.618ZM128.007 32.7026C128.007 31.6184 127.773 30.6887 127.3 29.9132C126.747 28.9749 125.956 28.5069 124.932 28.5069C123.872 28.5069 123.067 28.9761 122.514 29.9132C122.04 30.6899 121.806 31.6344 121.806 32.7516C121.806 33.8357 122.04 34.7655 122.514 35.5397C123.084 36.478 123.881 36.946 124.909 36.946C125.915 36.946 126.706 36.4682 127.276 35.5152C127.762 34.725 128.007 33.7855 128.007 32.7026Z" fill="white"/>
<path d="M139.316 29.1341C139.055 29.0864 138.777 29.0619 138.485 29.0619C137.557 29.0619 136.84 29.4085 136.335 30.1031C135.896 30.7156 135.676 31.4898 135.676 32.4245V38.5924H133.04L133.064 30.5392C133.064 29.1844 133.031 27.9508 132.965 26.8385H135.263L135.359 29.0876H135.432C135.71 28.3146 136.149 27.6923 136.751 27.2256C137.338 26.8054 137.973 26.5959 138.657 26.5959C138.901 26.5959 139.121 26.6131 139.316 26.6437V29.1341Z" fill="white"/>
<path d="M151.111 32.1587C151.111 32.6266 151.081 33.0211 151.015 33.3433H143.103C143.134 34.5046 143.516 35.3927 144.251 36.0052C144.918 36.5528 145.78 36.8272 146.839 36.8272C148.01 36.8272 149.079 36.6422 150.04 36.271L150.453 38.084C149.33 38.5691 148.004 38.8104 146.474 38.8104C144.633 38.8104 143.188 38.2739 142.137 37.202C141.088 36.1301 140.562 34.6908 140.562 32.8851C140.562 31.1125 141.051 29.6364 142.029 28.4592C143.053 27.2023 144.438 26.5739 146.179 26.5739C147.89 26.5739 149.185 27.2023 150.065 28.4592C150.761 29.4576 151.111 30.6924 151.111 32.1587ZM148.597 31.4813C148.614 30.7071 148.442 30.0382 148.084 29.4735C147.628 28.7471 146.927 28.3845 145.983 28.3845C145.12 28.3845 144.419 28.7385 143.883 29.449C143.444 30.0137 143.183 30.6911 143.103 31.48H148.597V31.4813Z" fill="white"/>
</svg>
