<svg width="26" height="26" viewBox="0 0 26 26" fill="none" xmlns="http://www.w3.org/2000/svg">
<g clip-path="url(#clip0_122_2)">
<path d="M24.4373 11.175C24.3309 11.1578 24.2232 11.1498 24.1155 11.1512H5.77301L6.17297 10.9652C6.56392 10.7801 6.91958 10.5283 7.22403 10.221L12.3677 5.07736C13.0452 4.43067 13.159 3.39037 12.6375 2.61248C12.0305 1.78354 10.8665 1.60356 10.0375 2.21054C9.97051 2.2596 9.90685 2.31309 9.84703 2.37064L0.545602 11.6721C-0.181305 12.3982 -0.181944 13.576 0.544149 14.3029C0.544614 14.3034 0.545137 14.3039 0.545602 14.3044L9.84703 23.6058C10.5745 24.3313 11.7524 24.3296 12.4779 23.6021C12.535 23.5449 12.5883 23.484 12.6375 23.4198C13.159 22.6419 13.0452 21.6016 12.3677 20.9549L7.23333 15.8019C6.96039 15.5287 6.64659 15.2996 6.30319 15.1229L5.7451 14.8718H24.0131C24.9634 14.9071 25.7972 14.2432 25.9757 13.3091C26.1402 12.295 25.4514 11.3395 24.4373 11.175Z" fill="#DC2626"/>
</g>
<defs>
<clipPath id="clip0_122_2">
<rect width="26" height="26" fill="white"/>
</clipPath>
</defs>
</svg>
