<svg width="24" height="22" viewBox="0 0 24 22" fill="none" xmlns="http://www.w3.org/2000/svg">
<path d="M1.4424 12.4997C1.54058 12.5156 1.63996 12.523 1.73942 12.5217L18.6709 12.5217L18.3017 12.6934C17.9409 12.8643 17.6126 13.0967 17.3315 13.3803L12.5835 18.1283C11.9582 18.7253 11.8531 19.6856 12.3345 20.4036C12.8948 21.1688 13.9693 21.3349 14.7345 20.7746C14.7963 20.7293 14.8551 20.68 14.9103 20.6268L23.4962 12.0409C24.1672 11.3707 24.1678 10.2834 23.4976 9.61242L23.4962 9.61108L14.9103 1.02514C14.2388 0.355493 13.1515 0.356995 12.4818 1.02852C12.4291 1.08138 12.3799 1.13761 12.3345 1.19686C11.8531 1.91491 11.9582 2.8752 12.5835 3.47213L17.323 8.22875C17.5749 8.48097 17.8646 8.69242 18.1815 8.85552L18.6967 9.08734L1.83391 9.08734C0.956698 9.05477 0.187076 9.66754 0.0222792 10.5298C-0.129531 11.4659 0.506259 12.3479 1.4424 12.4997Z" fill="#FAFAFA"/>
</svg>
