<svg width="21" height="21" viewBox="0 0 21 21" fill="none" xmlns="http://www.w3.org/2000/svg">
<g clip-path="url(#clip0_11_70)">
<path d="M10.5 0.000610352C4.71024 0.000610352 0 4.71085 0 10.5005C0 16.2902 4.71024 21.0004 10.5 21.0004C16.2898 21.0004 21 16.2902 21 10.5005C21 4.71085 16.2898 0.000610352 10.5 0.000610352ZM17.3424 4.9526C18.5212 6.40359 19.2469 8.23501 19.3073 10.2314C17.1237 9.77939 15.1465 9.83244 13.4011 10.1747C13.085 9.43559 12.7578 8.73145 12.4276 8.06598C14.3285 7.24709 15.9834 6.20117 17.3424 4.9526ZM16.1596 3.75046C14.8106 4.98183 13.2472 5.89355 11.6464 6.56667C10.4715 4.41807 9.34731 2.80007 8.6625 1.88059C9.25548 1.75426 9.86993 1.68649 10.5 1.68649C12.6531 1.68649 14.6273 2.46357 16.1596 3.75046ZM6.95976 2.4312C7.47688 3.10128 8.70858 4.77907 10.0317 7.16617C6.70643 8.24951 3.47988 8.43204 1.92943 8.44901C2.57569 5.74935 4.46623 3.5295 6.95976 2.4312ZM1.6951 10.1392C1.71173 10.1392 1.7278 10.1393 1.74477 10.1393C2.81609 10.1393 4.77891 10.0672 7.08969 9.64587C8.40805 9.40547 9.65818 9.08189 10.8312 8.68087C11.1366 9.28948 11.4402 9.93146 11.7345 10.6044C10.092 11.1332 8.7069 11.894 7.60973 12.6495C5.76987 13.9165 4.48096 15.3222 3.77716 16.1914C2.47409 14.6546 1.68588 12.6684 1.68588 10.5005C1.68588 10.3793 1.69015 10.2592 1.6951 10.1392ZM4.992 17.3743C5.59791 16.6114 6.83119 15.2228 8.61519 14.0043C9.82756 13.1762 11.0819 12.561 12.3731 12.1572C13.1223 14.0991 13.762 16.2447 14.1433 18.523C13.032 19.0297 11.799 19.3145 10.5 19.3145C8.41715 19.3145 6.5021 18.5868 4.992 17.3743ZM15.6943 17.6153C15.3013 15.5229 14.7152 13.5554 14.0375 11.7574C15.7043 11.4762 17.4269 11.5342 19.1962 11.9316C18.8147 14.257 17.5207 16.2782 15.6943 17.6153Z" fill="#FAFAFA"/>
</g>
<defs>
<clipPath id="clip0_11_70">
<rect width="21" height="21" fill="white"/>
</clipPath>
</defs>
</svg>
