<svg width="512" height="512" viewBox="0 0 512 512" fill="none" xmlns="http://www.w3.org/2000/svg">
<g clip-path="url(#clip0_779_473)">
<rect y="306" width="512" height="206" fill="#DC2626"/>
<path d="M345.258 150.073C343.312 130.453 334.962 115.21 320.207 104.346C305.453 93.4815 285.428 88.0494 260.135 88.0494C242.948 88.0494 228.436 90.4817 216.6 95.3463C204.764 100.049 195.684 106.616 189.36 115.048C183.199 123.48 180.119 133.047 180.119 143.749C179.794 152.668 181.659 160.451 185.712 167.099C189.928 173.748 195.684 179.504 202.98 184.369C210.277 189.071 218.708 193.206 228.274 196.773C237.84 200.179 248.055 203.097 258.919 205.53L303.669 216.232C325.396 221.096 345.339 227.583 363.499 235.69C381.658 243.798 397.386 253.77 410.681 265.608C423.977 277.445 434.273 291.39 441.569 307.443C449.028 323.496 452.838 341.901 453 362.657C452.838 393.141 445.055 419.572 429.652 441.95C414.411 464.165 392.36 481.434 363.499 493.758C334.8 505.919 300.183 512 259.648 512C219.437 512 184.415 505.838 154.581 493.514C124.91 481.191 101.724 462.949 85.0235 438.788C68.4852 414.465 59.8107 384.385 59 348.549H160.905C162.04 365.251 166.823 379.196 175.254 390.385C183.848 401.411 195.279 409.762 209.547 415.438C223.977 420.951 240.272 423.707 258.432 423.707C276.268 423.707 291.752 421.113 304.885 415.924C318.181 410.735 328.477 403.519 335.773 394.276C343.069 385.034 346.717 374.413 346.717 362.413C346.717 351.225 343.393 341.82 336.746 334.199C330.26 326.577 320.694 320.091 308.047 314.74C295.562 309.389 280.24 304.524 262.08 300.146L207.844 286.525C165.85 276.31 132.693 260.338 108.372 238.609C84.0506 216.88 71.9712 187.612 72.1333 150.803C71.9712 120.642 79.9971 94.2923 96.2111 71.753C112.587 49.2136 135.044 31.62 163.58 18.972C192.117 6.32399 224.545 0 260.864 0C297.832 0 330.098 6.32399 357.662 18.972C385.388 31.62 406.952 49.2136 422.356 71.753C437.759 94.2923 445.704 120.399 446.19 150.073H345.258Z" fill="white"/>
</g>
<defs>
<clipPath id="clip0_779_473">
<rect width="512" height="512" fill="white"/>
</clipPath>
</defs>
</svg>
