<svg width="207" height="88" viewBox="0 0 207 88" fill="none" xmlns="http://www.w3.org/2000/svg">
<path d="M184.513 56.7415C182.008 56.7415 179.775 56.3068 177.815 55.4375C175.854 54.5511 174.303 53.2472 173.161 51.5256C172.036 49.7869 171.474 47.6222 171.474 45.0313C171.474 42.8494 171.874 41.017 172.675 39.5341C173.476 38.0511 174.567 36.858 175.948 35.9545C177.329 35.0511 178.897 34.3693 180.653 33.9091C182.425 33.4489 184.283 33.125 186.226 32.9375C188.511 32.6989 190.351 32.4773 191.749 32.2727C193.147 32.0511 194.161 31.7273 194.792 31.3011C195.423 30.875 195.738 30.2443 195.738 29.4091V29.2557C195.738 27.6364 195.226 26.3835 194.204 25.4972C193.198 24.6108 191.766 24.1676 189.908 24.1676C187.948 24.1676 186.388 24.6023 185.229 25.4716C184.07 26.3239 183.303 27.3977 182.928 28.6932L172.854 27.875C173.366 25.4886 174.371 23.4261 175.871 21.6875C177.371 19.9318 179.306 18.5852 181.675 17.6477C184.062 16.6932 186.823 16.2159 189.959 16.2159C192.141 16.2159 194.229 16.4716 196.224 16.983C198.235 17.4943 200.016 18.2869 201.567 19.3608C203.136 20.4347 204.371 21.8153 205.275 23.5028C206.178 25.1733 206.63 27.1761 206.63 29.5114V56H196.3V50.554H195.994C195.363 51.7812 194.519 52.8636 193.462 53.8011C192.405 54.7216 191.136 55.446 189.653 55.9744C188.17 56.4858 186.457 56.7415 184.513 56.7415ZM187.633 49.2244C189.235 49.2244 190.65 48.9091 191.877 48.2784C193.104 47.6307 194.067 46.7614 194.766 45.6705C195.465 44.5795 195.815 43.3438 195.815 41.9631V37.7955C195.474 38.017 195.005 38.2216 194.408 38.4091C193.829 38.5795 193.172 38.7415 192.44 38.8949C191.707 39.0313 190.974 39.1591 190.241 39.2784C189.508 39.3807 188.843 39.4744 188.246 39.5597C186.968 39.7472 185.851 40.0455 184.897 40.4545C183.942 40.8636 183.201 41.4176 182.673 42.1165C182.144 42.7983 181.88 43.6506 181.88 44.6733C181.88 46.1562 182.417 47.2898 183.491 48.0739C184.582 48.8409 185.962 49.2244 187.633 49.2244Z" fill="#FAFAFA"/>
<path d="M107.644 56V16.7273H118.024V23.6563H118.484C119.303 21.3551 120.666 19.5398 122.575 18.2102C124.484 16.8807 126.769 16.2159 129.428 16.2159C132.121 16.2159 134.413 16.8892 136.305 18.2358C138.198 19.5653 139.459 21.3722 140.09 23.6563H140.499C141.3 21.4063 142.749 19.608 144.845 18.2614C146.959 16.8977 149.456 16.2159 152.337 16.2159C156.002 16.2159 158.976 17.3835 161.26 19.7188C163.561 22.0369 164.712 25.3267 164.712 29.5881V56H153.845V31.7358C153.845 29.554 153.266 27.9176 152.107 26.8267C150.948 25.7358 149.499 25.1903 147.76 25.1903C145.783 25.1903 144.24 25.821 143.132 27.0824C142.024 28.3267 141.47 29.9716 141.47 32.017V56H130.911V31.5057C130.911 29.5795 130.357 28.0455 129.249 26.9034C128.158 25.7614 126.717 25.1903 124.928 25.1903C123.717 25.1903 122.627 25.4972 121.655 26.1108C120.7 26.7074 119.942 27.5511 119.379 28.642C118.817 29.7159 118.536 30.9773 118.536 32.4261V56H107.644Z" fill="#FAFAFA"/>
<path d="M79.7736 71.5455C76.2452 71.5455 73.2196 71.0597 70.6969 70.0881C68.1912 69.1335 66.1969 67.8295 64.714 66.1761C63.231 64.5227 62.2679 62.6648 61.8248 60.6023L71.8986 59.2472C72.2054 60.0313 72.6912 60.7642 73.356 61.446C74.0208 62.1278 74.8986 62.6733 75.9895 63.0824C77.0975 63.5085 78.4441 63.7216 80.0293 63.7216C82.3986 63.7216 84.3503 63.142 85.8844 61.983C87.4355 60.8409 88.2111 58.9233 88.2111 56.2301V49.0455H87.7509C87.2736 50.1364 86.5577 51.1676 85.6032 52.1392C84.6486 53.1108 83.4213 53.9034 81.9213 54.517C80.4213 55.1307 78.6316 55.4375 76.552 55.4375C73.6032 55.4375 70.9185 54.7557 68.498 53.392C66.0946 52.0114 64.177 49.9063 62.7452 47.0767C61.3304 44.2301 60.623 40.6335 60.623 36.2869C60.623 31.8381 61.3475 28.1222 62.7963 25.1392C64.2452 22.1562 66.1713 19.9233 68.5748 18.4403C70.9952 16.9574 73.6458 16.2159 76.5265 16.2159C78.7253 16.2159 80.5662 16.5909 82.0492 17.3409C83.5321 18.0739 84.7253 18.9943 85.6287 20.1023C86.5492 21.1932 87.2566 22.267 87.7509 23.3239H88.16V16.7273H98.9753V56.3835C98.9753 59.7244 98.1571 62.5199 96.5208 64.7699C94.8844 67.0199 92.6174 68.7074 89.7196 69.8324C86.839 70.9744 83.5236 71.5455 79.7736 71.5455ZM80.0037 47.2557C81.7594 47.2557 83.2424 46.821 84.4526 45.9517C85.6799 45.0653 86.6174 43.804 87.2651 42.1676C87.9299 40.5142 88.2623 38.5369 88.2623 36.2358C88.2623 33.9347 87.9384 31.9403 87.2907 30.2528C86.6429 28.5483 85.7054 27.2273 84.4782 26.2898C83.2509 25.3523 81.7594 24.8835 80.0037 24.8835C78.214 24.8835 76.7054 25.3693 75.4782 26.3409C74.2509 27.2955 73.3219 28.625 72.6912 30.3295C72.0605 32.0341 71.7452 34.0028 71.7452 36.2358C71.7452 38.5028 72.0605 40.4631 72.6912 42.1165C73.339 43.7528 74.2679 45.0227 75.4782 45.9261C76.7054 46.8125 78.214 47.2557 80.0037 47.2557Z" fill="#FAFAFA"/>
<path d="M42.4638 56V16.7273H53.3558V56H42.4638ZM47.9354 11.6648C46.3161 11.6648 44.9268 11.1279 43.7678 10.054C42.6257 8.96308 42.0547 7.6591 42.0547 6.14206C42.0547 4.64206 42.6257 3.35513 43.7678 2.28126C44.9268 1.19035 46.3161 0.644897 47.9354 0.644897C49.5547 0.644897 50.9354 1.19035 52.0774 2.28126C53.2365 3.35513 53.8161 4.64206 53.8161 6.14206C53.8161 7.6591 53.2365 8.96308 52.0774 10.054C50.9354 11.1279 49.5547 11.6648 47.9354 11.6648Z" fill="#FAFAFA"/>
<path d="M0.550781 56V3.63638H35.2212V12.7642H11.6218V25.2415H32.9201V34.3693H11.6218V56H0.550781Z" fill="#FAFAFA"/>
<path d="M202.149 83.7656C201.074 83.7656 200.148 83.536 199.372 83.0767C198.6 82.6127 198.003 81.9617 197.582 81.1236C197.165 80.2808 196.957 79.2936 196.957 78.1619C196.957 77.0445 197.165 76.0597 197.582 75.2074C198.003 74.3551 198.591 73.6899 199.343 73.2117C200.101 72.7334 200.986 72.4943 202 72.4943C202.615 72.4943 203.212 72.5961 203.789 72.7997C204.367 73.0033 204.886 73.3229 205.345 73.7585C205.804 74.1941 206.166 74.7599 206.431 75.456C206.697 76.1473 206.829 76.9877 206.829 77.9773V78.7301H198.157V77.1392H204.748C204.748 76.5805 204.635 76.0857 204.407 75.6548C204.18 75.2192 203.86 74.876 203.449 74.625C203.041 74.3741 202.563 74.2486 202.014 74.2486C201.417 74.2486 200.896 74.3954 200.451 74.6889C200.011 74.9778 199.67 75.3565 199.429 75.8253C199.192 76.2893 199.074 76.7936 199.074 77.3381V78.581C199.074 79.3101 199.201 79.9304 199.457 80.4418C199.717 80.9531 200.08 81.3438 200.544 81.6136C201.008 81.8788 201.55 82.0114 202.17 82.0114C202.573 82.0114 202.94 81.9546 203.271 81.8409C203.602 81.7225 203.889 81.5474 204.13 81.3153C204.372 81.0833 204.556 80.7969 204.684 80.456L206.694 80.8182C206.533 81.41 206.244 81.9285 205.828 82.3736C205.416 82.8139 204.897 83.1572 204.272 83.4034C203.652 83.6449 202.944 83.7656 202.149 83.7656Z" fill="#FAFAFA"/>
<path d="M185.103 87.6364V72.6364H187.176V74.4048H187.354C187.477 74.1776 187.655 73.9148 187.887 73.6165C188.119 73.3182 188.441 73.0578 188.853 72.8352C189.264 72.608 189.809 72.4943 190.486 72.4943C191.367 72.4943 192.153 72.7169 192.844 73.1619C193.535 73.607 194.077 74.2486 194.47 75.0867C194.868 75.9247 195.067 76.9332 195.067 78.1122C195.067 79.2912 194.871 80.3021 194.478 81.1449C194.085 81.983 193.545 82.6293 192.858 83.0838C192.172 83.5336 191.388 83.7585 190.507 83.7585C189.844 83.7585 189.302 83.6473 188.881 83.4247C188.464 83.2022 188.138 82.9418 187.901 82.6435C187.664 82.3452 187.482 82.08 187.354 81.848H187.226V87.6364H185.103ZM187.184 78.0909C187.184 78.858 187.295 79.5303 187.517 80.108C187.74 80.6856 188.062 81.1378 188.483 81.4645C188.905 81.7865 189.421 81.9474 190.032 81.9474C190.666 81.9474 191.196 81.7794 191.622 81.4432C192.049 81.1023 192.371 80.6406 192.588 80.0582C192.811 79.4759 192.922 78.8201 192.922 78.0909C192.922 77.3712 192.813 76.7249 192.595 76.152C192.382 75.5791 192.06 75.1269 191.63 74.7955C191.203 74.464 190.671 74.2983 190.032 74.2983C189.416 74.2983 188.895 74.4569 188.469 74.7742C188.048 75.0914 187.728 75.5341 187.51 76.1023C187.292 76.6705 187.184 77.3333 187.184 78.0909Z" fill="#FAFAFA"/>
<path d="M175.117 87.6364C174.8 87.6364 174.511 87.6103 174.25 87.5582C173.99 87.5109 173.796 87.4588 173.668 87.402L174.179 85.6619C174.568 85.7661 174.913 85.8111 175.216 85.7969C175.519 85.7827 175.787 85.669 176.019 85.456C176.255 85.2429 176.464 84.8949 176.644 84.4119L176.907 83.6875L172.915 72.6364H175.188L177.951 81.1023H178.064L180.827 72.6364H183.107L178.611 85.0014C178.403 85.5696 178.138 86.0502 177.816 86.4432C177.494 86.8409 177.11 87.1392 176.665 87.3381C176.22 87.5369 175.704 87.6364 175.117 87.6364Z" fill="#FAFAFA"/>
<path d="M171.426 72.6364V74.3409H165.467V72.6364H171.426ZM167.065 70.0227H169.188V80.3423C169.188 80.7543 169.25 81.0644 169.373 81.2727C169.496 81.4763 169.655 81.616 169.849 81.6918C170.048 81.7628 170.263 81.7983 170.495 81.7983C170.666 81.7983 170.815 81.7865 170.943 81.7628C171.07 81.7391 171.17 81.7202 171.241 81.706L171.624 83.4602C171.501 83.5076 171.326 83.5549 171.099 83.6023C170.872 83.6544 170.588 83.6828 170.247 83.6875C169.688 83.697 169.167 83.5975 168.684 83.3892C168.201 83.1809 167.811 82.8589 167.512 82.4233C167.214 81.9877 167.065 81.4408 167.065 80.7827V70.0227Z" fill="#FAFAFA"/>
<path d="M158.878 83.7656C157.855 83.7656 156.963 83.5313 156.201 83.0625C155.438 82.5938 154.846 81.938 154.425 81.0952C154.004 80.2524 153.793 79.2675 153.793 78.1406C153.793 77.009 154.004 76.0194 154.425 75.1719C154.846 74.3243 155.438 73.6662 156.201 73.1974C156.963 72.7287 157.855 72.4943 158.878 72.4943C159.901 72.4943 160.793 72.7287 161.556 73.1974C162.318 73.6662 162.91 74.3243 163.331 75.1719C163.753 76.0194 163.963 77.009 163.963 78.1406C163.963 79.2675 163.753 80.2524 163.331 81.0952C162.91 81.938 162.318 82.5938 161.556 83.0625C160.793 83.5313 159.901 83.7656 158.878 83.7656ZM158.885 81.983C159.548 81.983 160.097 81.8078 160.533 81.4574C160.969 81.107 161.291 80.6406 161.499 80.0582C161.712 79.4759 161.819 78.8343 161.819 78.1335C161.819 77.4375 161.712 76.7983 161.499 76.2159C161.291 75.6288 160.969 75.1577 160.533 74.8026C160.097 74.4474 159.548 74.2699 158.885 74.2699C158.218 74.2699 157.664 74.4474 157.223 74.8026C156.788 75.1577 156.463 75.6288 156.25 76.2159C156.042 76.7983 155.938 77.4375 155.938 78.1335C155.938 78.8343 156.042 79.4759 156.25 80.0582C156.463 80.6406 156.788 81.107 157.223 81.4574C157.664 81.8078 158.218 81.983 158.885 81.983Z" fill="#FAFAFA"/>
<path d="M152.051 72.6364V74.3409H146.092V72.6364H152.051ZM147.69 70.0227H149.813V80.3423C149.813 80.7543 149.875 81.0644 149.998 81.2727C150.121 81.4763 150.28 81.616 150.474 81.6918C150.673 81.7628 150.888 81.7983 151.12 81.7983C151.291 81.7983 151.44 81.7865 151.568 81.7628C151.695 81.7391 151.795 81.7202 151.866 81.706L152.249 83.4602C152.126 83.5076 151.951 83.5549 151.724 83.6023C151.497 83.6544 151.213 83.6828 150.872 83.6875C150.313 83.697 149.792 83.5975 149.309 83.3892C148.826 83.1809 148.436 82.8589 148.137 82.4233C147.839 81.9877 147.69 81.4408 147.69 80.7827V70.0227Z" fill="#FAFAFA"/>
<path d="M139.503 83.7656C138.48 83.7656 137.588 83.5313 136.826 83.0625C136.063 82.5938 135.471 81.938 135.05 81.0952C134.629 80.2524 134.418 79.2675 134.418 78.1406C134.418 77.009 134.629 76.0194 135.05 75.1719C135.471 74.3243 136.063 73.6662 136.826 73.1974C137.588 72.7287 138.48 72.4943 139.503 72.4943C140.526 72.4943 141.418 72.7287 142.181 73.1974C142.943 73.6662 143.535 74.3243 143.956 75.1719C144.378 76.0194 144.588 77.009 144.588 78.1406C144.588 79.2675 144.378 80.2524 143.956 81.0952C143.535 81.938 142.943 82.5938 142.181 83.0625C141.418 83.5313 140.526 83.7656 139.503 83.7656ZM139.51 81.983C140.173 81.983 140.722 81.8078 141.158 81.4574C141.594 81.107 141.916 80.6406 142.124 80.0582C142.337 79.4759 142.444 78.8343 142.444 78.1335C142.444 77.4375 142.337 76.7983 142.124 76.2159C141.916 75.6288 141.594 75.1577 141.158 74.8026C140.722 74.4474 140.173 74.2699 139.51 74.2699C138.843 74.2699 138.289 74.4474 137.848 74.8026C137.413 75.1577 137.088 75.6288 136.875 76.2159C136.667 76.7983 136.563 77.4375 136.563 78.1335C136.563 78.8343 136.667 79.4759 136.875 80.0582C137.088 80.6406 137.413 81.107 137.848 81.4574C138.289 81.8078 138.843 81.983 139.51 81.983Z" fill="#FAFAFA"/>
<path d="M127.622 83.5455V72.6364H129.675V74.3693H129.788C129.987 73.7822 130.338 73.3206 130.839 72.9844C131.346 72.6435 131.919 72.473 132.558 72.473C132.691 72.473 132.847 72.4778 133.027 72.4872C133.212 72.4967 133.356 72.5085 133.46 72.5227V74.554C133.375 74.5303 133.223 74.5043 133.006 74.4759C132.788 74.4427 132.57 74.4261 132.352 74.4261C131.85 74.4261 131.403 74.5327 131.01 74.7458C130.622 74.9541 130.314 75.2453 130.087 75.6193C129.859 75.9886 129.746 76.41 129.746 76.8835V83.5455H127.622Z" fill="#FAFAFA"/>
<path d="M115 83.5455V69H120.185C121.316 69 122.254 69.206 122.997 69.6179C123.741 70.0298 124.297 70.5933 124.666 71.3082C125.036 72.0185 125.22 72.8187 125.22 73.7088C125.22 74.6037 125.033 75.4086 124.659 76.1236C124.29 76.8338 123.731 77.3973 122.983 77.8139C122.24 78.2259 121.304 78.4318 120.178 78.4318H116.612V76.571H119.979C120.694 76.571 121.274 76.4479 121.719 76.2017C122.164 75.9508 122.491 75.6098 122.699 75.179C122.907 74.7481 123.011 74.258 123.011 73.7088C123.011 73.1596 122.907 72.6719 122.699 72.2457C122.491 71.8196 122.161 71.4858 121.712 71.2443C121.267 71.0028 120.679 70.8821 119.95 70.8821H117.195V83.5455H115Z" fill="#FAFAFA"/>
</svg>
