<svg width="288" height="395" viewBox="0 0 288 395" fill="none" xmlns="http://www.w3.org/2000/svg">
<path d="M288 1.52588e-05L288 347C288 373.51 266.51 395 240 395L48 395C21.4904 395 1.4191e-05 373.51 1.53497e-05 347L3.05176e-05 2.66991e-06L288 1.52588e-05Z" fill="white"/>
<path d="M86 283.096V254.978H107.981V260.963H92.8V266.225H102.921V272.01H92.8V283.096H86Z" fill="black"/>
<path d="M110.895 283.096V261.847H117.3V283.096H110.895ZM114.097 259.878C113.122 259.878 112.292 259.53 111.606 258.834C110.921 258.138 110.579 257.294 110.579 256.303C110.579 255.312 110.921 254.469 111.606 253.773C112.292 253.076 113.122 252.728 114.097 252.728C115.072 252.728 115.903 253.076 116.588 253.773C117.273 254.469 117.616 255.312 117.616 256.303C117.616 257.294 117.273 258.138 116.588 258.834C115.903 259.53 115.072 259.878 114.097 259.878Z" fill="black"/>
<path d="M131.916 291.693C130.229 291.693 128.622 291.532 127.093 291.211C125.591 290.889 124.22 290.434 122.981 289.845L125.116 284.783C126.25 285.319 127.37 285.721 128.477 285.988C129.584 286.256 130.691 286.39 131.798 286.39C133.3 286.39 134.433 286.082 135.198 285.466C135.962 284.85 136.344 283.926 136.344 282.695V281.489C134.71 282.614 132.905 283.177 130.928 283.177C128.951 283.177 127.159 282.695 125.551 281.731C123.943 280.766 122.665 279.468 121.716 277.834C120.767 276.174 120.293 274.339 120.293 272.331C120.293 270.322 120.767 268.501 121.716 266.868C122.691 265.234 123.996 263.949 125.63 263.012C127.291 262.047 129.136 261.565 131.165 261.565C132.114 261.565 133.036 261.686 133.933 261.927C134.829 262.168 135.659 262.516 136.423 262.971V261.847H142.749V282.775C142.749 285.64 141.813 287.836 139.942 289.363C138.097 290.916 135.422 291.693 131.916 291.693ZM132.035 277.714C132.905 277.714 133.695 277.58 134.407 277.312C135.145 277.044 135.791 276.656 136.344 276.147V268.635C135.791 268.153 135.145 267.778 134.407 267.511C133.695 267.216 132.918 267.069 132.074 267.069C131.046 267.069 130.111 267.31 129.267 267.792C128.45 268.247 127.791 268.876 127.291 269.68C126.816 270.456 126.579 271.34 126.579 272.331C126.579 273.348 126.816 274.272 127.291 275.103C127.765 275.906 128.411 276.549 129.228 277.031C130.071 277.486 131.007 277.714 132.035 277.714Z" fill="black"/>
<path d="M146.685 283.096V261.847H153.089V263.212C154.565 262.034 156.305 261.445 158.308 261.445C159.626 261.445 160.812 261.699 161.866 262.208C162.92 262.717 163.803 263.44 164.515 264.377C165.358 263.44 166.36 262.717 167.52 262.208C168.679 261.699 169.944 261.445 171.315 261.445C172.896 261.445 174.293 261.806 175.506 262.53C176.718 263.253 177.667 264.257 178.352 265.542C179.064 266.828 179.419 268.314 179.419 270.001V283.096H173.015V270.885C173.015 269.706 172.699 268.769 172.066 268.073C171.46 267.377 170.643 267.028 169.615 267.028C168.903 267.028 168.257 267.162 167.678 267.43C167.098 267.698 166.597 268.1 166.175 268.635C166.202 268.85 166.215 269.077 166.215 269.318C166.241 269.532 166.254 269.76 166.254 270.001V283.096H159.85V270.885C159.85 269.706 159.533 268.769 158.901 268.073C158.295 267.377 157.478 267.028 156.45 267.028C155.738 267.028 155.092 267.162 154.513 267.43C153.959 267.671 153.485 268.046 153.089 268.555V283.096H146.685Z" fill="black"/>
<path d="M189.889 283.458C188.413 283.458 187.096 283.177 185.936 282.614C184.803 282.052 183.906 281.275 183.248 280.284C182.615 279.294 182.299 278.155 182.299 276.87C182.299 274.835 183.05 273.268 184.552 272.17C186.081 271.045 188.203 270.483 190.917 270.483C192.551 270.483 194.133 270.684 195.661 271.086V270.041C195.661 268.97 195.319 268.18 194.634 267.671C193.975 267.136 192.986 266.868 191.668 266.868C190.851 266.868 189.929 267.002 188.901 267.27C187.899 267.537 186.713 267.966 185.343 268.555L183.05 263.775C184.763 262.998 186.41 262.422 187.992 262.047C189.599 261.646 191.207 261.445 192.815 261.445C195.714 261.445 197.968 262.155 199.575 263.574C201.183 264.966 201.987 266.935 201.987 269.479V283.096H195.661V281.811C194.818 282.4 193.922 282.828 192.973 283.096C192.051 283.337 191.023 283.458 189.889 283.458ZM188.387 276.75C188.387 277.419 188.677 277.941 189.257 278.316C189.837 278.691 190.641 278.878 191.668 278.878C192.433 278.878 193.144 278.798 193.803 278.637C194.489 278.477 195.108 278.222 195.661 277.874V275.143C195.055 274.982 194.436 274.862 193.803 274.781C193.171 274.701 192.525 274.661 191.866 274.661C190.759 274.661 189.903 274.848 189.296 275.223C188.69 275.571 188.387 276.08 188.387 276.75Z" fill="black"/>
<path d="M86 327.647V297.054H99.8845C101.856 297.054 103.57 297.447 105.027 298.234C106.484 298.991 107.627 300.055 108.455 301.424C109.284 302.794 109.698 304.382 109.698 306.188C109.698 307.995 109.284 309.582 108.455 310.952C107.627 312.321 106.47 313.399 104.984 314.186C103.527 314.944 101.827 315.322 99.8845 315.322H90.4996V327.647H86ZM90.4996 311.433H99.4131C101.184 311.433 102.584 310.966 103.613 310.034C104.67 309.073 105.198 307.805 105.198 306.232C105.198 304.658 104.67 303.406 103.613 302.473C102.584 301.541 101.184 301.075 99.4131 301.075H90.4996V311.433Z" fill="black"/>
<path d="M113.818 327.647V297.054L118.103 296.223V327.647H113.818Z" fill="black"/>
<path d="M131.592 328.084C129.906 328.084 128.421 327.72 127.135 326.992C125.85 326.263 124.85 325.243 124.136 323.932C123.421 322.592 123.064 321.062 123.064 319.343V305.401H127.307V318.6C127.307 320.348 127.792 321.732 128.764 322.752C129.764 323.772 131.092 324.282 132.749 324.282C133.92 324.282 134.963 324.034 135.877 323.539C136.792 323.014 137.534 322.286 138.106 321.354V305.401H142.391V327.647H138.106V325.375C136.42 327.181 134.249 328.084 131.592 328.084Z" fill="black"/>
<path d="M158.263 337C156.663 337 155.106 336.811 153.592 336.432C152.078 336.053 150.707 335.514 149.478 334.815L151.107 331.406C152.392 332.076 153.592 332.557 154.706 332.848C155.849 333.169 156.992 333.329 158.135 333.329C160.049 333.329 161.491 332.877 162.463 331.974C163.463 331.071 163.963 329.745 163.963 327.997V325.462C162.049 327.006 159.863 327.778 157.406 327.778C155.406 327.778 153.564 327.283 151.878 326.292C150.221 325.273 148.907 323.903 147.936 322.184C146.964 320.436 146.479 318.513 146.479 316.415C146.479 314.288 146.964 312.365 147.936 310.646C148.935 308.898 150.264 307.528 151.921 306.538C153.606 305.518 155.492 305.008 157.578 305.008C158.749 305.008 159.877 305.212 160.963 305.62C162.077 305.999 163.091 306.552 164.006 307.281V305.401H168.248V327.997C168.248 330.881 167.377 333.096 165.634 334.64C163.92 336.213 161.463 337 158.263 337ZM157.963 324.02C159.22 324.02 160.363 323.801 161.392 323.364C162.42 322.898 163.277 322.242 163.963 321.397V311.433C163.277 310.617 162.406 309.976 161.349 309.51C160.32 309.043 159.192 308.81 157.963 308.81C156.592 308.81 155.349 309.145 154.235 309.816C153.149 310.486 152.278 311.404 151.621 312.569C150.992 313.705 150.678 314.987 150.678 316.415C150.678 317.843 150.992 319.139 151.621 320.305C152.278 321.441 153.149 322.344 154.235 323.014C155.349 323.685 156.592 324.02 157.963 324.02Z" fill="black"/>
<path d="M173.285 327.647V305.401H177.57V327.647H173.285ZM175.428 301.818C174.713 301.818 174.099 301.555 173.585 301.031C173.071 300.477 172.814 299.836 172.814 299.108C172.814 298.35 173.071 297.724 173.585 297.229C174.099 296.704 174.713 296.442 175.428 296.442C176.17 296.442 176.799 296.704 177.313 297.229C177.827 297.724 178.085 298.35 178.085 299.108C178.085 299.836 177.827 300.477 177.313 301.031C176.799 301.555 176.17 301.818 175.428 301.818Z" fill="black"/>
<path d="M182.617 327.647V305.401H186.903V307.674C188.588 305.868 190.774 304.964 193.459 304.964C195.145 304.964 196.616 305.329 197.873 306.057C199.159 306.785 200.159 307.805 200.873 309.116C201.616 310.427 201.987 311.943 201.987 313.662V327.647H197.702V314.405C197.702 312.656 197.216 311.287 196.245 310.296C195.302 309.277 193.973 308.767 192.259 308.767C191.117 308.767 190.088 309.014 189.174 309.51C188.26 310.005 187.503 310.719 186.903 311.651V327.647H182.617Z" fill="black"/>
<g clip-path="url(#clip0_49_89)">
<path d="M115.003 230.074C131.006 230.074 143.994 217.152 143.994 201.229V172.383H115.003C98.9997 172.383 86.0117 185.306 86.0117 201.229C86.0117 217.152 98.9997 230.074 115.003 230.074Z" fill="#0ACF83"/>
<path d="M86.0117 143.537C86.0117 127.614 98.9997 114.691 115.003 114.691H143.994V172.383H115.003C98.9997 172.383 86.0117 159.46 86.0117 143.537Z" fill="#A259FF"/>
<path d="M86.0117 85.8458C86.0117 69.9229 98.9997 57 115.003 57H143.994V114.691H115.003C98.9997 114.691 86.0117 101.769 86.0117 85.8458Z" fill="#F24E1E"/>
<path d="M143.993 57H172.984C188.987 57 201.975 69.9229 201.975 85.8458C201.975 101.769 188.987 114.691 172.984 114.691H143.993V57Z" fill="#FF7262"/>
<path d="M201.975 143.537C201.975 159.46 188.987 172.383 172.984 172.383C156.981 172.383 143.993 159.46 143.993 143.537C143.993 127.614 156.981 114.691 172.984 114.691C188.987 114.691 201.975 127.614 201.975 143.537Z" fill="#1ABCFE"/>
</g>
<defs>
<clipPath id="clip0_49_89">
<rect width="115.987" height="173.074" fill="white" transform="translate(86 57)"/>
</clipPath>
</defs>
</svg>
