<svg width="21" height="21" viewBox="0 0 21 21" fill="none" xmlns="http://www.w3.org/2000/svg">
<g clip-path="url(#clip0_11_11)">
<path d="M15.7502 0H5.25048C2.36331 0 0.000610352 2.3627 0.000610352 5.24987V15.7501C0.000610352 18.6365 2.36331 21 5.25048 21H15.7502C18.6374 21 21.0001 18.6365 21.0001 15.7501V5.24987C21.0001 2.3627 18.6374 0 15.7502 0ZM19.2501 15.7501C19.2501 17.6795 17.6806 19.25 15.7502 19.25H5.25048C3.3209 19.25 1.75065 17.6795 1.75065 15.7501V5.24987C1.75065 3.32003 3.3209 1.75004 5.25048 1.75004H15.7502C17.6806 1.75004 19.2501 3.32003 19.2501 5.24987V15.7501Z" fill="#FAFAFA"/>
<path d="M16.1882 6.12477C16.9131 6.12477 17.5007 5.53716 17.5007 4.8123C17.5007 4.08744 16.9131 3.49983 16.1882 3.49983C15.4633 3.49983 14.8757 4.08744 14.8757 4.8123C14.8757 5.53716 15.4633 6.12477 16.1882 6.12477Z" fill="#FAFAFA"/>
<path d="M10.5 5.24988C7.59995 5.24988 5.25012 7.59996 5.25012 10.4997C5.25012 13.3985 7.59995 15.7501 10.5 15.7501C13.3992 15.7501 15.7499 13.3985 15.7499 10.4997C15.7499 7.59996 13.3992 5.24988 10.5 5.24988ZM10.5 14.0001C8.56723 14.0001 7.00016 12.433 7.00016 10.4997C7.00016 8.56647 8.56723 6.99992 10.5 6.99992C12.4328 6.99992 13.9998 8.56647 13.9998 10.4997C13.9998 12.433 12.4328 14.0001 10.5 14.0001Z" fill="#FAFAFA"/>
</g>
<defs>
<clipPath id="clip0_11_11">
<rect width="21" height="21" fill="white"/>
</clipPath>
</defs>
</svg>
