<svg width="21" height="21" viewBox="0 0 21 21" fill="none" xmlns="http://www.w3.org/2000/svg">
<g clip-path="url(#clip0_11_81)">
<path d="M0.320435 20.9153H5.75792V6.61672H0.320435V20.9153ZM1.5509 7.84719H4.52745V19.6848H1.5509V7.84719Z" fill="#FAFAFA"/>
<path d="M3.03922 0.0846939C1.36336 0.0846939 0 1.44809 0 3.12391C0 4.79973 1.36336 6.16317 3.03922 6.16317C4.71507 6.16317 6.07847 4.79977 6.07847 3.12391C6.07847 1.44805 4.71503 0.0846939 3.03922 0.0846939ZM1.23047 3.12391C1.23047 2.12657 2.04184 1.31516 3.03922 1.31516C4.03659 1.31516 4.84801 2.12653 4.84801 3.12391C4.84801 4.12129 4.03659 4.9327 3.03922 4.9327C2.04184 4.9327 1.23047 4.12125 1.23047 3.12391Z" fill="#FAFAFA"/>
<path d="M20.9868 11.1066C20.7933 8.3235 18.4718 6.17883 15.5937 6.17883C14.3064 6.17883 13.0911 6.6264 12.1336 7.42054V6.61663H6.9234V20.9152H12.3609V13.095C12.3609 12.2137 13.0779 11.4966 13.9593 11.4966C14.8406 11.4966 15.5576 12.2137 15.5576 13.0954L15.5629 20.9153H21V11.1198L20.9868 11.1066ZM11.1305 19.6848H8.15387V7.84714H10.9031V9.60454L11.8877 9.6102L12.0706 9.32621C12.8438 8.12589 14.1608 7.40934 15.5937 7.40934C17.8839 7.40934 19.7176 9.15669 19.7683 11.3872L19.7695 19.6848H16.7925L16.7881 13.095C16.7881 11.5352 15.5191 10.2662 13.9593 10.2662C12.3995 10.2662 11.1305 11.5352 11.1305 13.095V19.6848Z" fill="#FAFAFA"/>
</g>
<defs>
<clipPath id="clip0_11_81">
<rect width="21" height="21" fill="white"/>
</clipPath>
</defs>
</svg>
