<svg width="168" height="49" viewBox="0 0 168 49" fill="none" xmlns="http://www.w3.org/2000/svg">
<path d="M161.117 48.335H6.19679C2.7901 48.335 0 45.6146 0 42.2931V6.04187C0 2.72036 2.7901 4.76837e-06 6.19679 4.76837e-06H161.117C164.523 4.76837e-06 167.313 2.72036 167.313 6.04187V42.2931C167.313 45.6146 164.523 48.335 161.117 48.335Z" fill="black"/>
<path d="M161.117 0.968213C163.986 0.968213 166.32 3.24449 166.32 6.04187V42.2931C166.32 45.0905 163.986 47.3668 161.117 47.3668H6.19679C3.32768 47.3668 0.993035 45.0905 0.993035 42.2931V6.04187C0.993035 3.24449 3.32768 0.968213 6.19679 0.968213H161.117ZM161.117 4.76837e-06H6.19679C2.7901 4.76837e-06 0 2.72036 0 6.04187V42.2931C0 45.6146 2.7901 48.335 6.19679 48.335H161.117C164.523 48.335 167.313 45.6146 167.313 42.2931V6.04187C167.313 2.72036 164.523 4.76837e-06 161.117 4.76837e-06Z" fill="#A6A6A6"/>
<path d="M12.0032 9.10955C11.6392 9.48113 11.4285 10.0596 11.4285 10.8088V37.532C11.4285 38.2812 11.6392 38.8597 12.0032 39.2313L12.0931 39.3129L27.4518 24.3441V23.9907L12.0931 9.02195L12.0032 9.10955Z" fill="white"/>
<path d="M34.4244 29.3362L29.3105 24.3441V23.9906L34.4306 18.9985L34.5453 19.0635L40.6088 22.4273C42.3393 23.3819 42.3393 24.9528 40.6088 25.9135L34.5453 29.2712L34.4244 29.3362Z" fill="white"/>
<path d="M33.6159 30.2008L28.3812 25.097L12.9326 40.1609C13.5074 40.7499 14.4446 40.8209 15.5105 40.2319L33.6159 30.2008Z" fill="white"/>
<path d="M33.6159 18.134L15.5105 8.10297C14.4446 7.51993 13.5074 7.59092 12.9326 8.18001L28.3812 23.2379L33.6159 18.134Z" fill="white"/>
<path d="M58.7672 12.3781C58.7672 13.3871 58.4574 14.1952 57.847 14.7979C57.1452 15.5124 56.2312 15.8719 55.1111 15.8719C54.0406 15.8719 53.1266 15.5063 52.3768 14.7858C51.6254 14.0548 51.2505 13.1575 51.2505 12.0836C51.2505 11.0097 51.6254 10.1124 52.3768 9.38742C53.1266 8.66088 54.0406 8.29535 55.1111 8.29535C55.644 8.29535 56.1521 8.40259 56.637 8.60197C57.1204 8.80287 57.5139 9.07475 57.7989 9.41007L57.1514 10.0475C56.6541 9.47503 55.9771 9.19257 55.1111 9.19257C54.3303 9.19257 53.6533 9.45841 53.0785 9.99462C52.51 10.5324 52.2249 11.2287 52.2249 12.0836C52.2249 12.9385 52.51 13.6409 53.0785 14.1786C53.6533 14.7088 54.3303 14.9807 55.1111 14.9807C55.9399 14.9807 56.637 14.7088 57.187 14.1726C57.5495 13.8176 57.7556 13.3282 57.8098 12.7029H55.1111V11.8298H58.7114C58.7548 12.0187 58.7672 12.2014 58.7672 12.3781Z" fill="white" stroke="white" stroke-width="0.16" stroke-miterlimit="10"/>
<path d="M64.4792 9.35115H61.0973V11.6471H64.1461V12.5201H61.0973V14.816H64.4792V15.7057H60.1399V8.46149H64.4792V9.35115Z" fill="white" stroke="white" stroke-width="0.16" stroke-miterlimit="10"/>
<path d="M68.51 15.7057H67.5526V9.35115H65.4783V8.46149H70.586V9.35115H68.51V15.7057Z" fill="white" stroke="white" stroke-width="0.16" stroke-miterlimit="10"/>
<path d="M74.2825 15.7057V8.46149H75.2383V15.7057H74.2825Z" fill="white" stroke="white" stroke-width="0.16" stroke-miterlimit="10"/>
<path d="M79.4754 15.7057H78.5257V9.35115H76.4436V8.46149H81.5575V9.35115H79.4754V15.7057Z" fill="white" stroke="white" stroke-width="0.16" stroke-miterlimit="10"/>
<path d="M91.2277 14.7737C90.4949 15.5063 89.5871 15.8719 88.5042 15.8719C87.4151 15.8719 86.5073 15.5063 85.7745 14.7737C85.0433 14.0427 84.6792 13.1455 84.6792 12.0836C84.6792 11.0217 85.0433 10.1245 85.7745 9.39346C86.5073 8.66088 87.4151 8.29535 88.5042 8.29535C89.5809 8.29535 90.4887 8.66088 91.2215 9.3995C91.9589 10.1366 92.3229 11.0278 92.3229 12.0836C92.3229 13.1455 91.9589 14.0427 91.2277 14.7737ZM86.4825 14.1665C87.034 14.7088 87.7048 14.9807 88.5042 14.9807C89.2974 14.9807 89.9744 14.7088 90.5197 14.1665C91.0696 13.6243 91.3485 12.928 91.3485 12.0836C91.3485 11.2392 91.0696 10.5429 90.5197 10.0007C89.9744 9.45841 89.2974 9.18652 88.5042 9.18652C87.7048 9.18652 87.034 9.45841 86.4825 10.0007C85.9325 10.5429 85.6536 11.2392 85.6536 12.0836C85.6536 12.928 85.9325 13.6243 86.4825 14.1665Z" fill="white" stroke="white" stroke-width="0.16" stroke-miterlimit="10"/>
<path d="M93.666 15.7057V8.46149H94.8279L98.4406 14.0955H98.4825L98.4406 12.7029V8.46149H99.3965V15.7057H98.3988L94.6157 9.79372H94.5738L94.6157 11.1924V15.7057H93.666Z" fill="white" stroke="white" stroke-width="0.16" stroke-miterlimit="10"/>
<path d="M84.4437 26.2851C81.5327 26.2851 79.1547 28.4451 79.1547 31.4253C79.1547 34.3812 81.5327 36.5639 84.4437 36.5639C87.3608 36.5639 89.7388 34.3812 89.7388 31.4253C89.7388 28.4451 87.3608 26.2851 84.4437 26.2851ZM84.4437 34.5398C82.8465 34.5398 81.4723 33.2544 81.4723 31.4253C81.4723 29.5719 82.8465 28.3092 84.4437 28.3092C86.0409 28.3092 87.4212 29.5719 87.4212 31.4253C87.4212 33.2544 86.0409 34.5398 84.4437 34.5398ZM72.9037 26.2851C69.9866 26.2851 67.6147 28.4451 67.6147 31.4253C67.6147 34.3812 69.9866 36.5639 72.9037 36.5639C75.8193 36.5639 78.1927 34.3812 78.1927 31.4253C78.1927 28.4451 75.8193 26.2851 72.9037 26.2851ZM72.9037 34.5398C71.3049 34.5398 69.9262 33.2544 69.9262 31.4253C69.9262 29.5719 71.3049 28.3092 72.9037 28.3092C74.5009 28.3092 75.8751 29.5719 75.8751 31.4253C75.8751 33.2544 74.5009 34.5398 72.9037 34.5398ZM59.1716 27.8606V30.0447H64.521C64.3645 31.2652 63.9462 32.1624 63.3049 32.7877C62.5241 33.5429 61.308 34.3812 59.1716 34.3812C55.8796 34.3812 53.3017 31.7908 53.3017 28.5811C53.3017 25.3713 55.8796 22.7809 59.1716 22.7809C60.9517 22.7809 62.2468 23.4591 63.2026 24.3381L64.7813 22.799C63.4443 21.5544 61.6658 20.5982 59.1716 20.5982C54.6573 20.5982 50.8633 24.1795 50.8633 28.5811C50.8633 32.9826 54.6573 36.5639 59.1716 36.5639C61.6116 36.5639 63.4443 35.7845 64.8851 34.3223C66.3614 32.8829 66.8216 30.8588 66.8216 29.2245C66.8216 28.717 66.7782 28.2503 66.7007 27.8606H59.1716ZM115.324 29.5538C114.888 28.4043 113.545 26.2851 110.809 26.2851C108.098 26.2851 105.841 28.3681 105.841 31.4253C105.841 34.3042 108.075 36.5639 111.07 36.5639C113.491 36.5639 114.888 35.1244 115.463 34.2861L113.666 33.1185C113.067 33.9734 112.25 34.5398 111.07 34.5398C109.897 34.5398 109.056 34.0157 108.517 32.9826L115.567 30.1383L115.324 29.5538ZM108.136 31.2651C108.075 29.2834 109.714 28.2684 110.888 28.2684C111.809 28.2684 112.589 28.717 112.85 29.3589L108.136 31.2651ZM102.405 36.2512H104.723V21.1465H102.405V36.2512ZM98.6095 27.4301H98.5321C98.0115 26.8289 97.0185 26.2851 95.7606 26.2851C93.1207 26.2851 90.7071 28.5448 90.7071 31.4419C90.7071 34.3223 93.1207 36.5639 95.7606 36.5639C97.0185 36.5639 98.0115 36.0156 98.5321 35.3963H98.6095V36.1334C98.6095 38.0985 97.5328 39.1543 95.7962 39.1543C94.3802 39.1543 93.5018 38.1574 93.1393 37.3191L91.1238 38.1393C91.7048 39.5017 93.2431 41.1783 95.7962 41.1783C98.5135 41.1783 100.806 39.6195 100.806 35.8268V26.5978H98.6095V27.4301ZM95.9589 34.5398C94.3616 34.5398 93.0247 33.2363 93.0247 31.4419C93.0247 29.6308 94.3616 28.3092 95.9589 28.3092C97.5328 28.3092 98.7738 29.6308 98.7738 31.4419C98.7738 33.2363 97.5328 34.5398 95.9589 34.5398ZM126.174 21.1465H120.631V36.2512H122.943V30.528H126.174C128.741 30.528 131.259 28.717 131.259 25.8365C131.259 22.9576 128.735 21.1465 126.174 21.1465ZM126.235 28.427H122.943V23.2476H126.235C127.961 23.2476 128.946 24.6448 128.946 25.8365C128.946 27.0056 127.961 28.427 126.235 28.427ZM140.523 26.2564C138.853 26.2564 137.116 26.9754 136.402 28.569L138.453 29.4073C138.895 28.569 139.707 28.2971 140.565 28.2971C141.764 28.2971 142.98 28.9994 142.999 30.2395V30.3981C142.58 30.1625 141.685 29.8136 140.583 29.8136C138.374 29.8136 136.123 30.9993 136.123 33.2121C136.123 35.2362 137.933 36.5397 139.967 36.5397C141.522 36.5397 142.381 35.8555 142.92 35.0594H142.999V36.227H145.231V30.4329C145.231 27.7548 143.18 26.2564 140.523 26.2564ZM140.244 34.5338C139.488 34.5338 138.435 34.1683 138.435 33.2544C138.435 32.0853 139.748 31.6367 140.886 31.6367C141.903 31.6367 142.381 31.8557 142.999 32.1442C142.817 33.5429 141.583 34.5338 140.244 34.5338ZM153.364 26.5872L150.707 33.1351H150.628L147.882 26.5872H145.389L149.516 35.7376L147.161 40.8294H149.577L155.936 26.5872H153.364ZM132.529 36.2512H134.847V21.1465H132.529V36.2512Z" fill="white"/>
</svg>
