<svg width="1256" height="202" viewBox="0 0 1256 202" fill="none" xmlns="http://www.w3.org/2000/svg">
<path d="M1.59961 106V93.3175H3.18164V106H1.59961ZM6.16992 98.2833L6.93457 93.3175H8.6748L7.29492 98.2833H6.16992ZM13.7109 106L10.2129 96.5431H11.8301L14.4229 104.33H14.5547L17.1475 96.5431H18.7646L15.2578 106H13.7109ZM24.2666 106.167C23.3643 106.167 22.5908 105.968 21.9463 105.569C21.3018 105.171 20.8037 104.609 20.4521 103.882C20.1064 103.155 19.9336 102.297 19.9336 101.307V101.298C19.9336 100.319 20.1064 99.4611 20.4521 98.7228C20.8037 97.9845 21.2959 97.4103 21.9287 97.0001C22.5674 96.5841 23.3145 96.3761 24.1699 96.3761C25.0312 96.3761 25.7695 96.5753 26.3848 96.9738C27.0059 97.3663 27.4805 97.92 27.8086 98.6349C28.1426 99.3439 28.3096 100.17 28.3096 101.113V101.711H20.7246V100.489H27.5273L26.7715 101.606V100.999C26.7715 100.255 26.6602 99.6427 26.4375 99.1622C26.2148 98.6818 25.9072 98.3243 25.5146 98.09C25.1221 97.8556 24.6709 97.7384 24.1611 97.7384C23.6514 97.7384 23.1973 97.8615 22.7988 98.1075C22.4004 98.3536 22.084 98.7198 21.8496 99.2062C21.6152 99.6925 21.498 100.29 21.498 100.999V101.606C21.498 102.279 21.6123 102.854 21.8408 103.328C22.0693 103.803 22.3916 104.169 22.8076 104.427C23.2295 104.679 23.7275 104.805 24.3018 104.805C24.7295 104.805 25.1016 104.746 25.418 104.629C25.7344 104.512 25.9951 104.362 26.2002 104.181C26.4053 103.999 26.5488 103.812 26.6309 103.618L26.666 103.539H28.1953L28.1777 103.609C28.0957 103.938 27.9492 104.254 27.7383 104.559C27.5332 104.858 27.2637 105.13 26.9297 105.376C26.6016 105.616 26.2148 105.81 25.7695 105.956C25.3242 106.097 24.8232 106.167 24.2666 106.167ZM35.8594 106V93.3175H40.21C41.4639 93.3175 42.5361 93.5695 43.4268 94.0734C44.3232 94.5714 45.0088 95.2921 45.4834 96.2355C45.958 97.1788 46.1953 98.3156 46.1953 99.6456V99.6632C46.1953 100.993 45.958 102.133 45.4834 103.082C45.0088 104.026 44.3262 104.749 43.4355 105.253C42.5449 105.751 41.4697 106 40.21 106H35.8594ZM37.4414 104.576H40.1045C41.0479 104.576 41.8535 104.383 42.5215 103.996C43.1895 103.609 43.6992 103.05 44.0508 102.318C44.4023 101.585 44.5781 100.706 44.5781 99.6808V99.6632C44.5781 98.632 44.3994 97.7501 44.042 97.0177C43.6904 96.2794 43.1807 95.7169 42.5127 95.3302C41.8447 94.9376 41.042 94.7413 40.1045 94.7413H37.4414V104.576ZM52.5938 106.167C51.7031 106.167 50.9297 105.971 50.2734 105.578C49.623 105.18 49.1191 104.614 48.7617 103.882C48.4102 103.15 48.2344 102.282 48.2344 101.28V101.263C48.2344 100.249 48.4102 99.379 48.7617 98.6525C49.1191 97.92 49.623 97.3575 50.2734 96.965C50.9297 96.5724 51.7031 96.3761 52.5938 96.3761C53.4961 96.3761 54.2725 96.5724 54.9229 96.965C55.5732 97.3575 56.0742 97.92 56.4258 98.6525C56.7832 99.379 56.9619 100.249 56.9619 101.263V101.28C56.9619 102.288 56.7832 103.158 56.4258 103.891C56.0742 104.617 55.5732 105.18 54.9229 105.578C54.2725 105.971 53.4961 106.167 52.5938 106.167ZM52.5938 104.814C53.1914 104.814 53.6982 104.673 54.1143 104.392C54.5303 104.11 54.8467 103.709 55.0635 103.188C55.2861 102.66 55.3975 102.025 55.3975 101.28V101.263C55.3975 100.513 55.2861 99.8741 55.0635 99.3468C54.8467 98.8195 54.5303 98.4181 54.1143 98.1427C53.6982 97.8673 53.1914 97.7296 52.5938 97.7296C52.002 97.7296 51.498 97.8673 51.082 98.1427C50.666 98.4181 50.3467 98.8195 50.124 99.3468C49.9072 99.8741 49.7988 100.513 49.7988 101.263V101.28C49.7988 102.025 49.9072 102.66 50.124 103.188C50.3467 103.709 50.666 104.11 51.082 104.392C51.498 104.673 52.002 104.814 52.5938 104.814ZM59.291 106V96.5431H60.8203V97.9581H60.9521C61.1924 97.4601 61.5381 97.0734 61.9893 96.798C62.4463 96.5167 63.0234 96.3761 63.7207 96.3761C64.7812 96.3761 65.5957 96.6808 66.1641 97.2902C66.7383 97.8937 67.0254 98.755 67.0254 99.8741V106H65.4961V100.243C65.4961 99.3878 65.3145 98.755 64.9512 98.3448C64.5938 97.9347 64.0371 97.7296 63.2812 97.7296C62.7832 97.7296 62.3496 97.838 61.9805 98.0548C61.6113 98.2716 61.3242 98.5792 61.1191 98.9777C60.9199 99.3702 60.8203 99.8448 60.8203 100.401V106H59.291ZM73.6084 106.167C72.7061 106.167 71.9326 105.968 71.2881 105.569C70.6436 105.171 70.1455 104.609 69.7939 103.882C69.4482 103.155 69.2754 102.297 69.2754 101.307V101.298C69.2754 100.319 69.4482 99.4611 69.7939 98.7228C70.1455 97.9845 70.6377 97.4103 71.2705 97.0001C71.9092 96.5841 72.6562 96.3761 73.5117 96.3761C74.373 96.3761 75.1113 96.5753 75.7266 96.9738C76.3477 97.3663 76.8223 97.92 77.1504 98.6349C77.4844 99.3439 77.6514 100.17 77.6514 101.113V101.711H70.0664V100.489H76.8691L76.1133 101.606V100.999C76.1133 100.255 76.002 99.6427 75.7793 99.1622C75.5566 98.6818 75.249 98.3243 74.8564 98.09C74.4639 97.8556 74.0127 97.7384 73.5029 97.7384C72.9932 97.7384 72.5391 97.8615 72.1406 98.1075C71.7422 98.3536 71.4258 98.7198 71.1914 99.2062C70.957 99.6925 70.8398 100.29 70.8398 100.999V101.606C70.8398 102.279 70.9541 102.854 71.1826 103.328C71.4111 103.803 71.7334 104.169 72.1494 104.427C72.5713 104.679 73.0693 104.805 73.6436 104.805C74.0713 104.805 74.4434 104.746 74.7598 104.629C75.0762 104.512 75.3369 104.362 75.542 104.181C75.7471 103.999 75.8906 103.812 75.9727 103.618L76.0078 103.539H77.5371L77.5195 103.609C77.4375 103.938 77.291 104.254 77.0801 104.559C76.875 104.858 76.6055 105.13 76.2715 105.376C75.9434 105.616 75.5566 105.81 75.1113 105.956C74.666 106.097 74.165 106.167 73.6084 106.167ZM1.59961 127V114.318H9.45703V115.741H3.18164V119.811H9.13184V121.217H3.18164V125.576H9.45703V127H1.59961ZM12.0938 127V117.543H13.623V118.958H13.7549C13.9951 118.46 14.3408 118.073 14.792 117.798C15.249 117.517 15.8262 117.376 16.5234 117.376C17.584 117.376 18.3984 117.681 18.9668 118.29C19.541 118.894 19.8281 119.755 19.8281 120.874V127H18.2988V121.243C18.2988 120.388 18.1172 119.755 17.7539 119.345C17.3965 118.935 16.8398 118.73 16.084 118.73C15.5859 118.73 15.1523 118.838 14.7832 119.055C14.4141 119.272 14.127 119.579 13.9219 119.978C13.7227 120.37 13.623 120.845 13.623 121.401V127H12.0938ZM26.4375 127.167C25.5469 127.167 24.7734 126.971 24.1172 126.578C23.4668 126.18 22.9629 125.614 22.6055 124.882C22.2539 124.15 22.0781 123.282 22.0781 122.28V122.263C22.0781 121.249 22.2539 120.379 22.6055 119.652C22.9629 118.92 23.4668 118.358 24.1172 117.965C24.7734 117.572 25.5469 117.376 26.4375 117.376C27.3398 117.376 28.1162 117.572 28.7666 117.965C29.417 118.358 29.918 118.92 30.2695 119.652C30.627 120.379 30.8057 121.249 30.8057 122.263V122.28C30.8057 123.288 30.627 124.158 30.2695 124.891C29.918 125.617 29.417 126.18 28.7666 126.578C28.1162 126.971 27.3398 127.167 26.4375 127.167ZM26.4375 125.814C27.0352 125.814 27.542 125.673 27.958 125.392C28.374 125.11 28.6904 124.709 28.9072 124.188C29.1299 123.66 29.2412 123.025 29.2412 122.28V122.263C29.2412 121.513 29.1299 120.874 28.9072 120.347C28.6904 119.819 28.374 119.418 27.958 119.143C27.542 118.867 27.0352 118.73 26.4375 118.73C25.8457 118.73 25.3418 118.867 24.9258 119.143C24.5098 119.418 24.1904 119.819 23.9678 120.347C23.751 120.874 23.6426 121.513 23.6426 122.263V122.28C23.6426 123.025 23.751 123.66 23.9678 124.188C24.1904 124.709 24.5098 125.11 24.9258 125.392C25.3418 125.673 25.8457 125.814 26.4375 125.814ZM36.3076 127.167C35.5928 127.167 34.9922 127.032 34.5059 126.763C34.0195 126.487 33.6533 126.089 33.4072 125.568C33.167 125.04 33.0469 124.407 33.0469 123.669V117.543H34.5762V123.3C34.5762 124.144 34.7402 124.774 35.0684 125.19C35.4023 125.606 35.9473 125.814 36.7031 125.814C37.1133 125.814 37.4766 125.752 37.793 125.629C38.1152 125.506 38.3848 125.33 38.6016 125.102C38.8184 124.867 38.9795 124.586 39.085 124.258C39.1963 123.924 39.252 123.552 39.252 123.142V117.543H40.7812V127H39.252V125.594H39.1201C38.9619 125.922 38.751 126.206 38.4873 126.446C38.2236 126.681 37.9102 126.859 37.5469 126.983C37.1836 127.106 36.7705 127.167 36.3076 127.167ZM47.4961 130.34C46.7344 130.34 46.0693 130.232 45.501 130.015C44.9326 129.804 44.4785 129.502 44.1387 129.109C43.8047 128.723 43.5967 128.272 43.5146 127.756L43.5234 127.747H45.1055L45.1143 127.756C45.2021 128.113 45.4512 128.406 45.8613 128.635C46.2715 128.869 46.8164 128.986 47.4961 128.986C48.3398 128.986 48.999 128.793 49.4736 128.406C49.9541 128.02 50.1943 127.478 50.1943 126.78V124.9H50.0537C49.8545 125.245 49.6055 125.541 49.3066 125.787C49.0078 126.033 48.6709 126.221 48.2959 126.35C47.9209 126.473 47.5166 126.534 47.083 126.534C46.2744 126.534 45.5713 126.341 44.9736 125.954C44.3818 125.562 43.9248 125.023 43.6025 124.337C43.2803 123.651 43.1191 122.863 43.1191 121.973V121.955C43.1191 121.07 43.2803 120.285 43.6025 119.6C43.9307 118.908 44.3936 118.366 44.9912 117.974C45.5889 117.575 46.2979 117.376 47.1182 117.376C47.5635 117.376 47.9736 117.446 48.3486 117.587C48.7236 117.728 49.0547 117.927 49.3418 118.185C49.6348 118.443 49.8779 118.75 50.0713 119.108H50.1768V117.543H51.7061V126.859C51.7061 127.563 51.5332 128.175 51.1875 128.696C50.8477 129.218 50.3613 129.622 49.7285 129.909C49.0957 130.196 48.3516 130.34 47.4961 130.34ZM47.417 125.181C48.0029 125.181 48.5039 125.046 48.9199 124.776C49.3359 124.501 49.6553 124.123 49.8779 123.643C50.1064 123.162 50.2207 122.606 50.2207 121.973V121.955C50.2207 121.328 50.1064 120.772 49.8779 120.285C49.6553 119.799 49.3359 119.418 48.9199 119.143C48.5039 118.867 48.0029 118.73 47.417 118.73C46.8369 118.73 46.3418 118.867 45.9316 119.143C45.5273 119.418 45.2168 119.799 45 120.285C44.7891 120.772 44.6836 121.328 44.6836 121.955V121.973C44.6836 122.606 44.7891 123.162 45 123.643C45.2168 124.123 45.5273 124.501 45.9316 124.776C46.3418 125.046 46.8369 125.181 47.417 125.181ZM54.5977 127V113.79H56.127V118.967H56.2588C56.499 118.463 56.8447 118.073 57.2959 117.798C57.7529 117.517 58.3301 117.376 59.0273 117.376C59.7305 117.376 60.3281 117.514 60.8203 117.789C61.3125 118.059 61.6875 118.457 61.9453 118.984C62.2031 119.506 62.332 120.142 62.332 120.892V127H60.8027V121.252C60.8027 120.397 60.6211 119.764 60.2578 119.354C59.9004 118.938 59.3438 118.73 58.5879 118.73C58.084 118.73 57.6475 118.838 57.2783 119.055C56.915 119.272 56.6309 119.579 56.4258 119.978C56.2266 120.376 56.127 120.851 56.127 121.401V127H54.5977ZM73.415 127.079C72.4482 127.079 71.7451 126.883 71.3057 126.49C70.8721 126.092 70.6553 125.444 70.6553 124.548V118.809H69.1699V117.543H70.6553V115.091H72.2373V117.543H74.2939V118.809H72.2373V124.179C72.2373 124.73 72.3428 125.125 72.5537 125.365C72.7646 125.606 73.1133 125.726 73.5996 125.726C73.7344 125.726 73.8486 125.723 73.9424 125.717C74.042 125.711 74.1592 125.702 74.2939 125.691V126.991C74.1533 127.015 74.0098 127.035 73.8633 127.053C73.7168 127.07 73.5674 127.079 73.415 127.079ZM80.2969 127.167C79.4062 127.167 78.6328 126.971 77.9766 126.578C77.3262 126.18 76.8223 125.614 76.4648 124.882C76.1133 124.15 75.9375 123.282 75.9375 122.28V122.263C75.9375 121.249 76.1133 120.379 76.4648 119.652C76.8223 118.92 77.3262 118.358 77.9766 117.965C78.6328 117.572 79.4062 117.376 80.2969 117.376C81.1992 117.376 81.9756 117.572 82.626 117.965C83.2764 118.358 83.7773 118.92 84.1289 119.652C84.4863 120.379 84.665 121.249 84.665 122.263V122.28C84.665 123.288 84.4863 124.158 84.1289 124.891C83.7773 125.617 83.2764 126.18 82.626 126.578C81.9756 126.971 81.1992 127.167 80.2969 127.167ZM80.2969 125.814C80.8945 125.814 81.4014 125.673 81.8174 125.392C82.2334 125.11 82.5498 124.709 82.7666 124.188C82.9893 123.66 83.1006 123.025 83.1006 122.28V122.263C83.1006 121.513 82.9893 120.874 82.7666 120.347C82.5498 119.819 82.2334 119.418 81.8174 119.143C81.4014 118.867 80.8945 118.73 80.2969 118.73C79.7051 118.73 79.2012 118.867 78.7852 119.143C78.3691 119.418 78.0498 119.819 77.8271 120.347C77.6104 120.874 77.502 121.513 77.502 122.263V122.28C77.502 123.025 77.6104 123.66 77.8271 124.188C78.0498 124.709 78.3691 125.11 78.7852 125.392C79.2012 125.673 79.7051 125.814 80.2969 125.814ZM92.1973 127V114.318H93.7793V125.576H99.8965V127H92.1973ZM105.618 127.167C104.716 127.167 103.942 126.968 103.298 126.569C102.653 126.171 102.155 125.609 101.804 124.882C101.458 124.155 101.285 123.297 101.285 122.307V122.298C101.285 121.319 101.458 120.461 101.804 119.723C102.155 118.984 102.647 118.41 103.28 118C103.919 117.584 104.666 117.376 105.521 117.376C106.383 117.376 107.121 117.575 107.736 117.974C108.357 118.366 108.832 118.92 109.16 119.635C109.494 120.344 109.661 121.17 109.661 122.113V122.711H102.076V121.489H108.879L108.123 122.606V121.999C108.123 121.255 108.012 120.643 107.789 120.162C107.566 119.682 107.259 119.324 106.866 119.09C106.474 118.856 106.022 118.738 105.513 118.738C105.003 118.738 104.549 118.861 104.15 119.108C103.752 119.354 103.436 119.72 103.201 120.206C102.967 120.693 102.85 121.29 102.85 121.999V122.606C102.85 123.279 102.964 123.854 103.192 124.328C103.421 124.803 103.743 125.169 104.159 125.427C104.581 125.679 105.079 125.805 105.653 125.805C106.081 125.805 106.453 125.746 106.77 125.629C107.086 125.512 107.347 125.362 107.552 125.181C107.757 124.999 107.9 124.812 107.982 124.618L108.018 124.539H109.547L109.529 124.609C109.447 124.938 109.301 125.254 109.09 125.559C108.885 125.858 108.615 126.13 108.281 126.376C107.953 126.616 107.566 126.81 107.121 126.956C106.676 127.097 106.175 127.167 105.618 127.167ZM114.609 127.167C114.012 127.167 113.473 127.053 112.992 126.824C112.518 126.596 112.143 126.271 111.867 125.849C111.592 125.427 111.454 124.929 111.454 124.355V124.337C111.454 123.78 111.589 123.303 111.858 122.904C112.128 122.5 112.518 122.184 113.027 121.955C113.543 121.727 114.167 121.592 114.899 121.551L118.38 121.34V122.562L115.084 122.773C114.369 122.814 113.845 122.963 113.511 123.221C113.183 123.479 113.019 123.839 113.019 124.302V124.319C113.019 124.8 113.197 125.175 113.555 125.444C113.918 125.708 114.375 125.84 114.926 125.84C115.447 125.84 115.91 125.737 116.314 125.532C116.719 125.321 117.035 125.037 117.264 124.68C117.498 124.322 117.615 123.918 117.615 123.467V120.531C117.615 119.945 117.437 119.5 117.079 119.195C116.728 118.885 116.197 118.73 115.488 118.73C114.92 118.73 114.454 118.832 114.091 119.037C113.728 119.236 113.484 119.524 113.361 119.899L113.353 119.925H111.832L111.841 119.872C111.917 119.374 112.119 118.938 112.447 118.563C112.781 118.188 113.212 117.898 113.739 117.693C114.267 117.482 114.867 117.376 115.541 117.376C116.314 117.376 116.968 117.502 117.501 117.754C118.034 118.006 118.441 118.366 118.723 118.835C119.004 119.304 119.145 119.866 119.145 120.523V127H117.615V125.603H117.475C117.275 125.937 117.032 126.221 116.745 126.455C116.464 126.69 116.145 126.868 115.787 126.991C115.43 127.109 115.037 127.167 114.609 127.167ZM125.394 127.167C124.603 127.167 123.908 126.965 123.311 126.561C122.713 126.156 122.25 125.588 121.922 124.856C121.594 124.123 121.43 123.265 121.43 122.28V122.263C121.43 121.273 121.594 120.411 121.922 119.679C122.25 118.946 122.71 118.381 123.302 117.983C123.899 117.578 124.597 117.376 125.394 117.376C125.827 117.376 126.234 117.446 126.615 117.587C127.002 117.722 127.345 117.912 127.644 118.158C127.942 118.404 128.177 118.697 128.347 119.037H128.487V113.79H130.017V127H128.487V125.488H128.347C128.153 125.84 127.91 126.142 127.617 126.394C127.324 126.64 126.99 126.83 126.615 126.965C126.24 127.1 125.833 127.167 125.394 127.167ZM125.745 125.814C126.319 125.814 126.812 125.67 127.222 125.383C127.638 125.096 127.957 124.689 128.18 124.161C128.408 123.628 128.522 123.001 128.522 122.28V122.263C128.522 121.53 128.408 120.903 128.18 120.382C127.957 119.855 127.638 119.447 127.222 119.16C126.812 118.873 126.319 118.73 125.745 118.73C125.171 118.73 124.679 118.873 124.269 119.16C123.858 119.442 123.542 119.846 123.319 120.373C123.103 120.895 122.994 121.525 122.994 122.263V122.28C122.994 123.013 123.103 123.643 123.319 124.17C123.542 124.697 123.858 125.105 124.269 125.392C124.679 125.673 125.171 125.814 125.745 125.814Z" fill="#FAFAFA"/>
<path d="M3.17045 159.909V173H1.58523V159.909H3.17045ZM11.4114 173V159.909H12.9966V166.404H13.15L19.0307 159.909H21.1017L15.6046 165.815L21.1017 173H19.1841L14.633 166.915L12.9966 168.756V173H11.4114ZM24.4576 167.094V173H22.949V163.182H24.4064V164.716H24.5343C24.7644 164.217 25.1138 163.817 25.5826 163.514C26.0513 163.208 26.6564 163.054 27.3979 163.054C28.0627 163.054 28.6444 163.19 29.1429 163.463C29.6415 163.732 30.0293 164.141 30.3063 164.69C30.5833 165.236 30.7218 165.926 30.7218 166.761V173H29.2132V166.864C29.2132 166.092 29.013 165.492 28.6124 165.061C28.2118 164.627 27.6621 164.409 26.9632 164.409C26.4817 164.409 26.0513 164.514 25.6721 164.722C25.2971 164.931 25.0009 165.236 24.7836 165.636C24.5662 166.037 24.4576 166.523 24.4576 167.094ZM37.467 173.205C36.5806 173.205 35.8029 172.994 35.1339 172.572C34.4691 172.15 33.9492 171.56 33.5742 170.801C33.2035 170.043 33.0181 169.156 33.0181 168.142C33.0181 167.119 33.2035 166.227 33.5742 165.464C33.9492 164.701 34.4691 164.109 35.1339 163.687C35.8029 163.265 36.5806 163.054 37.467 163.054C38.3533 163.054 39.1289 163.265 39.7937 163.687C40.4627 164.109 40.9826 164.701 41.3533 165.464C41.7283 166.227 41.9158 167.119 41.9158 168.142C41.9158 169.156 41.7283 170.043 41.3533 170.801C40.9826 171.56 40.4627 172.15 39.7937 172.572C39.1289 172.994 38.3533 173.205 37.467 173.205ZM37.467 171.85C38.1403 171.85 38.6942 171.677 39.1289 171.332C39.5636 170.987 39.8853 170.533 40.0941 169.97C40.3029 169.408 40.4073 168.798 40.4073 168.142C40.4073 167.486 40.3029 166.874 40.0941 166.308C39.8853 165.741 39.5636 165.283 39.1289 164.933C38.6942 164.584 38.1403 164.409 37.467 164.409C36.7937 164.409 36.2397 164.584 35.805 164.933C35.3704 165.283 35.0487 165.741 34.8398 166.308C34.631 166.874 34.5266 167.486 34.5266 168.142C34.5266 168.798 34.631 169.408 34.8398 169.97C35.0487 170.533 35.3704 170.987 35.805 171.332C36.2397 171.677 36.7937 171.85 37.467 171.85ZM46.109 173L43.1175 163.182H44.7028L46.8249 170.699H46.9272L49.0238 163.182H50.6346L52.7056 170.673H52.8079L54.93 163.182H56.5153L53.5238 173H52.0408L49.8931 165.458H49.7397L47.592 173H46.109ZM63.7766 173V159.909H71.6772V161.315H65.3619V165.739H71.2681V167.145H65.3619V171.594H71.7795V173H63.7766ZM75.8384 167.094V173H74.3299V163.182H75.7873V164.716H75.9151C76.1452 164.217 76.4947 163.817 76.9634 163.514C77.4322 163.208 78.0373 163.054 78.7788 163.054C79.4435 163.054 80.0252 163.19 80.5238 163.463C81.0224 163.732 81.4102 164.141 81.6871 164.69C81.9641 165.236 82.1026 165.926 82.1026 166.761V173H80.5941V166.864C80.5941 166.092 80.3938 165.492 79.9933 165.061C79.5927 164.627 79.043 164.409 78.3441 164.409C77.8626 164.409 77.4322 164.514 77.0529 164.722C76.6779 164.931 76.3817 165.236 76.1644 165.636C75.9471 166.037 75.8384 166.523 75.8384 167.094ZM88.8478 173.205C87.9615 173.205 87.1838 172.994 86.5147 172.572C85.85 172.15 85.3301 171.56 84.9551 170.801C84.5843 170.043 84.399 169.156 84.399 168.142C84.399 167.119 84.5843 166.227 84.9551 165.464C85.3301 164.701 85.85 164.109 86.5147 163.687C87.1838 163.265 87.9615 163.054 88.8478 163.054C89.7342 163.054 90.5098 163.265 91.1745 163.687C91.8436 164.109 92.3635 164.701 92.7342 165.464C93.1092 166.227 93.2967 167.119 93.2967 168.142C93.2967 169.156 93.1092 170.043 92.7342 170.801C92.3635 171.56 91.8436 172.15 91.1745 172.572C90.5098 172.994 89.7342 173.205 88.8478 173.205ZM88.8478 171.85C89.5211 171.85 90.0751 171.677 90.5098 171.332C90.9444 170.987 91.2662 170.533 91.475 169.97C91.6838 169.408 91.7882 168.798 91.7882 168.142C91.7882 167.486 91.6838 166.874 91.475 166.308C91.2662 165.741 90.9444 165.283 90.5098 164.933C90.0751 164.584 89.5211 164.409 88.8478 164.409C88.1745 164.409 87.6206 164.584 87.1859 164.933C86.7512 165.283 86.4295 165.741 86.2207 166.308C86.0119 166.874 85.9075 167.486 85.9075 168.142C85.9075 168.798 86.0119 169.408 86.2207 169.97C86.4295 170.533 86.7512 170.987 87.1859 171.332C87.6206 171.677 88.1745 171.85 88.8478 171.85ZM101.787 168.986V163.182H103.295V173H101.787V171.338H101.685C101.455 171.837 101.097 172.261 100.611 172.61C100.125 172.955 99.5114 173.128 98.7699 173.128C98.1562 173.128 97.6108 172.994 97.1335 172.725C96.6563 172.453 96.2813 172.043 96.0085 171.498C95.7358 170.948 95.5994 170.256 95.5994 169.421V163.182H97.108V169.318C97.108 170.034 97.3082 170.605 97.7088 171.031C98.1136 171.458 98.6293 171.671 99.2557 171.671C99.6307 171.671 100.012 171.575 100.4 171.383C100.792 171.191 101.12 170.897 101.384 170.501C101.653 170.105 101.787 169.6 101.787 168.986ZM110.021 176.886C109.293 176.886 108.666 176.793 108.142 176.605C107.618 176.422 107.181 176.179 106.832 175.877C106.487 175.578 106.212 175.259 106.007 174.918L107.209 174.074C107.345 174.253 107.518 174.458 107.727 174.688C107.936 174.922 108.221 175.124 108.583 175.295C108.95 175.47 109.429 175.557 110.021 175.557C110.814 175.557 111.468 175.365 111.984 174.982C112.499 174.598 112.757 173.997 112.757 173.179V171.185H112.629C112.519 171.364 112.361 171.585 112.156 171.85C111.956 172.109 111.666 172.342 111.287 172.546C110.912 172.747 110.405 172.847 109.766 172.847C108.973 172.847 108.262 172.659 107.631 172.284C107.004 171.909 106.508 171.364 106.142 170.648C105.779 169.932 105.598 169.063 105.598 168.04C105.598 167.034 105.775 166.159 106.129 165.413C106.482 164.663 106.975 164.083 107.605 163.674C108.236 163.261 108.965 163.054 109.791 163.054C110.431 163.054 110.938 163.161 111.313 163.374C111.692 163.583 111.982 163.821 112.182 164.09C112.387 164.354 112.544 164.571 112.655 164.742H112.808V163.182H114.266V173.281C114.266 174.125 114.074 174.811 113.691 175.34C113.311 175.872 112.8 176.262 112.156 176.509C111.517 176.761 110.806 176.886 110.021 176.886ZM109.97 171.492C110.575 171.492 111.087 171.353 111.504 171.076C111.922 170.799 112.24 170.401 112.457 169.881C112.674 169.361 112.783 168.739 112.783 168.014C112.783 167.307 112.676 166.683 112.463 166.141C112.25 165.6 111.935 165.176 111.517 164.869C111.1 164.563 110.584 164.409 109.97 164.409C109.331 164.409 108.798 164.571 108.372 164.895C107.95 165.219 107.633 165.654 107.42 166.199C107.211 166.744 107.107 167.35 107.107 168.014C107.107 168.696 107.213 169.299 107.426 169.823C107.644 170.343 107.963 170.752 108.385 171.051C108.811 171.345 109.34 171.492 109.97 171.492ZM118.536 167.094V173H117.027V159.909H118.536V164.716H118.664C118.894 164.209 119.239 163.806 119.699 163.508C120.164 163.205 120.781 163.054 121.553 163.054C122.222 163.054 122.808 163.188 123.311 163.457C123.813 163.721 124.203 164.128 124.48 164.678C124.762 165.223 124.902 165.918 124.902 166.761V173H123.394V166.864C123.394 166.084 123.191 165.481 122.786 165.055C122.386 164.624 121.83 164.409 121.118 164.409C120.624 164.409 120.181 164.514 119.789 164.722C119.401 164.931 119.094 165.236 118.868 165.636C118.646 166.037 118.536 166.523 118.536 167.094ZM5.65057 185.182V186.46H0.5625V185.182H5.65057ZM2.04545 182.83H3.55398V192.188C3.55398 192.614 3.61577 192.933 3.73935 193.146C3.86719 193.355 4.02912 193.496 4.22514 193.568C4.42543 193.636 4.63636 193.671 4.85795 193.671C5.02415 193.671 5.16051 193.662 5.26705 193.645C5.37358 193.624 5.45881 193.607 5.52273 193.594L5.82955 194.949C5.72727 194.987 5.58452 195.026 5.40128 195.064C5.21804 195.107 4.9858 195.128 4.70455 195.128C4.27841 195.128 3.8608 195.036 3.4517 194.853C3.04688 194.67 2.71023 194.391 2.44176 194.016C2.17756 193.641 2.04545 193.168 2.04545 192.597V182.83ZM11.8029 195.205C10.9165 195.205 10.1388 194.994 9.46982 194.572C8.80504 194.15 8.28516 193.56 7.91016 192.801C7.53942 192.043 7.35405 191.156 7.35405 190.142C7.35405 189.119 7.53942 188.227 7.91016 187.464C8.28516 186.701 8.80504 186.109 9.46982 185.687C10.1388 185.265 10.9165 185.054 11.8029 185.054C12.6893 185.054 13.4648 185.265 14.1296 185.687C14.7987 186.109 15.3185 186.701 15.6893 187.464C16.0643 188.227 16.2518 189.119 16.2518 190.142C16.2518 191.156 16.0643 192.043 15.6893 192.801C15.3185 193.56 14.7987 194.15 14.1296 194.572C13.4648 194.994 12.6893 195.205 11.8029 195.205ZM11.8029 193.85C12.4762 193.85 13.0302 193.677 13.4648 193.332C13.8995 192.987 14.2212 192.533 14.43 191.97C14.6388 191.408 14.7433 190.798 14.7433 190.142C14.7433 189.486 14.6388 188.874 14.43 188.308C14.2212 187.741 13.8995 187.283 13.4648 186.933C13.0302 186.584 12.4762 186.409 11.8029 186.409C11.1296 186.409 10.5756 186.584 10.141 186.933C9.70632 187.283 9.38459 187.741 9.17578 188.308C8.96697 188.874 8.86257 189.486 8.86257 190.142C8.86257 190.798 8.96697 191.408 9.17578 191.97C9.38459 192.533 9.70632 192.987 10.141 193.332C10.5756 193.677 11.1296 193.85 11.8029 193.85ZM23.8216 195V181.909H25.4068V187.739H32.3869V181.909H33.9721V195H32.3869V189.145H25.4068V195H23.8216ZM39.8304 195.23C39.2083 195.23 38.6436 195.113 38.1365 194.879C37.6294 194.64 37.2267 194.297 36.9284 193.85C36.6301 193.398 36.481 192.852 36.481 192.213C36.481 191.651 36.5918 191.195 36.8134 190.845C37.035 190.492 37.3311 190.215 37.7019 190.014C38.0726 189.814 38.4817 189.665 38.9292 189.567C39.3809 189.465 39.8347 189.384 40.2907 189.324C40.8873 189.247 41.3709 189.19 41.7417 189.151C42.1167 189.109 42.3894 189.038 42.5598 188.94C42.7346 188.842 42.8219 188.672 42.8219 188.429V188.378C42.8219 187.747 42.6493 187.257 42.3042 186.908C41.9632 186.558 41.4455 186.384 40.7509 186.384C40.0307 186.384 39.4661 186.541 39.057 186.857C38.6479 187.172 38.3603 187.509 38.1941 187.867L36.7623 187.355C37.0179 186.759 37.3588 186.294 37.785 185.962C38.2154 185.625 38.6841 185.391 39.1912 185.259C39.7026 185.122 40.2054 185.054 40.6998 185.054C41.0151 185.054 41.3773 185.092 41.7864 185.169C42.1998 185.242 42.5982 185.393 42.9817 185.623C43.3695 185.853 43.6912 186.2 43.9469 186.665C44.2026 187.129 44.3304 187.752 44.3304 188.531V195H42.8219V193.671H42.7452C42.6429 193.884 42.4725 194.112 42.2338 194.355C41.9952 194.597 41.6777 194.804 41.2814 194.975C40.8851 195.145 40.4015 195.23 39.8304 195.23ZM40.0605 193.875C40.6571 193.875 41.16 193.758 41.5691 193.524C41.9824 193.289 42.2935 192.987 42.5023 192.616C42.7154 192.245 42.8219 191.855 42.8219 191.446V190.065C42.758 190.142 42.6174 190.212 42.4 190.276C42.187 190.336 41.9398 190.389 41.6586 190.436C41.3816 190.479 41.111 190.517 40.8468 190.551C40.5868 190.581 40.3759 190.607 40.214 190.628C39.8219 190.679 39.4554 190.762 39.1145 190.877C38.7779 190.988 38.5051 191.156 38.2963 191.382C38.0918 191.604 37.9895 191.906 37.9895 192.29C37.9895 192.814 38.1834 193.21 38.5712 193.479C38.9632 193.743 39.4597 193.875 40.0605 193.875ZM48.5923 189.094V195H47.0838V185.182H48.5412V186.716H48.669C48.8991 186.217 49.2486 185.817 49.7173 185.514C50.1861 185.208 50.7912 185.054 51.5327 185.054C52.1974 185.054 52.7791 185.19 53.2777 185.463C53.7763 185.732 54.1641 186.141 54.4411 186.69C54.718 187.236 54.8565 187.926 54.8565 188.761V195H53.348V188.864C53.348 188.092 53.1477 187.492 52.7472 187.061C52.3466 186.627 51.7969 186.409 51.098 186.409C50.6165 186.409 50.1861 186.514 49.8068 186.722C49.4318 186.931 49.1357 187.236 48.9183 187.636C48.701 188.037 48.5923 188.523 48.5923 189.094ZM61.5762 198.886C60.8475 198.886 60.2211 198.793 59.6969 198.605C59.1728 198.422 58.736 198.179 58.3865 197.877C58.0414 197.578 57.7665 197.259 57.562 196.918L58.7637 196.074C58.9 196.253 59.0726 196.458 59.2814 196.688C59.4902 196.922 59.7757 197.124 60.138 197.295C60.5044 197.47 60.9838 197.557 61.5762 197.557C62.3688 197.557 63.0229 197.365 63.5385 196.982C64.0542 196.598 64.312 195.997 64.312 195.179V193.185H64.1841C64.0733 193.364 63.9157 193.585 63.7111 193.85C63.5108 194.109 63.2211 194.342 62.8418 194.546C62.4668 194.747 61.9597 194.847 61.3205 194.847C60.5279 194.847 59.8162 194.659 59.1855 194.284C58.5591 193.909 58.0627 193.364 57.6962 192.648C57.334 191.932 57.1529 191.063 57.1529 190.04C57.1529 189.034 57.3297 188.159 57.6834 187.413C58.0371 186.663 58.5293 186.083 59.16 185.674C59.7907 185.261 60.5194 185.054 61.3461 185.054C61.9853 185.054 62.4924 185.161 62.8674 185.374C63.2466 185.583 63.5364 185.821 63.7367 186.09C63.9412 186.354 64.0989 186.571 64.2097 186.742H64.3631V185.182H65.8205V195.281C65.8205 196.125 65.6287 196.811 65.2452 197.34C64.8659 197.872 64.3546 198.262 63.7111 198.509C63.0719 198.761 62.3603 198.886 61.5762 198.886ZM61.525 193.492C62.1301 193.492 62.6415 193.353 63.0591 193.076C63.4767 192.799 63.7942 192.401 64.0115 191.881C64.2289 191.361 64.3375 190.739 64.3375 190.014C64.3375 189.307 64.231 188.683 64.0179 188.141C63.8049 187.6 63.4895 187.176 63.0719 186.869C62.6543 186.563 62.1387 186.409 61.525 186.409C60.8858 186.409 60.3532 186.571 59.927 186.895C59.5051 187.219 59.1877 187.654 58.9746 188.199C58.7658 188.744 58.6614 189.35 58.6614 190.014C58.6614 190.696 58.7679 191.299 58.981 191.823C59.1983 192.343 59.5179 192.752 59.9398 193.051C60.3659 193.345 60.8944 193.492 61.525 193.492Z" fill="#FAFAFA"/>
<path d="M195.585 18.0001V4.90921H203.435V6.31546H197.17V10.7388H202.847V12.145H197.17V18.0001H195.585ZM205.84 18.0001V8.18194H207.297V9.66489H207.399C207.578 9.1791 207.902 8.78492 208.371 8.48237C208.84 8.17981 209.368 8.02853 209.956 8.02853C210.067 8.02853 210.205 8.03066 210.372 8.03492C210.538 8.03918 210.664 8.04558 210.749 8.0541V9.58819C210.698 9.57541 210.58 9.55623 210.397 9.53066C210.218 9.50083 210.029 9.48592 209.828 9.48592C209.351 9.48592 208.925 9.58606 208.55 9.78634C208.179 9.98237 207.885 10.2551 207.668 10.6045C207.455 10.9497 207.348 11.3439 207.348 11.7871V18.0001H205.84ZM216.227 18.2047C215.34 18.2047 214.563 17.9937 213.894 17.5719C213.229 17.15 212.709 16.5598 212.334 15.8013C211.963 15.0427 211.778 14.1564 211.778 13.1422C211.778 12.1194 211.963 11.2267 212.334 10.4639C212.709 9.70112 213.229 9.10879 213.894 8.68691C214.563 8.26504 215.34 8.0541 216.227 8.0541C217.113 8.0541 217.889 8.26504 218.553 8.68691C219.222 9.10879 219.742 9.70112 220.113 10.4639C220.488 11.2267 220.676 12.1194 220.676 13.1422C220.676 14.1564 220.488 15.0427 220.113 15.8013C219.742 16.5598 219.222 17.15 218.553 17.5719C217.889 17.9937 217.113 18.2047 216.227 18.2047ZM216.227 16.8496C216.9 16.8496 217.454 16.677 217.889 16.3318C218.323 15.9866 218.645 15.5328 218.854 14.9703C219.063 14.4078 219.167 13.7984 219.167 13.1422C219.167 12.4859 219.063 11.8744 218.854 11.3077C218.645 10.7409 218.323 10.2828 217.889 9.93336C217.454 9.58393 216.9 9.40921 216.227 9.40921C215.553 9.40921 214.999 9.58393 214.565 9.93336C214.13 10.2828 213.808 10.7409 213.6 11.3077C213.391 11.8744 213.286 12.4859 213.286 13.1422C213.286 13.7984 213.391 14.4078 213.6 14.9703C213.808 15.5328 214.13 15.9866 214.565 16.3318C214.999 16.677 215.553 16.8496 216.227 16.8496ZM224.487 12.0939V18.0001H222.978V8.18194H224.436V9.71603H224.564C224.794 9.21745 225.143 8.81688 225.612 8.51433C226.081 8.20751 226.686 8.0541 227.427 8.0541C228.092 8.0541 228.674 8.19046 229.172 8.46319C229.671 8.73166 230.059 9.14075 230.336 9.69046C230.613 10.2359 230.751 10.9263 230.751 11.7615V18.0001H229.243V11.8638C229.243 11.0925 229.042 10.4916 228.642 10.0612C228.241 9.62654 227.691 9.40921 226.993 9.40921C226.511 9.40921 226.081 9.51362 225.701 9.72242C225.326 9.93123 225.03 10.2359 224.813 10.6365C224.596 11.0371 224.487 11.5228 224.487 12.0939ZM237.778 8.18194V9.46035H232.689V8.18194H237.778ZM234.172 5.82967H235.681V15.1876C235.681 15.6138 235.743 15.9334 235.866 16.1464C235.994 16.3552 236.156 16.4959 236.352 16.5683C236.552 16.6365 236.763 16.6706 236.985 16.6706C237.151 16.6706 237.287 16.6621 237.394 16.645C237.501 16.6237 237.586 16.6067 237.65 16.5939L237.956 17.949C237.854 17.9873 237.711 18.0257 237.528 18.064C237.345 18.1067 237.113 18.128 236.831 18.128C236.405 18.128 235.988 18.0363 235.579 17.8531C235.174 17.6699 234.837 17.3907 234.569 17.0157C234.305 16.6407 234.172 16.1677 234.172 15.5967V5.82967ZM245.32 11.6848V13.091H239.593V11.6848H245.32ZM248.179 18.0001V4.90921H256.08V6.31546H249.764V10.7388H255.67V12.145H249.764V16.5939H256.182V18.0001H248.179ZM260.241 12.0939V18.0001H258.732V8.18194H260.19V9.71603H260.317C260.548 9.21745 260.897 8.81688 261.366 8.51433C261.835 8.20751 262.44 8.0541 263.181 8.0541C263.846 8.0541 264.428 8.19046 264.926 8.46319C265.425 8.73166 265.813 9.14075 266.089 9.69046C266.366 10.2359 266.505 10.9263 266.505 11.7615V18.0001H264.996V11.8638C264.996 11.0925 264.796 10.4916 264.396 10.0612C263.995 9.62654 263.445 9.40921 262.746 9.40921C262.265 9.40921 261.835 9.51362 261.455 9.72242C261.08 9.93123 260.784 10.2359 260.567 10.6365C260.349 11.0371 260.241 11.5228 260.241 12.0939ZM272.969 18.2047C272.151 18.2047 271.428 17.998 270.802 17.5846C270.176 17.167 269.686 16.579 269.332 15.8204C268.978 15.0577 268.801 14.1564 268.801 13.1166C268.801 12.0853 268.978 11.1905 269.332 10.4319C269.686 9.67342 270.178 9.08748 270.808 8.67413C271.439 8.26078 272.168 8.0541 272.994 8.0541C273.634 8.0541 274.139 8.16063 274.509 8.3737C274.884 8.58251 275.17 8.82114 275.366 9.08961C275.566 9.35381 275.722 9.57114 275.833 9.7416H275.96V4.90921H277.469V18.0001H276.012V16.4916H275.833C275.722 16.6706 275.564 16.8964 275.36 17.1692C275.155 17.4376 274.863 17.6784 274.484 17.8915C274.105 18.1003 273.6 18.2047 272.969 18.2047ZM273.173 16.8496C273.779 16.8496 274.29 16.6919 274.708 16.3765C275.125 16.0569 275.443 15.6159 275.66 15.0534C275.877 14.4866 275.986 13.8325 275.986 13.091C275.986 12.3581 275.879 11.7167 275.666 11.167C275.453 10.613 275.138 10.1827 274.72 9.87583C274.303 9.56475 273.787 9.40921 273.173 9.40921C272.534 9.40921 272.002 9.57328 271.575 9.9014C271.154 10.2253 270.836 10.6663 270.623 11.2246C270.414 11.7785 270.31 12.4007 270.31 13.091C270.31 13.7899 270.416 14.4248 270.629 14.9959C270.847 15.5626 271.166 16.0143 271.588 16.351C272.014 16.6834 272.543 16.8496 273.173 16.8496ZM199.625 40.0001H195.585V26.9092H199.804C201.074 26.9092 202.161 27.1713 203.064 27.6954C203.967 28.2153 204.66 28.9632 205.141 29.939C205.623 30.9106 205.864 32.074 205.864 33.4291C205.864 34.7927 205.621 35.9667 205.135 36.9511C204.649 37.9312 203.942 38.6855 203.013 39.2139C202.084 39.738 200.955 40.0001 199.625 40.0001ZM197.17 38.5939H199.523C200.605 38.5939 201.502 38.3851 202.214 37.9675C202.925 37.5498 203.456 36.9554 203.805 36.1841C204.155 35.4128 204.33 34.4944 204.33 33.4291C204.33 32.3723 204.157 31.4625 203.812 30.6997C203.467 29.9327 202.951 29.3446 202.265 28.9355C201.579 28.5221 200.724 28.3155 199.702 28.3155H197.17V38.5939ZM212.435 40.2047C211.489 40.2047 210.673 39.9959 209.987 39.5782C209.305 39.1564 208.778 38.5683 208.408 37.814C208.041 37.0555 207.858 36.1734 207.858 35.1677C207.858 34.1621 208.041 33.2757 208.408 32.5086C208.778 31.7373 209.294 31.1365 209.955 30.7061C210.619 30.2714 211.395 30.0541 212.281 30.0541C212.793 30.0541 213.298 30.1393 213.796 30.3098C214.295 30.4802 214.749 30.7572 215.158 31.1407C215.567 31.52 215.893 32.0228 216.136 32.6493C216.379 33.2757 216.5 34.047 216.5 34.9632V35.6024H208.932V34.2984H214.966C214.966 33.7444 214.855 33.2501 214.634 32.8155C214.416 32.3808 214.105 32.0378 213.7 31.7863C213.3 31.5349 212.827 31.4092 212.281 31.4092C211.68 31.4092 211.161 31.5584 210.722 31.8567C210.287 32.1507 209.952 32.5342 209.718 33.0072C209.484 33.4802 209.366 33.9873 209.366 34.5285V35.3978C209.366 36.1393 209.494 36.7679 209.75 37.2835C210.01 37.7949 210.37 38.1848 210.83 38.4532C211.29 38.7175 211.825 38.8496 212.435 38.8496C212.831 38.8496 213.189 38.7942 213.509 38.6834C213.832 38.5683 214.112 38.3978 214.346 38.172C214.58 37.9419 214.761 37.6564 214.889 37.3155L216.347 37.7246C216.193 38.2189 215.935 38.6535 215.573 39.0285C215.211 39.3993 214.763 39.689 214.231 39.8978C213.698 40.1024 213.099 40.2047 212.435 40.2047ZM226.524 30.1819L222.894 40.0001H221.36L217.729 30.1819H219.365L222.075 38.0058H222.178L224.888 30.1819H226.524ZM232.28 40.2047C231.334 40.2047 230.518 39.9959 229.832 39.5782C229.15 39.1564 228.624 38.5683 228.253 37.814C227.887 37.0555 227.704 36.1734 227.704 35.1677C227.704 34.1621 227.887 33.2757 228.253 32.5086C228.624 31.7373 229.14 31.1365 229.8 30.7061C230.465 30.2714 231.241 30.0541 232.127 30.0541C232.638 30.0541 233.143 30.1393 233.642 30.3098C234.14 30.4802 234.594 30.7572 235.003 31.1407C235.412 31.52 235.738 32.0228 235.981 32.6493C236.224 33.2757 236.346 34.047 236.346 34.9632V35.6024H228.778V34.2984H234.812C234.812 33.7444 234.701 33.2501 234.479 32.8155C234.262 32.3808 233.951 32.0378 233.546 31.7863C233.145 31.5349 232.672 31.4092 232.127 31.4092C231.526 31.4092 231.006 31.5584 230.567 31.8567C230.133 32.1507 229.798 32.5342 229.564 33.0072C229.329 33.4802 229.212 33.9873 229.212 34.5285V35.3978C229.212 36.1393 229.34 36.7679 229.596 37.2835C229.856 37.7949 230.216 38.1848 230.676 38.4532C231.136 38.7175 231.671 38.8496 232.28 38.8496C232.677 38.8496 233.035 38.7942 233.354 38.6834C233.678 38.5683 233.957 38.3978 234.192 38.172C234.426 37.9419 234.607 37.6564 234.735 37.3155L236.192 37.7246C236.039 38.2189 235.781 38.6535 235.419 39.0285C235.057 39.3993 234.609 39.689 234.077 39.8978C233.544 40.1024 232.945 40.2047 232.28 40.2047ZM240.149 26.9092V40.0001H238.64V26.9092H240.149ZM246.901 40.2047C246.014 40.2047 245.237 39.9937 244.567 39.5719C243.903 39.15 243.383 38.5598 243.008 37.8013C242.637 37.0427 242.452 36.1564 242.452 35.1422C242.452 34.1194 242.637 33.2267 243.008 32.4639C243.383 31.7011 243.903 31.1088 244.567 30.6869C245.237 30.265 246.014 30.0541 246.901 30.0541C247.787 30.0541 248.563 30.265 249.227 30.6869C249.896 31.1088 250.416 31.7011 250.787 32.4639C251.162 33.2267 251.349 34.1194 251.349 35.1422C251.349 36.1564 251.162 37.0427 250.787 37.8013C250.416 38.5598 249.896 39.15 249.227 39.5719C248.563 39.9937 247.787 40.2047 246.901 40.2047ZM246.901 38.8496C247.574 38.8496 248.128 38.677 248.562 38.3318C248.997 37.9866 249.319 37.5328 249.528 36.9703C249.737 36.4078 249.841 35.7984 249.841 35.1422C249.841 34.4859 249.737 33.8744 249.528 33.3077C249.319 32.7409 248.997 32.2828 248.562 31.9334C248.128 31.5839 247.574 31.4092 246.901 31.4092C246.227 31.4092 245.673 31.5839 245.239 31.9334C244.804 32.2828 244.482 32.7409 244.273 33.3077C244.065 33.8744 243.96 34.4859 243.96 35.1422C243.96 35.7984 244.065 36.4078 244.273 36.9703C244.482 37.5328 244.804 37.9866 245.239 38.3318C245.673 38.677 246.227 38.8496 246.901 38.8496ZM253.652 43.6819V30.1819H255.11V31.7416H255.289C255.399 31.5711 255.553 31.3538 255.749 31.0896C255.949 30.8211 256.235 30.5825 256.605 30.3737C256.98 30.1606 257.487 30.0541 258.127 30.0541C258.953 30.0541 259.682 30.2608 260.313 30.6741C260.943 31.0875 261.436 31.6734 261.789 32.4319C262.143 33.1905 262.32 34.0853 262.32 35.1166C262.32 36.1564 262.143 37.0577 261.789 37.8204C261.436 38.579 260.945 39.167 260.319 39.5846C259.693 39.998 258.97 40.2047 258.152 40.2047C257.521 40.2047 257.017 40.1003 256.637 39.8915C256.258 39.6784 255.966 39.4376 255.762 39.1692C255.557 38.8964 255.399 38.6706 255.289 38.4916H255.161V43.6819H253.652ZM255.135 35.091C255.135 35.8325 255.244 36.4866 255.461 37.0534C255.678 37.6159 255.996 38.0569 256.414 38.3765C256.831 38.6919 257.343 38.8496 257.948 38.8496C258.578 38.8496 259.105 38.6834 259.526 38.351C259.953 38.0143 260.272 37.5626 260.485 36.9959C260.703 36.4248 260.811 35.7899 260.811 35.091C260.811 34.4007 260.705 33.7785 260.492 33.2246C260.283 32.6663 259.965 32.2253 259.539 31.9014C259.117 31.5733 258.587 31.4092 257.948 31.4092C257.334 31.4092 256.818 31.5648 256.401 31.8758C255.983 32.1827 255.668 32.613 255.455 33.167C255.242 33.7167 255.135 34.3581 255.135 35.091ZM264.621 40.0001V30.1819H266.078V31.716H266.206C266.411 31.1919 266.741 30.7849 267.197 30.4952C267.653 30.2011 268.2 30.0541 268.84 30.0541C269.487 30.0541 270.026 30.2011 270.457 30.4952C270.892 30.7849 271.23 31.1919 271.473 31.716H271.575C271.827 31.2089 272.204 30.8062 272.707 30.5079C273.21 30.2054 273.813 30.0541 274.516 30.0541C275.394 30.0541 276.112 30.329 276.67 30.8787C277.228 31.4241 277.507 32.2743 277.507 33.4291V40.0001H275.999V33.4291C275.999 32.7047 275.801 32.1869 275.404 31.8758C275.008 31.5648 274.541 31.4092 274.004 31.4092C273.314 31.4092 272.779 31.618 272.4 32.0356C272.021 32.449 271.831 32.9731 271.831 33.6081V40.0001H270.297V33.2757C270.297 32.7175 270.116 32.2679 269.754 31.927C269.392 31.5818 268.925 31.4092 268.354 31.4092C267.962 31.4092 267.595 31.5136 267.254 31.7224C266.918 31.9312 266.645 32.221 266.436 32.5917C266.232 32.9582 266.129 33.3822 266.129 33.8638V40.0001H264.621ZM284.382 40.2047C283.436 40.2047 282.62 39.9959 281.934 39.5782C281.252 39.1564 280.726 38.5683 280.355 37.814C279.988 37.0555 279.805 36.1734 279.805 35.1677C279.805 34.1621 279.988 33.2757 280.355 32.5086C280.726 31.7373 281.241 31.1365 281.902 30.7061C282.567 30.2714 283.342 30.0541 284.229 30.0541C284.74 30.0541 285.245 30.1393 285.743 30.3098C286.242 30.4802 286.696 30.7572 287.105 31.1407C287.514 31.52 287.84 32.0228 288.083 32.6493C288.326 33.2757 288.447 34.047 288.447 34.9632V35.6024H280.879V34.2984H286.913C286.913 33.7444 286.802 33.2501 286.581 32.8155C286.363 32.3808 286.052 32.0378 285.648 31.7863C285.247 31.5349 284.774 31.4092 284.229 31.4092C283.628 31.4092 283.108 31.5584 282.669 31.8567C282.234 32.1507 281.9 32.5342 281.665 33.0072C281.431 33.4802 281.314 33.9873 281.314 34.5285V35.3978C281.314 36.1393 281.442 36.7679 281.697 37.2835C281.957 37.7949 282.317 38.1848 282.778 38.4532C283.238 38.7175 283.773 38.8496 284.382 38.8496C284.778 38.8496 285.136 38.7942 285.456 38.6834C285.78 38.5683 286.059 38.3978 286.293 38.172C286.528 37.9419 286.709 37.6564 286.836 37.3155L288.294 37.7246C288.14 38.2189 287.883 38.6535 287.52 39.0285C287.158 39.3993 286.711 39.689 286.178 39.8978C285.645 40.1024 285.047 40.2047 284.382 40.2047ZM292.251 34.0939V40.0001H290.742V30.1819H292.199V31.716H292.327C292.557 31.2175 292.907 30.8169 293.376 30.5143C293.844 30.2075 294.449 30.0541 295.191 30.0541C295.856 30.0541 296.437 30.1905 296.936 30.4632C297.434 30.7317 297.822 31.1407 298.099 31.6905C298.376 32.2359 298.515 32.9263 298.515 33.7615V40.0001H297.006V33.8638C297.006 33.0925 296.806 32.4916 296.405 32.0612C296.005 31.6265 295.455 31.4092 294.756 31.4092C294.275 31.4092 293.844 31.5136 293.465 31.7224C293.09 31.9312 292.794 32.2359 292.577 32.6365C292.359 33.0371 292.251 33.5228 292.251 34.0939ZM305.541 30.1819V31.4603H300.453V30.1819H305.541ZM301.936 27.8297H303.445V37.1876C303.445 37.6138 303.506 37.9334 303.63 38.1464C303.758 38.3552 303.92 38.4959 304.116 38.5683C304.316 38.6365 304.527 38.6706 304.749 38.6706C304.915 38.6706 305.051 38.6621 305.158 38.645C305.264 38.6237 305.349 38.6067 305.413 38.5939L305.72 39.949C305.618 39.9873 305.475 40.0257 305.292 40.064C305.109 40.1067 304.876 40.128 304.595 40.128C304.169 40.128 303.751 40.0363 303.342 39.8531C302.938 39.6699 302.601 39.3907 302.332 39.0157C302.068 38.6407 301.936 38.1677 301.936 37.5967V27.8297Z" fill="#FAFAFA"/>
<path d="M405.576 4.90921H407.161V13.5768C407.161 14.4717 406.95 15.2707 406.529 15.9738C406.111 16.6727 405.521 17.2246 404.758 17.6294C403.995 18.03 403.1 18.2302 402.073 18.2302C401.046 18.2302 400.151 18.03 399.389 17.6294C398.626 17.2246 398.034 16.6727 397.612 15.9738C397.194 15.2707 396.985 14.4717 396.985 13.5768V4.90921H398.57V13.449C398.57 14.0882 398.711 14.6571 398.992 15.1557C399.274 15.65 399.674 16.0399 400.194 16.3254C400.718 16.6067 401.345 16.7473 402.073 16.7473C402.802 16.7473 403.428 16.6067 403.953 16.3254C404.477 16.0399 404.877 15.65 405.154 15.1557C405.436 14.6571 405.576 14.0882 405.576 13.449V4.90921ZM411.094 4.90921L414.469 10.3552H414.571L417.946 4.90921H419.813L415.696 11.4547L419.813 18.0001H417.946L414.571 12.6564H414.469L411.094 18.0001H409.228L413.446 11.4547L409.228 4.90921H411.094ZM396.985 40.0001V26.9092H401.409C402.431 26.9092 403.271 27.0839 403.927 27.4334C404.583 27.7785 405.069 28.2537 405.384 28.8588C405.7 29.4639 405.857 30.1521 405.857 30.9234C405.857 31.6947 405.7 32.3787 405.384 32.9753C405.069 33.5719 404.585 34.0406 403.933 34.3815C403.281 34.7182 402.448 34.8865 401.434 34.8865H397.855V33.4547H401.383C402.082 33.4547 402.644 33.3524 403.07 33.1478C403.501 32.9433 403.812 32.6535 404.004 32.2785C404.2 31.8993 404.298 31.4476 404.298 30.9234C404.298 30.3993 404.2 29.9412 404.004 29.5491C403.808 29.1571 403.494 28.8545 403.064 28.6415C402.634 28.4241 402.065 28.3155 401.357 28.3155H398.57V40.0001H396.985ZM403.147 34.1194L406.369 40.0001H404.528L401.357 34.1194H403.147ZM412.305 40.2047C411.359 40.2047 410.543 39.9959 409.857 39.5782C409.175 39.1564 408.649 38.5683 408.278 37.814C407.912 37.0555 407.729 36.1734 407.729 35.1677C407.729 34.1621 407.912 33.2757 408.278 32.5086C408.649 31.7373 409.165 31.1365 409.825 30.7061C410.49 30.2714 411.266 30.0541 412.152 30.0541C412.663 30.0541 413.168 30.1393 413.667 30.3098C414.165 30.4802 414.619 30.7572 415.028 31.1407C415.437 31.52 415.763 32.0228 416.006 32.6493C416.249 33.2757 416.371 34.047 416.371 34.9632V35.6024H408.803V34.2984H414.837C414.837 33.7444 414.726 33.2501 414.504 32.8155C414.287 32.3808 413.976 32.0378 413.571 31.7863C413.17 31.5349 412.697 31.4092 412.152 31.4092C411.551 31.4092 411.031 31.5584 410.592 31.8567C410.158 32.1507 409.823 32.5342 409.589 33.0072C409.354 33.4802 409.237 33.9873 409.237 34.5285V35.3978C409.237 36.1393 409.365 36.7679 409.621 37.2835C409.881 37.7949 410.241 38.1848 410.701 38.4532C411.161 38.7175 411.696 38.8496 412.305 38.8496C412.702 38.8496 413.06 38.7942 413.379 38.6834C413.703 38.5683 413.982 38.3978 414.217 38.172C414.451 37.9419 414.632 37.6564 414.76 37.3155L416.217 37.7246C416.064 38.2189 415.806 38.6535 415.444 39.0285C415.082 39.3993 414.634 39.689 414.102 39.8978C413.569 40.1024 412.97 40.2047 412.305 40.2047ZM425.62 32.3808L424.265 32.7643C424.18 32.5385 424.054 32.319 423.888 32.1059C423.726 31.8886 423.504 31.7096 423.223 31.569C422.942 31.4284 422.582 31.3581 422.143 31.3581C421.542 31.3581 421.041 31.4966 420.641 31.7736C420.244 32.0463 420.046 32.3936 420.046 32.8155C420.046 33.1905 420.183 33.4866 420.455 33.704C420.728 33.9213 421.154 34.1024 421.734 34.2473L423.191 34.6052C424.069 34.8183 424.723 35.1443 425.153 35.5832C425.584 36.0179 425.799 36.5782 425.799 37.2643C425.799 37.8268 425.637 38.3297 425.313 38.7728C424.994 39.216 424.546 39.5655 423.971 39.8211C423.396 40.0768 422.727 40.2047 421.964 40.2047C420.962 40.2047 420.134 39.9873 419.477 39.5527C418.821 39.118 418.406 38.4831 418.231 37.6478L419.663 37.2899C419.799 37.8183 420.057 38.2146 420.436 38.4788C420.82 38.743 421.32 38.8751 421.938 38.8751C422.641 38.8751 423.2 38.726 423.613 38.4277C424.031 38.1251 424.239 37.7629 424.239 37.341C424.239 37.0001 424.12 36.7146 423.881 36.4845C423.643 36.2501 423.276 36.0754 422.782 35.9603L421.146 35.5768C420.246 35.3638 419.586 35.0335 419.164 34.5861C418.746 34.1344 418.538 33.5697 418.538 32.8922C418.538 32.3382 418.693 31.8481 419.004 31.422C419.32 30.9959 419.748 30.6613 420.289 30.4184C420.835 30.1755 421.452 30.0541 422.143 30.0541C423.114 30.0541 423.877 30.2672 424.431 30.6933C424.989 31.1194 425.386 31.6819 425.62 32.3808ZM432.186 40.2047C431.24 40.2047 430.424 39.9959 429.738 39.5782C429.056 39.1564 428.53 38.5683 428.159 37.814C427.793 37.0555 427.61 36.1734 427.61 35.1677C427.61 34.1621 427.793 33.2757 428.159 32.5086C428.53 31.7373 429.046 31.1365 429.706 30.7061C430.371 30.2714 431.146 30.0541 432.033 30.0541C432.544 30.0541 433.049 30.1393 433.548 30.3098C434.046 30.4802 434.5 30.7572 434.909 31.1407C435.318 31.52 435.644 32.0228 435.887 32.6493C436.13 33.2757 436.252 34.047 436.252 34.9632V35.6024H428.683V34.2984H434.717C434.717 33.7444 434.607 33.2501 434.385 32.8155C434.168 32.3808 433.857 32.0378 433.452 31.7863C433.051 31.5349 432.578 31.4092 432.033 31.4092C431.432 31.4092 430.912 31.5584 430.473 31.8567C430.039 32.1507 429.704 32.5342 429.47 33.0072C429.235 33.4802 429.118 33.9873 429.118 34.5285V35.3978C429.118 36.1393 429.246 36.7679 429.502 37.2835C429.762 37.7949 430.122 38.1848 430.582 38.4532C431.042 38.7175 431.577 38.8496 432.186 38.8496C432.583 38.8496 432.941 38.7942 433.26 38.6834C433.584 38.5683 433.863 38.3978 434.097 38.172C434.332 37.9419 434.513 37.6564 434.641 37.3155L436.098 37.7246C435.945 38.2189 435.687 38.6535 435.325 39.0285C434.963 39.3993 434.515 39.689 433.982 39.8978C433.45 40.1024 432.851 40.2047 432.186 40.2047ZM441.436 40.2302C440.813 40.2302 440.249 40.113 439.742 39.8787C439.235 39.64 438.832 39.297 438.534 38.8496C438.235 38.3978 438.086 37.8524 438.086 37.2132C438.086 36.6507 438.197 36.1947 438.418 35.8453C438.64 35.4916 438.936 35.2146 439.307 35.0143C439.678 34.814 440.087 34.6649 440.534 34.5669C440.986 34.4646 441.44 34.3836 441.896 34.324C442.492 34.2473 442.976 34.1898 443.347 34.1514C443.722 34.1088 443.994 34.0385 444.165 33.9405C444.34 33.8425 444.427 33.672 444.427 33.4291V33.378C444.427 32.7473 444.254 32.2572 443.909 31.9078C443.568 31.5584 443.051 31.3836 442.356 31.3836C441.636 31.3836 441.071 31.5413 440.662 31.8567C440.253 32.172 439.965 32.5086 439.799 32.8666L438.367 32.3552C438.623 31.7586 438.964 31.2942 439.39 30.9618C439.82 30.6251 440.289 30.3907 440.796 30.2586C441.308 30.1223 441.811 30.0541 442.305 30.0541C442.62 30.0541 442.982 30.0925 443.392 30.1692C443.805 30.2416 444.203 30.3929 444.587 30.623C444.975 30.8531 445.296 31.2004 445.552 31.6649C445.808 32.1294 445.936 32.7515 445.936 33.5314V40.0001H444.427V38.6706H444.35C444.248 38.8836 444.078 39.1116 443.839 39.3545C443.6 39.5974 443.283 39.8041 442.887 39.9746C442.49 40.145 442.007 40.2302 441.436 40.2302ZM441.666 38.8751C442.262 38.8751 442.765 38.7579 443.174 38.5236C443.588 38.2892 443.899 37.9866 444.107 37.6159C444.32 37.2452 444.427 36.8552 444.427 36.4461V35.0655C444.363 35.1422 444.222 35.2125 444.005 35.2764C443.792 35.3361 443.545 35.3893 443.264 35.4362C442.987 35.4788 442.716 35.5172 442.452 35.5513C442.192 35.5811 441.981 35.6067 441.819 35.628C441.427 35.6791 441.061 35.7622 440.72 35.8773C440.383 35.988 440.11 36.1564 439.901 36.3822C439.697 36.6038 439.595 36.9064 439.595 37.2899C439.595 37.814 439.789 38.2103 440.176 38.4788C440.568 38.743 441.065 38.8751 441.666 38.8751ZM448.689 40.0001V30.1819H450.146V31.6649H450.249C450.428 31.1791 450.751 30.7849 451.22 30.4824C451.689 30.1798 452.217 30.0285 452.805 30.0285C452.916 30.0285 453.055 30.0307 453.221 30.0349C453.387 30.0392 453.513 30.0456 453.598 30.0541V31.5882C453.547 31.5754 453.43 31.5562 453.246 31.5307C453.067 31.5008 452.878 31.4859 452.678 31.4859C452.2 31.4859 451.774 31.5861 451.399 31.7863C451.028 31.9824 450.734 32.2551 450.517 32.6045C450.304 32.9497 450.197 33.3439 450.197 33.7871V40.0001H448.689ZM459.076 40.2047C458.156 40.2047 457.363 39.9873 456.698 39.5527C456.033 39.118 455.522 38.5193 455.164 37.7565C454.806 36.9937 454.627 36.1223 454.627 35.1422C454.627 34.145 454.81 33.265 455.177 32.5023C455.548 31.7352 456.063 31.1365 456.724 30.7061C457.388 30.2714 458.164 30.0541 459.05 30.0541C459.741 30.0541 460.363 30.1819 460.917 30.4376C461.471 30.6933 461.925 31.0513 462.278 31.5115C462.632 31.9717 462.852 32.5086 462.937 33.1223H461.428C461.313 32.6748 461.058 32.2785 460.661 31.9334C460.269 31.5839 459.741 31.4092 459.076 31.4092C458.488 31.4092 457.972 31.5626 457.529 31.8694C457.09 32.172 456.747 32.6003 456.5 33.1542C456.257 33.704 456.136 34.3496 456.136 35.091C456.136 35.8496 456.255 36.5101 456.494 37.0726C456.736 37.6351 457.077 38.0719 457.516 38.3829C457.96 38.694 458.479 38.8496 459.076 38.8496C459.468 38.8496 459.824 38.7814 460.143 38.645C460.463 38.5086 460.734 38.3126 460.955 38.0569C461.177 37.8013 461.335 37.4944 461.428 37.1365H462.937C462.852 37.716 462.641 38.238 462.304 38.7025C461.972 39.1628 461.531 39.5292 460.981 39.802C460.435 40.0704 459.8 40.2047 459.076 40.2047ZM466.651 34.0939V40.0001H465.142V26.9092H466.651V31.716H466.778C467.009 31.2089 467.354 30.8062 467.814 30.5079C468.278 30.2054 468.896 30.0541 469.668 30.0541C470.337 30.0541 470.923 30.1883 471.425 30.4568C471.928 30.721 472.318 31.128 472.595 31.6777C472.876 32.2231 473.017 32.9177 473.017 33.7615V40.0001H471.509V33.8638C471.509 33.0839 471.306 32.4809 470.901 32.0548C470.501 31.6244 469.945 31.4092 469.233 31.4092C468.739 31.4092 468.295 31.5136 467.903 31.7224C467.516 31.9312 467.209 32.2359 466.983 32.6365C466.761 33.0371 466.651 33.5228 466.651 34.0939Z" fill="#FAFAFA"/>
<path d="M605.024 4.90921H607.792V13.4106C607.792 14.3652 607.564 15.2004 607.108 15.9163C606.656 16.6322 606.023 17.1905 605.209 17.591C604.395 17.9873 603.447 18.1855 602.365 18.1855C601.278 18.1855 600.328 17.9873 599.514 17.591C598.7 17.1905 598.067 16.6322 597.615 15.9163C597.164 15.2004 596.938 14.3652 596.938 13.4106V4.90921H599.706V13.1741C599.706 13.6727 599.814 14.1159 600.032 14.5037C600.253 14.8915 600.564 15.1961 600.965 15.4177C601.365 15.6393 601.832 15.7501 602.365 15.7501C602.902 15.7501 603.368 15.6393 603.765 15.4177C604.165 15.1961 604.474 14.8915 604.691 14.5037C604.913 14.1159 605.024 13.6727 605.024 13.1741V4.90921ZM612.836 4.90921V18.0001H610.069V4.90921H612.836ZM601.578 40.0001H596.938V26.9092H601.617C602.934 26.9092 604.067 27.1713 605.017 27.6954C605.968 28.2153 606.698 28.9632 607.21 29.939C607.725 30.9149 607.983 32.0825 607.983 33.4419C607.983 34.8055 607.725 35.9774 607.21 36.9575C606.698 37.9376 605.963 38.6898 605.005 39.2139C604.05 39.738 602.908 40.0001 601.578 40.0001ZM599.706 37.6287H601.463C602.282 37.6287 602.97 37.4838 603.528 37.194C604.091 36.9 604.512 36.4461 604.794 35.8325C605.079 35.2146 605.222 34.4177 605.222 33.4419C605.222 32.4746 605.079 31.6841 604.794 31.0704C604.512 30.4568 604.093 30.0051 603.534 29.7153C602.976 29.4255 602.288 29.2807 601.47 29.2807H599.706V37.6287ZM614.457 40.1919C613.447 40.1919 612.578 39.9873 611.849 39.5782C611.124 39.1649 610.566 38.5811 610.174 37.8268C609.782 37.0683 609.586 36.1713 609.586 35.1358C609.586 34.1258 609.782 33.2395 610.174 32.4767C610.566 31.7139 611.118 31.1194 611.83 30.6933C612.546 30.2672 613.385 30.0541 614.348 30.0541C614.996 30.0541 615.599 30.1585 616.157 30.3673C616.72 30.5719 617.21 30.8808 617.627 31.2942C618.049 31.7075 618.377 32.2274 618.612 32.8538C618.846 33.476 618.963 34.2047 618.963 35.0399V35.7878H610.673V34.1003H616.4C616.4 33.7082 616.315 33.3609 616.144 33.0584C615.974 32.7558 615.737 32.5193 615.435 32.3488C615.137 32.1741 614.789 32.0868 614.393 32.0868C613.98 32.0868 613.613 32.1827 613.293 32.3744C612.978 32.5619 612.731 32.8155 612.552 33.1351C612.373 33.4504 612.281 33.802 612.277 34.1898V35.7942C612.277 36.28 612.367 36.6997 612.546 37.0534C612.729 37.4071 612.987 37.6798 613.319 37.8716C613.651 38.0633 614.046 38.1592 614.502 38.1592C614.804 38.1592 615.081 38.1166 615.333 38.0314C615.584 37.9461 615.799 37.8183 615.978 37.6478C616.157 37.4774 616.293 37.2686 616.387 37.0214L618.906 37.1876C618.778 37.7927 618.516 38.3211 618.119 38.7728C617.727 39.2203 617.22 39.5697 616.598 39.8211C615.98 40.0683 615.266 40.1919 614.457 40.1919ZM628.909 32.9817L626.416 33.1351C626.374 32.922 626.282 32.7302 626.141 32.5598C626.001 32.3851 625.815 32.2466 625.585 32.1443C625.36 32.0378 625.089 31.9845 624.774 31.9845C624.352 31.9845 623.996 32.074 623.706 32.253C623.416 32.4277 623.271 32.6621 623.271 32.9561C623.271 33.1905 623.365 33.3886 623.553 33.5505C623.74 33.7125 624.062 33.8425 624.518 33.9405L626.295 34.2984C627.249 34.4944 627.961 34.8098 628.43 35.2444C628.899 35.6791 629.133 36.2501 629.133 36.9575C629.133 37.601 628.943 38.1656 628.564 38.6514C628.189 39.1372 627.673 39.5165 627.017 39.7892C626.365 40.0577 625.613 40.1919 624.761 40.1919C623.461 40.1919 622.426 39.9213 621.654 39.3801C620.887 38.8346 620.438 38.0932 620.306 37.1557L622.984 37.015C623.065 37.4113 623.261 37.7139 623.572 37.9227C623.883 38.1273 624.281 38.2295 624.767 38.2295C625.244 38.2295 625.628 38.1379 625.918 37.9547C626.212 37.7672 626.361 37.5264 626.365 37.2324C626.361 36.9852 626.257 36.7828 626.052 36.6251C625.847 36.4632 625.532 36.3396 625.106 36.2544L623.406 35.9156C622.447 35.7238 621.733 35.3915 621.264 34.9184C620.8 34.4454 620.568 33.8425 620.568 33.1095C620.568 32.4788 620.738 31.9355 621.079 31.4795C621.424 31.0236 621.908 30.672 622.53 30.4248C623.156 30.1777 623.889 30.0541 624.729 30.0541C625.969 30.0541 626.945 30.3162 627.656 30.8403C628.372 31.3645 628.79 32.0782 628.909 32.9817ZM630.848 40.0001V30.1819H633.571V40.0001H630.848ZM632.216 28.9163C631.811 28.9163 631.463 28.7821 631.174 28.5136C630.888 28.2409 630.745 27.9149 630.745 27.5356C630.745 27.1606 630.888 26.8389 631.174 26.5704C631.463 26.2977 631.811 26.1613 632.216 26.1613C632.62 26.1613 632.966 26.2977 633.251 26.5704C633.541 26.8389 633.686 27.1606 633.686 27.5356C633.686 27.9149 633.541 28.2409 633.251 28.5136C632.966 28.7821 632.62 28.9163 632.216 28.9163ZM640.175 43.8865C639.293 43.8865 638.537 43.765 637.906 43.5221C637.28 43.2835 636.781 42.9575 636.41 42.5442C636.04 42.1308 635.799 41.6663 635.688 41.1507L638.206 40.8119C638.283 41.0079 638.405 41.1912 638.571 41.3616C638.737 41.5321 638.956 41.6684 639.229 41.7707C639.506 41.8773 639.843 41.9305 640.239 41.9305C640.831 41.9305 641.319 41.7856 641.703 41.4959C642.091 41.2103 642.285 40.7309 642.285 40.0577V38.2615H642.17C642.05 38.5342 641.871 38.792 641.633 39.0349C641.394 39.2778 641.087 39.476 640.712 39.6294C640.337 39.7828 639.89 39.8595 639.37 39.8595C638.633 39.8595 637.961 39.689 637.356 39.3481C636.755 39.003 636.276 38.4767 635.918 37.7693C635.564 37.0577 635.388 36.1585 635.388 35.0719C635.388 33.9596 635.569 33.0307 635.931 32.2849C636.293 31.5392 636.775 30.9809 637.376 30.6102C637.981 30.2395 638.643 30.0541 639.363 30.0541C639.913 30.0541 640.373 30.1478 640.744 30.3353C641.115 30.5186 641.413 30.7487 641.639 31.0257C641.869 31.2984 642.046 31.5669 642.17 31.8311H642.272V30.1819H644.976V40.096C644.976 40.9312 644.771 41.6301 644.362 42.1926C643.953 42.7551 643.386 43.177 642.662 43.4582C641.942 43.7437 641.113 43.8865 640.175 43.8865ZM640.233 37.814C640.672 37.814 641.042 37.7054 641.345 37.488C641.652 37.2665 641.886 36.9511 642.048 36.542C642.214 36.1287 642.297 35.6344 642.297 35.0591C642.297 34.4838 642.216 33.9852 642.054 33.5633C641.893 33.1372 641.658 32.8069 641.351 32.5726C641.045 32.3382 640.672 32.221 640.233 32.221C639.785 32.221 639.408 32.3425 639.101 32.5853C638.795 32.824 638.562 33.1564 638.405 33.5825C638.247 34.0086 638.168 34.5008 638.168 35.0591C638.168 35.6258 638.247 36.1159 638.405 36.5292C638.567 36.9383 638.799 37.2558 639.101 37.4817C639.408 37.7032 639.785 37.814 640.233 37.814ZM649.866 34.324V40.0001H647.143V30.1819H649.738V31.9142H649.853C650.07 31.3432 650.434 30.8915 650.946 30.5591C651.457 30.2224 652.077 30.0541 652.806 30.0541C653.488 30.0541 654.082 30.2032 654.589 30.5015C655.096 30.7998 655.491 31.226 655.772 31.78C656.053 32.3297 656.194 32.9859 656.194 33.7487V40.0001H653.471V34.2345C653.475 33.6336 653.322 33.1649 653.01 32.8282C652.699 32.4873 652.271 32.3169 651.726 32.3169C651.359 32.3169 651.035 32.3957 650.754 32.5534C650.477 32.7111 650.26 32.9412 650.102 33.2437C649.949 33.542 649.87 33.9021 649.866 34.324Z" fill="#FAFAFA"/>
<path d="M805.424 4.90921H808.191V13.4106C808.191 14.3652 807.963 15.2004 807.507 15.9163C807.056 16.6322 806.423 17.1905 805.609 17.591C804.795 17.9873 803.847 18.1855 802.765 18.1855C801.678 18.1855 800.728 17.9873 799.914 17.591C799.1 17.1905 798.467 16.6322 798.015 15.9163C797.564 15.2004 797.338 14.3652 797.338 13.4106V4.90921H800.105V13.1741C800.105 13.6727 800.214 14.1159 800.431 14.5037C800.653 14.8915 800.964 15.1961 801.365 15.4177C801.765 15.6393 802.232 15.7501 802.765 15.7501C803.302 15.7501 803.768 15.6393 804.164 15.4177C804.565 15.1961 804.874 14.8915 805.091 14.5037C805.313 14.1159 805.424 13.6727 805.424 13.1741V4.90921ZM813.064 4.90921L815.704 9.37086H815.806L818.459 4.90921H821.584L817.589 11.4547L821.674 18.0001H818.491L815.806 13.5321H815.704L813.019 18.0001H809.849L813.946 11.4547L809.925 4.90921H813.064ZM801.978 40.0001H797.338V26.9092H802.017C803.333 26.9092 804.467 27.1713 805.417 27.6954C806.368 28.2153 807.098 28.9632 807.61 29.939C808.125 30.9149 808.383 32.0825 808.383 33.4419C808.383 34.8055 808.125 35.9774 807.61 36.9575C807.098 37.9376 806.363 38.6898 805.404 39.2139C804.45 39.738 803.308 40.0001 801.978 40.0001ZM800.105 37.6287H801.863C802.681 37.6287 803.37 37.4838 803.928 37.194C804.49 36.9 804.912 36.4461 805.194 35.8325C805.479 35.2146 805.622 34.4177 805.622 33.4419C805.622 32.4746 805.479 31.6841 805.194 31.0704C804.912 30.4568 804.493 30.0051 803.934 29.7153C803.376 29.4255 802.688 29.2807 801.87 29.2807H800.105V37.6287ZM814.857 40.1919C813.847 40.1919 812.977 39.9873 812.249 39.5782C811.524 39.1649 810.966 38.5811 810.574 37.8268C810.182 37.0683 809.986 36.1713 809.986 35.1358C809.986 34.1258 810.182 33.2395 810.574 32.4767C810.966 31.7139 811.518 31.1194 812.23 30.6933C812.946 30.2672 813.785 30.0541 814.748 30.0541C815.396 30.0541 815.999 30.1585 816.557 30.3673C817.12 30.5719 817.61 30.8808 818.027 31.2942C818.449 31.7075 818.777 32.2274 819.012 32.8538C819.246 33.476 819.363 34.2047 819.363 35.0399V35.7878H811.073V34.1003H816.8C816.8 33.7082 816.715 33.3609 816.544 33.0584C816.374 32.7558 816.137 32.5193 815.835 32.3488C815.536 32.1741 815.189 32.0868 814.793 32.0868C814.379 32.0868 814.013 32.1827 813.693 32.3744C813.378 32.5619 813.131 32.8155 812.952 33.1351C812.773 33.4504 812.681 33.802 812.677 34.1898V35.7942C812.677 36.28 812.767 36.6997 812.946 37.0534C813.129 37.4071 813.387 37.6798 813.719 37.8716C814.051 38.0633 814.446 38.1592 814.901 38.1592C815.204 38.1592 815.481 38.1166 815.732 38.0314C815.984 37.9461 816.199 37.8183 816.378 37.6478C816.557 37.4774 816.693 37.2686 816.787 37.0214L819.306 37.1876C819.178 37.7927 818.916 38.3211 818.519 38.7728C818.127 39.2203 817.62 39.5697 816.998 39.8211C816.38 40.0683 815.666 40.1919 814.857 40.1919ZM829.309 32.9817L826.816 33.1351C826.774 32.922 826.682 32.7302 826.541 32.5598C826.401 32.3851 826.215 32.2466 825.985 32.1443C825.759 32.0378 825.489 31.9845 825.173 31.9845C824.752 31.9845 824.396 32.074 824.106 32.253C823.816 32.4277 823.671 32.6621 823.671 32.9561C823.671 33.1905 823.765 33.3886 823.953 33.5505C824.14 33.7125 824.462 33.8425 824.918 33.9405L826.695 34.2984C827.649 34.4944 828.361 34.8098 828.83 35.2444C829.298 35.6791 829.533 36.2501 829.533 36.9575C829.533 37.601 829.343 38.1656 828.964 38.6514C828.589 39.1372 828.073 39.5165 827.417 39.7892C826.765 40.0577 826.013 40.1919 825.161 40.1919C823.861 40.1919 822.825 39.9213 822.054 39.3801C821.287 38.8346 820.838 38.0932 820.705 37.1557L823.384 37.015C823.465 37.4113 823.661 37.7139 823.972 37.9227C824.283 38.1273 824.681 38.2295 825.167 38.2295C825.644 38.2295 826.028 38.1379 826.318 37.9547C826.612 37.7672 826.761 37.5264 826.765 37.2324C826.761 36.9852 826.656 36.7828 826.452 36.6251C826.247 36.4632 825.932 36.3396 825.506 36.2544L823.806 35.9156C822.847 35.7238 822.133 35.3915 821.664 34.9184C821.2 34.4454 820.968 33.8425 820.968 33.1095C820.968 32.4788 821.138 31.9355 821.479 31.4795C821.824 31.0236 822.308 30.672 822.93 30.4248C823.556 30.1777 824.289 30.0541 825.129 30.0541C826.369 30.0541 827.345 30.3162 828.056 30.8403C828.772 31.3645 829.19 32.0782 829.309 32.9817ZM831.248 40.0001V30.1819H833.971V40.0001H831.248ZM832.615 28.9163C832.211 28.9163 831.863 28.7821 831.574 28.5136C831.288 28.2409 831.145 27.9149 831.145 27.5356C831.145 27.1606 831.288 26.8389 831.574 26.5704C831.863 26.2977 832.211 26.1613 832.615 26.1613C833.02 26.1613 833.365 26.2977 833.651 26.5704C833.941 26.8389 834.086 27.1606 834.086 27.5356C834.086 27.9149 833.941 28.2409 833.651 28.5136C833.365 28.7821 833.02 28.9163 832.615 28.9163ZM840.575 43.8865C839.693 43.8865 838.937 43.765 838.306 43.5221C837.68 43.2835 837.181 42.9575 836.81 42.5442C836.439 42.1308 836.199 41.6663 836.088 41.1507L838.606 40.8119C838.683 41.0079 838.805 41.1912 838.971 41.3616C839.137 41.5321 839.356 41.6684 839.629 41.7707C839.906 41.8773 840.243 41.9305 840.639 41.9305C841.231 41.9305 841.719 41.7856 842.103 41.4959C842.491 41.2103 842.685 40.7309 842.685 40.0577V38.2615H842.569C842.45 38.5342 842.271 38.792 842.033 39.0349C841.794 39.2778 841.487 39.476 841.112 39.6294C840.737 39.7828 840.29 39.8595 839.77 39.8595C839.033 39.8595 838.361 39.689 837.756 39.3481C837.155 39.003 836.676 38.4767 836.318 37.7693C835.964 37.0577 835.787 36.1585 835.787 35.0719C835.787 33.9596 835.969 33.0307 836.331 32.2849C836.693 31.5392 837.175 30.9809 837.775 30.6102C838.381 30.2395 839.043 30.0541 839.763 30.0541C840.313 30.0541 840.773 30.1478 841.144 30.3353C841.515 30.5186 841.813 30.7487 842.039 31.0257C842.269 31.2984 842.446 31.5669 842.569 31.8311H842.672V30.1819H845.376V40.096C845.376 40.9312 845.171 41.6301 844.762 42.1926C844.353 42.7551 843.786 43.177 843.062 43.4582C842.341 43.7437 841.513 43.8865 840.575 43.8865ZM840.633 37.814C841.072 37.814 841.442 37.7054 841.745 37.488C842.052 37.2665 842.286 36.9511 842.448 36.542C842.614 36.1287 842.697 35.6344 842.697 35.0591C842.697 34.4838 842.616 33.9852 842.454 33.5633C842.292 33.1372 842.058 32.8069 841.751 32.5726C841.444 32.3382 841.072 32.221 840.633 32.221C840.185 32.221 839.808 32.3425 839.501 32.5853C839.194 32.824 838.962 33.1564 838.805 33.5825C838.647 34.0086 838.568 34.5008 838.568 35.0591C838.568 35.6258 838.647 36.1159 838.805 36.5292C838.966 36.9383 839.199 37.2558 839.501 37.4817C839.808 37.7032 840.185 37.814 840.633 37.814ZM850.265 34.324V40.0001H847.542V30.1819H850.138V31.9142H850.253C850.47 31.3432 850.834 30.8915 851.346 30.5591C851.857 30.2224 852.477 30.0541 853.206 30.0541C853.888 30.0541 854.482 30.2032 854.989 30.5015C855.496 30.7998 855.89 31.226 856.172 31.78C856.453 32.3297 856.594 32.9859 856.594 33.7487V40.0001H853.871V34.2345C853.875 33.6336 853.721 33.1649 853.41 32.8282C853.099 32.4873 852.671 32.3169 852.126 32.3169C851.759 32.3169 851.435 32.3957 851.154 32.5534C850.877 32.7111 850.66 32.9412 850.502 33.2437C850.349 33.542 850.27 33.9021 850.265 34.324Z" fill="#FAFAFA"/>
<path d="M1007.13 9.00012C1006.99 8.56972 1006.81 8.18407 1006.58 7.84316C1006.35 7.49799 1006.08 7.20396 1005.77 6.96106C1005.46 6.71816 1005.1 6.53279 1004.71 6.40495C1004.31 6.27711 1003.87 6.21319 1003.4 6.21319C1002.63 6.21319 1001.92 6.41347 1001.29 6.81404C1000.65 7.21461 1000.15 7.80481 999.771 8.58464C999.396 9.36447 999.208 10.3211 999.208 11.4547C999.208 12.5882 999.398 13.5449 999.777 14.3247C1000.16 15.1045 1000.67 15.6947 1001.32 16.0953C1001.97 16.4959 1002.69 16.6961 1003.5 16.6961C1004.25 16.6961 1004.91 16.5363 1005.49 16.2167C1006.06 15.8929 1006.51 15.4369 1006.83 14.8488C1007.15 14.2565 1007.31 13.5598 1007.31 12.7586L1007.8 12.8609H1003.86V11.4547H1008.85V12.8609C1008.85 13.939 1008.62 14.8765 1008.16 15.6734C1007.7 16.4703 1007.07 17.0882 1006.26 17.5271C1005.46 17.9618 1004.54 18.1791 1003.5 18.1791C1002.34 18.1791 1001.33 17.9064 1000.45 17.3609C999.575 16.8155 998.893 16.0399 998.403 15.0342C997.917 14.0285 997.674 12.8353 997.674 11.4547C997.674 10.4192 997.812 9.48805 998.089 8.66134C998.371 7.83038 998.767 7.12299 999.278 6.53918C999.79 5.95538 1000.39 5.50793 1001.09 5.19685C1001.79 4.88578 1002.56 4.73024 1003.4 4.73024C1004.09 4.73024 1004.74 4.83464 1005.33 5.04345C1005.93 5.24799 1006.47 5.53989 1006.94 5.91916C1007.41 6.29416 1007.8 6.74373 1008.12 7.26788C1008.43 7.78776 1008.65 8.36518 1008.77 9.00012H1007.13ZM1011.36 18.0001V8.18194H1012.82V9.66489H1012.92C1013.1 9.1791 1013.42 8.78492 1013.89 8.48237C1014.36 8.17981 1014.89 8.02853 1015.47 8.02853C1015.59 8.02853 1015.72 8.03066 1015.89 8.03492C1016.06 8.03918 1016.18 8.04558 1016.27 8.0541V9.58819C1016.22 9.57541 1016.1 9.55623 1015.92 9.53066C1015.74 9.50083 1015.55 9.48592 1015.35 9.48592C1014.87 9.48592 1014.44 9.58606 1014.07 9.78634C1013.7 9.98237 1013.4 10.2551 1013.19 10.6045C1012.97 10.9497 1012.87 11.3439 1012.87 11.7871V18.0001H1011.36ZM1020.94 18.2302C1020.32 18.2302 1019.76 18.113 1019.25 17.8787C1018.74 17.64 1018.34 17.297 1018.04 16.8496C1017.74 16.3978 1017.59 15.8524 1017.59 15.2132C1017.59 14.6507 1017.71 14.1947 1017.93 13.8453C1018.15 13.4916 1018.44 13.2146 1018.82 13.0143C1019.19 12.814 1019.6 12.6649 1020.04 12.5669C1020.49 12.4646 1020.95 12.3836 1021.4 12.324C1022 12.2473 1022.48 12.1898 1022.86 12.1514C1023.23 12.1088 1023.5 12.0385 1023.67 11.9405C1023.85 11.8425 1023.94 11.672 1023.94 11.4291V11.378C1023.94 10.7473 1023.76 10.2572 1023.42 9.90779C1023.08 9.55836 1022.56 9.38364 1021.86 9.38364C1021.14 9.38364 1020.58 9.54132 1020.17 9.85666C1019.76 10.172 1019.47 10.5086 1019.31 10.8666L1017.88 10.3552C1018.13 9.75864 1018.47 9.29416 1018.9 8.96177C1019.33 8.62512 1019.8 8.39075 1020.3 8.25864C1020.82 8.12228 1021.32 8.0541 1021.81 8.0541C1022.13 8.0541 1022.49 8.09245 1022.9 8.16916C1023.31 8.2416 1023.71 8.39288 1024.1 8.62299C1024.48 8.8531 1024.8 9.20041 1025.06 9.66489C1025.32 10.1294 1025.44 10.7515 1025.44 11.5314V18.0001H1023.94V16.6706H1023.86C1023.76 16.8836 1023.59 17.1116 1023.35 17.3545C1023.11 17.5974 1022.79 17.8041 1022.4 17.9746C1022 18.145 1021.52 18.2302 1020.94 18.2302ZM1021.17 16.8751C1021.77 16.8751 1022.27 16.7579 1022.68 16.5236C1023.1 16.2892 1023.41 15.9866 1023.62 15.6159C1023.83 15.2452 1023.94 14.8552 1023.94 14.4461V13.0655C1023.87 13.1422 1023.73 13.2125 1023.51 13.2764C1023.3 13.3361 1023.05 13.3893 1022.77 13.4362C1022.5 13.4788 1022.22 13.5172 1021.96 13.5513C1021.7 13.5811 1021.49 13.6067 1021.33 13.628C1020.94 13.6791 1020.57 13.7622 1020.23 13.8773C1019.89 13.988 1019.62 14.1564 1019.41 14.3822C1019.21 14.6038 1019.1 14.9064 1019.1 15.2899C1019.1 15.814 1019.3 16.2103 1019.68 16.4788C1020.08 16.743 1020.57 16.8751 1021.17 16.8751ZM1028.2 21.6819V8.18194H1029.65V9.7416H1029.83C1029.94 9.57114 1030.1 9.35381 1030.29 9.08961C1030.49 8.82114 1030.78 8.58251 1031.15 8.3737C1031.53 8.16063 1032.03 8.0541 1032.67 8.0541C1033.5 8.0541 1034.23 8.26078 1034.86 8.67413C1035.49 9.08748 1035.98 9.67342 1036.33 10.4319C1036.69 11.1905 1036.87 12.0853 1036.87 13.1166C1036.87 14.1564 1036.69 15.0577 1036.33 15.8204C1035.98 16.579 1035.49 17.167 1034.86 17.5846C1034.24 17.998 1033.52 18.2047 1032.7 18.2047C1032.07 18.2047 1031.56 18.1003 1031.18 17.8915C1030.8 17.6784 1030.51 17.4376 1030.31 17.1692C1030.1 16.8964 1029.94 16.6706 1029.83 16.4916H1029.71V21.6819H1028.2ZM1029.68 13.091C1029.68 13.8325 1029.79 14.4866 1030.01 15.0534C1030.22 15.6159 1030.54 16.0569 1030.96 16.3765C1031.38 16.6919 1031.89 16.8496 1032.49 16.8496C1033.12 16.8496 1033.65 16.6834 1034.07 16.351C1034.5 16.0143 1034.82 15.5626 1035.03 14.9959C1035.25 14.4248 1035.36 13.7899 1035.36 13.091C1035.36 12.4007 1035.25 11.7785 1035.04 11.2246C1034.83 10.6663 1034.51 10.2253 1034.08 9.9014C1033.66 9.57328 1033.13 9.40921 1032.49 9.40921C1031.88 9.40921 1031.36 9.56475 1030.95 9.87583C1030.53 10.1827 1030.21 10.613 1030 11.167C1029.79 11.7167 1029.68 12.3581 1029.68 13.091ZM1040.67 12.0939V18.0001H1039.17V4.90921H1040.67V9.71603H1040.8C1041.03 9.20893 1041.38 8.80623 1041.84 8.50793C1042.3 8.20538 1042.92 8.0541 1043.69 8.0541C1044.36 8.0541 1044.95 8.18833 1045.45 8.4568C1045.95 8.721 1046.34 9.12796 1046.62 9.67768C1046.9 10.2231 1047.04 10.9177 1047.04 11.7615V18.0001H1045.53V11.8638C1045.53 11.0839 1045.33 10.4809 1044.93 10.0548C1044.52 9.62441 1043.97 9.40921 1043.26 9.40921C1042.76 9.40921 1042.32 9.51362 1041.93 9.72242C1041.54 9.93123 1041.23 10.2359 1041.01 10.6365C1040.79 11.0371 1040.67 11.5228 1040.67 12.0939ZM1049.8 18.0001V8.18194H1051.31V18.0001H1049.8ZM1050.57 6.54558C1050.27 6.54558 1050.02 6.44543 1049.81 6.24515C1049.6 6.04487 1049.49 5.8041 1049.49 5.52285C1049.49 5.2416 1049.6 5.00083 1049.81 4.80055C1050.02 4.60026 1050.27 4.50012 1050.57 4.50012C1050.86 4.50012 1051.11 4.60026 1051.32 4.80055C1051.54 5.00083 1051.64 5.2416 1051.64 5.52285C1051.64 5.8041 1051.54 6.04487 1051.32 6.24515C1051.11 6.44543 1050.86 6.54558 1050.57 6.54558ZM1058.06 18.2047C1057.14 18.2047 1056.35 17.9873 1055.68 17.5527C1055.02 17.118 1054.51 16.5193 1054.15 15.7565C1053.79 14.9937 1053.61 14.1223 1053.61 13.1422C1053.61 12.145 1053.8 11.265 1054.16 10.5023C1054.53 9.73521 1055.05 9.13649 1055.71 8.70609C1056.37 8.27143 1057.15 8.0541 1058.04 8.0541C1058.73 8.0541 1059.35 8.18194 1059.9 8.43762C1060.46 8.6933 1060.91 9.05126 1061.26 9.51149C1061.62 9.97171 1061.84 10.5086 1061.92 11.1223H1060.41C1060.3 10.6748 1060.04 10.2785 1059.65 9.93336C1059.25 9.58393 1058.73 9.40921 1058.06 9.40921C1057.47 9.40921 1056.96 9.56262 1056.51 9.86944C1056.08 10.172 1055.73 10.6003 1055.49 11.1542C1055.24 11.704 1055.12 12.3496 1055.12 13.091C1055.12 13.8496 1055.24 14.5101 1055.48 15.0726C1055.72 15.6351 1056.06 16.0719 1056.5 16.3829C1056.94 16.694 1057.46 16.8496 1058.06 16.8496C1058.45 16.8496 1058.81 16.7814 1059.13 16.645C1059.45 16.5086 1059.72 16.3126 1059.94 16.0569C1060.16 15.8013 1060.32 15.4944 1060.41 15.1365H1061.92C1061.84 15.716 1061.63 16.238 1061.29 16.7025C1060.96 17.1628 1060.52 17.5292 1059.97 17.802C1059.42 18.0704 1058.79 18.2047 1058.06 18.2047ZM1002.23 40.0001H998.185V26.9092H1002.4C1003.67 26.9092 1004.76 27.1713 1005.66 27.6954C1006.57 28.2153 1007.26 28.9632 1007.74 29.939C1008.22 30.9106 1008.46 32.074 1008.46 33.4291C1008.46 34.7927 1008.22 35.9667 1007.74 36.9511C1007.25 37.9312 1006.54 38.6855 1005.61 39.2139C1004.68 39.738 1003.55 40.0001 1002.23 40.0001ZM999.771 38.5939H1002.12C1003.21 38.5939 1004.1 38.3851 1004.81 37.9675C1005.53 37.5498 1006.06 36.9554 1006.41 36.1841C1006.75 35.4128 1006.93 34.4944 1006.93 33.4291C1006.93 32.3723 1006.76 31.4625 1006.41 30.6997C1006.07 29.9327 1005.55 29.3446 1004.87 28.9355C1004.18 28.5221 1003.32 28.3155 1002.3 28.3155H999.771V38.5939ZM1015.03 40.2047C1014.09 40.2047 1013.27 39.9959 1012.59 39.5782C1011.9 39.1564 1011.38 38.5683 1011.01 37.814C1010.64 37.0555 1010.46 36.1734 1010.46 35.1677C1010.46 34.1621 1010.64 33.2757 1011.01 32.5086C1011.38 31.7373 1011.89 31.1365 1012.55 30.7061C1013.22 30.2714 1013.99 30.0541 1014.88 30.0541C1015.39 30.0541 1015.9 30.1393 1016.4 30.3098C1016.89 30.4802 1017.35 30.7572 1017.76 31.1407C1018.17 31.52 1018.49 32.0228 1018.74 32.6493C1018.98 33.2757 1019.1 34.047 1019.1 34.9632V35.6024H1011.53V34.2984H1017.57C1017.57 33.7444 1017.46 33.2501 1017.23 32.8155C1017.02 32.3808 1016.71 32.0378 1016.3 31.7863C1015.9 31.5349 1015.43 31.4092 1014.88 31.4092C1014.28 31.4092 1013.76 31.5584 1013.32 31.8567C1012.89 32.1507 1012.55 32.5342 1012.32 33.0072C1012.08 33.4802 1011.97 33.9873 1011.97 34.5285V35.3978C1011.97 36.1393 1012.09 36.7679 1012.35 37.2835C1012.61 37.7949 1012.97 38.1848 1013.43 38.4532C1013.89 38.7175 1014.43 38.8496 1015.03 38.8496C1015.43 38.8496 1015.79 38.7942 1016.11 38.6834C1016.43 38.5683 1016.71 38.3978 1016.95 38.172C1017.18 37.9419 1017.36 37.6564 1017.49 37.3155L1018.95 37.7246C1018.79 38.2189 1018.54 38.6535 1018.17 39.0285C1017.81 39.3993 1017.36 39.689 1016.83 39.8978C1016.3 40.1024 1015.7 40.2047 1015.03 40.2047ZM1028.35 32.3808L1026.99 32.7643C1026.91 32.5385 1026.78 32.319 1026.62 32.1059C1026.46 31.8886 1026.23 31.7096 1025.95 31.569C1025.67 31.4284 1025.31 31.3581 1024.87 31.3581C1024.27 31.3581 1023.77 31.4966 1023.37 31.7736C1022.97 32.0463 1022.78 32.3936 1022.78 32.8155C1022.78 33.1905 1022.91 33.4866 1023.18 33.704C1023.46 33.9213 1023.88 34.1024 1024.46 34.2473L1025.92 34.6052C1026.8 34.8183 1027.45 35.1443 1027.88 35.5832C1028.31 36.0179 1028.53 36.5782 1028.53 37.2643C1028.53 37.8268 1028.37 38.3297 1028.04 38.7728C1027.72 39.216 1027.28 39.5655 1026.7 39.8211C1026.12 40.0768 1025.46 40.2047 1024.69 40.2047C1023.69 40.2047 1022.86 39.9873 1022.21 39.5527C1021.55 39.118 1021.13 38.4831 1020.96 37.6478L1022.39 37.2899C1022.53 37.8183 1022.79 38.2146 1023.17 38.4788C1023.55 38.743 1024.05 38.8751 1024.67 38.8751C1025.37 38.8751 1025.93 38.726 1026.34 38.4277C1026.76 38.1251 1026.97 37.7629 1026.97 37.341C1026.97 37.0001 1026.85 36.7146 1026.61 36.4845C1026.37 36.2501 1026.01 36.0754 1025.51 35.9603L1023.87 35.5768C1022.98 35.3638 1022.32 35.0335 1021.89 34.5861C1021.48 34.1344 1021.27 33.5697 1021.27 32.8922C1021.27 32.3382 1021.42 31.8481 1021.73 31.422C1022.05 30.9959 1022.48 30.6613 1023.02 30.4184C1023.56 30.1755 1024.18 30.0541 1024.87 30.0541C1025.84 30.0541 1026.61 30.2672 1027.16 30.6933C1027.72 31.1194 1028.12 31.6819 1028.35 32.3808ZM1030.8 40.0001V30.1819H1032.31V40.0001H1030.8ZM1031.57 28.5456C1031.27 28.5456 1031.02 28.4454 1030.81 28.2452C1030.6 28.0449 1030.49 27.8041 1030.49 27.5228C1030.49 27.2416 1030.6 27.0008 1030.81 26.8005C1031.02 26.6003 1031.27 26.5001 1031.57 26.5001C1031.86 26.5001 1032.11 26.6003 1032.32 26.8005C1032.53 27.0008 1032.64 27.2416 1032.64 27.5228C1032.64 27.8041 1032.53 28.0449 1032.32 28.2452C1032.11 28.4454 1031.86 28.5456 1031.57 28.5456ZM1039.03 43.8865C1038.3 43.8865 1037.68 43.7927 1037.15 43.6052C1036.63 43.422 1036.19 43.1791 1035.84 42.8765C1035.5 42.5782 1035.22 42.2586 1035.02 41.9177L1036.22 41.074C1036.36 41.253 1036.53 41.4575 1036.74 41.6876C1036.95 41.922 1037.23 42.1244 1037.6 42.2949C1037.96 42.4696 1038.44 42.5569 1039.03 42.5569C1039.83 42.5569 1040.48 42.3652 1041 41.9817C1041.51 41.5981 1041.77 40.9973 1041.77 40.1791V38.1848H1041.64C1041.53 38.3638 1041.37 38.5853 1041.17 38.8496C1040.97 39.1095 1040.68 39.3417 1040.3 39.5463C1039.92 39.7466 1039.42 39.8467 1038.78 39.8467C1037.99 39.8467 1037.27 39.6592 1036.64 39.2842C1036.02 38.9092 1035.52 38.3638 1035.15 37.6478C1034.79 36.9319 1034.61 36.0626 1034.61 35.0399C1034.61 34.0342 1034.79 33.1585 1035.14 32.4128C1035.49 31.6628 1035.99 31.0832 1036.62 30.6741C1037.25 30.2608 1037.98 30.0541 1038.8 30.0541C1039.44 30.0541 1039.95 30.1606 1040.32 30.3737C1040.7 30.5825 1040.99 30.8211 1041.19 31.0896C1041.4 31.3538 1041.56 31.5711 1041.67 31.7416H1041.82V30.1819H1043.28V40.2814C1043.28 41.1251 1043.09 41.8112 1042.7 42.3396C1042.32 42.8723 1041.81 43.2622 1041.17 43.5094C1040.53 43.7608 1039.82 43.8865 1039.03 43.8865ZM1038.98 38.4916C1039.59 38.4916 1040.1 38.3531 1040.52 38.0761C1040.93 37.7991 1041.25 37.4007 1041.47 36.8808C1041.69 36.3609 1041.8 35.7388 1041.8 35.0143C1041.8 34.3069 1041.69 33.6827 1041.48 33.1415C1041.26 32.6003 1040.95 32.1763 1040.53 31.8694C1040.11 31.5626 1039.6 31.4092 1038.98 31.4092C1038.34 31.4092 1037.81 31.5711 1037.38 31.895C1036.96 32.2189 1036.65 32.6535 1036.43 33.199C1036.22 33.7444 1036.12 34.3496 1036.12 35.0143C1036.12 35.6961 1036.23 36.2991 1036.44 36.8233C1036.66 37.3432 1036.98 37.7523 1037.4 38.0505C1037.82 38.3446 1038.35 38.4916 1038.98 38.4916ZM1047.55 34.0939V40.0001H1046.04V30.1819H1047.5V31.716H1047.62C1047.85 31.2175 1048.2 30.8169 1048.67 30.5143C1049.14 30.2075 1049.75 30.0541 1050.49 30.0541C1051.15 30.0541 1051.73 30.1905 1052.23 30.4632C1052.73 30.7317 1053.12 31.1407 1053.4 31.6905C1053.67 32.2359 1053.81 32.9263 1053.81 33.7615V40.0001H1052.3V33.8638C1052.3 33.0925 1052.1 32.4916 1051.7 32.0612C1051.3 31.6265 1050.75 31.4092 1050.05 31.4092C1049.57 31.4092 1049.14 31.5136 1048.76 31.7224C1048.39 31.9312 1048.09 32.2359 1047.87 32.6365C1047.66 33.0371 1047.55 33.5228 1047.55 34.0939Z" fill="#FAFAFA"/>
<path d="M1198.59 4.90921H1200.48L1204.93 15.7757H1205.08L1209.53 4.90921H1211.42V18.0001H1209.94V8.0541H1209.81L1205.72 18.0001H1204.29L1200.2 8.0541H1200.07V18.0001H1198.59V4.90921ZM1218.38 18.2047C1217.5 18.2047 1216.72 17.9937 1216.05 17.5719C1215.39 17.15 1214.87 16.5598 1214.49 15.8013C1214.12 15.0427 1213.93 14.1564 1213.93 13.1422C1213.93 12.1194 1214.12 11.2267 1214.49 10.4639C1214.87 9.70112 1215.39 9.10879 1216.05 8.68691C1216.72 8.26504 1217.5 8.0541 1218.38 8.0541C1219.27 8.0541 1220.04 8.26504 1220.71 8.68691C1221.38 9.10879 1221.9 9.70112 1222.27 10.4639C1222.64 11.2267 1222.83 12.1194 1222.83 13.1422C1222.83 14.1564 1222.64 15.0427 1222.27 15.8013C1221.9 16.5598 1221.38 17.15 1220.71 17.5719C1220.04 17.9937 1219.27 18.2047 1218.38 18.2047ZM1218.38 16.8496C1219.06 16.8496 1219.61 16.677 1220.04 16.3318C1220.48 15.9866 1220.8 15.5328 1221.01 14.9703C1221.22 14.4078 1221.32 13.7984 1221.32 13.1422C1221.32 12.4859 1221.22 11.8744 1221.01 11.3077C1220.8 10.7409 1220.48 10.2828 1220.04 9.93336C1219.61 9.58393 1219.06 9.40921 1218.38 9.40921C1217.71 9.40921 1217.16 9.58393 1216.72 9.93336C1216.29 10.2828 1215.96 10.7409 1215.76 11.3077C1215.55 11.8744 1215.44 12.4859 1215.44 13.1422C1215.44 13.7984 1215.55 14.4078 1215.76 14.9703C1215.96 15.5328 1216.29 15.9866 1216.72 16.3318C1217.16 16.677 1217.71 16.8496 1218.38 16.8496ZM1229.4 8.18194V9.46035H1224.32V8.18194H1229.4ZM1225.8 5.82967H1227.31V15.1876C1227.31 15.6138 1227.37 15.9334 1227.49 16.1464C1227.62 16.3552 1227.78 16.4959 1227.98 16.5683C1228.18 16.6365 1228.39 16.6706 1228.61 16.6706C1228.78 16.6706 1228.91 16.6621 1229.02 16.645C1229.13 16.6237 1229.21 16.6067 1229.28 16.5939L1229.58 17.949C1229.48 17.9873 1229.34 18.0257 1229.16 18.064C1228.97 18.1067 1228.74 18.128 1228.46 18.128C1228.03 18.128 1227.61 18.0363 1227.21 17.8531C1226.8 17.6699 1226.46 17.3907 1226.2 17.0157C1225.93 16.6407 1225.8 16.1677 1225.8 15.5967V5.82967ZM1231.67 18.0001V8.18194H1233.18V18.0001H1231.67ZM1232.44 6.54558C1232.15 6.54558 1231.89 6.44543 1231.68 6.24515C1231.47 6.04487 1231.37 5.8041 1231.37 5.52285C1231.37 5.2416 1231.47 5.00083 1231.68 4.80055C1231.89 4.60026 1232.15 4.50012 1232.44 4.50012C1232.73 4.50012 1232.99 4.60026 1233.19 4.80055C1233.41 5.00083 1233.51 5.2416 1233.51 5.52285C1233.51 5.8041 1233.41 6.04487 1233.19 6.24515C1232.99 6.44543 1232.73 6.54558 1232.44 6.54558ZM1239.93 18.2047C1239.05 18.2047 1238.27 17.9937 1237.6 17.5719C1236.94 17.15 1236.42 16.5598 1236.04 15.8013C1235.67 15.0427 1235.48 14.1564 1235.48 13.1422C1235.48 12.1194 1235.67 11.2267 1236.04 10.4639C1236.42 9.70112 1236.94 9.10879 1237.6 8.68691C1238.27 8.26504 1239.05 8.0541 1239.93 8.0541C1240.82 8.0541 1241.6 8.26504 1242.26 8.68691C1242.93 9.10879 1243.45 9.70112 1243.82 10.4639C1244.2 11.2267 1244.38 12.1194 1244.38 13.1422C1244.38 14.1564 1244.2 15.0427 1243.82 15.8013C1243.45 16.5598 1242.93 17.15 1242.26 17.5719C1241.6 17.9937 1240.82 18.2047 1239.93 18.2047ZM1239.93 16.8496C1240.61 16.8496 1241.16 16.677 1241.6 16.3318C1242.03 15.9866 1242.35 15.5328 1242.56 14.9703C1242.77 14.4078 1242.87 13.7984 1242.87 13.1422C1242.87 12.4859 1242.77 11.8744 1242.56 11.3077C1242.35 10.7409 1242.03 10.2828 1241.6 9.93336C1241.16 9.58393 1240.61 9.40921 1239.93 9.40921C1239.26 9.40921 1238.71 9.58393 1238.27 9.93336C1237.84 10.2828 1237.52 10.7409 1237.31 11.3077C1237.1 11.8744 1236.99 12.4859 1236.99 13.1422C1236.99 13.7984 1237.1 14.4078 1237.31 14.9703C1237.52 15.5328 1237.84 15.9866 1238.27 16.3318C1238.71 16.677 1239.26 16.8496 1239.93 16.8496ZM1248.19 12.0939V18.0001H1246.69V8.18194H1248.14V9.71603H1248.27C1248.5 9.21745 1248.85 8.81688 1249.32 8.51433C1249.79 8.20751 1250.39 8.0541 1251.13 8.0541C1251.8 8.0541 1252.38 8.19046 1252.88 8.46319C1253.38 8.73166 1253.77 9.14075 1254.04 9.69046C1254.32 10.2359 1254.46 10.9263 1254.46 11.7615V18.0001H1252.95V11.8638C1252.95 11.0925 1252.75 10.4916 1252.35 10.0612C1251.95 9.62654 1251.4 9.40921 1250.7 9.40921C1250.22 9.40921 1249.79 9.51362 1249.41 9.72242C1249.03 9.93123 1248.74 10.2359 1248.52 10.6365C1248.3 11.0371 1248.19 11.5228 1248.19 12.0939ZM1202.62 40.0001H1198.59V26.9092H1202.8C1204.07 26.9092 1205.16 27.1713 1206.06 27.6954C1206.97 28.2153 1207.66 28.9632 1208.14 29.939C1208.62 30.9106 1208.86 32.074 1208.86 33.4291C1208.86 34.7927 1208.62 35.9667 1208.13 36.9511C1207.65 37.9312 1206.94 38.6855 1206.01 39.2139C1205.08 39.738 1203.95 40.0001 1202.62 40.0001ZM1200.17 38.5939H1202.52C1203.61 38.5939 1204.5 38.3851 1205.21 37.9675C1205.93 37.5498 1206.46 36.9554 1206.81 36.1841C1207.15 35.4128 1207.33 34.4944 1207.33 33.4291C1207.33 32.3723 1207.16 31.4625 1206.81 30.6997C1206.47 29.9327 1205.95 29.3446 1205.26 28.9355C1204.58 28.5221 1203.72 28.3155 1202.7 28.3155H1200.17V38.5939ZM1215.43 40.2047C1214.49 40.2047 1213.67 39.9959 1212.99 39.5782C1212.3 39.1564 1211.78 38.5683 1211.41 37.814C1211.04 37.0555 1210.86 36.1734 1210.86 35.1677C1210.86 34.1621 1211.04 33.2757 1211.41 32.5086C1211.78 31.7373 1212.29 31.1365 1212.95 30.7061C1213.62 30.2714 1214.39 30.0541 1215.28 30.0541C1215.79 30.0541 1216.3 30.1393 1216.8 30.3098C1217.29 30.4802 1217.75 30.7572 1218.16 31.1407C1218.57 31.52 1218.89 32.0228 1219.14 32.6493C1219.38 33.2757 1219.5 34.047 1219.5 34.9632V35.6024H1211.93V34.2984H1217.97C1217.97 33.7444 1217.86 33.2501 1217.63 32.8155C1217.42 32.3808 1217.11 32.0378 1216.7 31.7863C1216.3 31.5349 1215.83 31.4092 1215.28 31.4092C1214.68 31.4092 1214.16 31.5584 1213.72 31.8567C1213.29 32.1507 1212.95 32.5342 1212.72 33.0072C1212.48 33.4802 1212.37 33.9873 1212.37 34.5285V35.3978C1212.37 36.1393 1212.49 36.7679 1212.75 37.2835C1213.01 37.7949 1213.37 38.1848 1213.83 38.4532C1214.29 38.7175 1214.83 38.8496 1215.43 38.8496C1215.83 38.8496 1216.19 38.7942 1216.51 38.6834C1216.83 38.5683 1217.11 38.3978 1217.35 38.172C1217.58 37.9419 1217.76 37.6564 1217.89 37.3155L1219.35 37.7246C1219.19 38.2189 1218.94 38.6535 1218.57 39.0285C1218.21 39.3993 1217.76 39.689 1217.23 39.8978C1216.7 40.1024 1216.1 40.2047 1215.43 40.2047ZM1228.75 32.3808L1227.39 32.7643C1227.31 32.5385 1227.18 32.319 1227.02 32.1059C1226.86 31.8886 1226.63 31.7096 1226.35 31.569C1226.07 31.4284 1225.71 31.3581 1225.27 31.3581C1224.67 31.3581 1224.17 31.4966 1223.77 31.7736C1223.37 32.0463 1223.18 32.3936 1223.18 32.8155C1223.18 33.1905 1223.31 33.4866 1223.58 33.704C1223.86 33.9213 1224.28 34.1024 1224.86 34.2473L1226.32 34.6052C1227.2 34.8183 1227.85 35.1443 1228.28 35.5832C1228.71 36.0179 1228.93 36.5782 1228.93 37.2643C1228.93 37.8268 1228.77 38.3297 1228.44 38.7728C1228.12 39.216 1227.68 39.5655 1227.1 39.8211C1226.52 40.0768 1225.86 40.2047 1225.09 40.2047C1224.09 40.2047 1223.26 39.9873 1222.61 39.5527C1221.95 39.118 1221.53 38.4831 1221.36 37.6478L1222.79 37.2899C1222.93 37.8183 1223.19 38.2146 1223.57 38.4788C1223.95 38.743 1224.45 38.8751 1225.07 38.8751C1225.77 38.8751 1226.33 38.726 1226.74 38.4277C1227.16 38.1251 1227.37 37.7629 1227.37 37.341C1227.37 37.0001 1227.25 36.7146 1227.01 36.4845C1226.77 36.2501 1226.41 36.0754 1225.91 35.9603L1224.27 35.5768C1223.38 35.3638 1222.72 35.0335 1222.29 34.5861C1221.88 34.1344 1221.67 33.5697 1221.67 32.8922C1221.67 32.3382 1221.82 31.8481 1222.13 31.422C1222.45 30.9959 1222.88 30.6613 1223.42 30.4184C1223.96 30.1755 1224.58 30.0541 1225.27 30.0541C1226.24 30.0541 1227.01 30.2672 1227.56 30.6933C1228.12 31.1194 1228.51 31.6819 1228.75 32.3808ZM1231.2 40.0001V30.1819H1232.71V40.0001H1231.2ZM1231.97 28.5456C1231.67 28.5456 1231.42 28.4454 1231.21 28.2452C1231 28.0449 1230.89 27.8041 1230.89 27.5228C1230.89 27.2416 1231 27.0008 1231.21 26.8005C1231.42 26.6003 1231.67 26.5001 1231.97 26.5001C1232.26 26.5001 1232.51 26.6003 1232.72 26.8005C1232.93 27.0008 1233.04 27.2416 1233.04 27.5228C1233.04 27.8041 1232.93 28.0449 1232.72 28.2452C1232.51 28.4454 1232.26 28.5456 1231.97 28.5456ZM1239.43 43.8865C1238.7 43.8865 1238.08 43.7927 1237.55 43.6052C1237.03 43.422 1236.59 43.1791 1236.24 42.8765C1235.9 42.5782 1235.62 42.2586 1235.42 41.9177L1236.62 41.074C1236.76 41.253 1236.93 41.4575 1237.14 41.6876C1237.35 41.922 1237.63 42.1244 1238 42.2949C1238.36 42.4696 1238.84 42.5569 1239.43 42.5569C1240.23 42.5569 1240.88 42.3652 1241.4 41.9817C1241.91 41.5981 1242.17 40.9973 1242.17 40.1791V38.1848H1242.04C1241.93 38.3638 1241.77 38.5853 1241.57 38.8496C1241.37 39.1095 1241.08 39.3417 1240.7 39.5463C1240.32 39.7466 1239.82 39.8467 1239.18 39.8467C1238.39 39.8467 1237.67 39.6592 1237.04 39.2842C1236.42 38.9092 1235.92 38.3638 1235.55 37.6478C1235.19 36.9319 1235.01 36.0626 1235.01 35.0399C1235.01 34.0342 1235.19 33.1585 1235.54 32.4128C1235.89 31.6628 1236.39 31.0832 1237.02 30.6741C1237.65 30.2608 1238.38 30.0541 1239.2 30.0541C1239.84 30.0541 1240.35 30.1606 1240.72 30.3737C1241.1 30.5825 1241.39 30.8211 1241.59 31.0896C1241.8 31.3538 1241.96 31.5711 1242.07 31.7416H1242.22V30.1819H1243.68V40.2814C1243.68 41.1251 1243.49 41.8112 1243.1 42.3396C1242.72 42.8723 1242.21 43.2622 1241.57 43.5094C1240.93 43.7608 1240.22 43.8865 1239.43 43.8865ZM1239.38 38.4916C1239.99 38.4916 1240.5 38.3531 1240.92 38.0761C1241.33 37.7991 1241.65 37.4007 1241.87 36.8808C1242.09 36.3609 1242.19 35.7388 1242.19 35.0143C1242.19 34.3069 1242.09 33.6827 1241.88 33.1415C1241.66 32.6003 1241.35 32.1763 1240.93 31.8694C1240.51 31.5626 1240 31.4092 1239.38 31.4092C1238.74 31.4092 1238.21 31.5711 1237.78 31.895C1237.36 32.2189 1237.05 32.6535 1236.83 33.199C1236.62 33.7444 1236.52 34.3496 1236.52 35.0143C1236.52 35.6961 1236.63 36.2991 1236.84 36.8233C1237.06 37.3432 1237.38 37.7523 1237.8 38.0505C1238.22 38.3446 1238.75 38.4916 1239.38 38.4916ZM1247.95 34.0939V40.0001H1246.44V30.1819H1247.9V31.716H1248.02C1248.25 31.2175 1248.6 30.8169 1249.07 30.5143C1249.54 30.2075 1250.15 30.0541 1250.89 30.0541C1251.55 30.0541 1252.13 30.1905 1252.63 30.4632C1253.13 30.7317 1253.52 31.1407 1253.8 31.6905C1254.07 32.2359 1254.21 32.9263 1254.21 33.7615V40.0001H1252.7V33.8638C1252.7 33.0925 1252.5 32.4916 1252.1 32.0612C1251.7 31.6265 1251.15 31.4092 1250.45 31.4092C1249.97 31.4092 1249.54 31.5136 1249.16 31.7224C1248.79 31.9312 1248.49 32.2359 1248.27 32.6365C1248.06 33.0371 1247.95 33.5228 1247.95 34.0939Z" fill="#FAFAFA"/>
<line x1="194" y1="127.5" x2="1256" y2="127.5" stroke="white" stroke-opacity="0.14"/>
<line x1="194" y1="195.5" x2="1256" y2="195.5" stroke="white" stroke-opacity="0.14"/>
<path d="M194 196C492 196 472 88 725 88" stroke="white"/>
<path d="M1256 196C958 196 978 88 725 88" stroke="white"/>
<path d="M725 88C472 88 492 196 194 196H725V88Z" fill="url(#paint0_linear_993_73)"/>
<path d="M725 88C978 88 958 196 1256 196H725V88Z" fill="url(#paint1_linear_993_73)"/>
<defs>
<linearGradient id="paint0_linear_993_73" x1="459.5" y1="88" x2="459.5" y2="196" gradientUnits="userSpaceOnUse">
<stop stop-color="white" stop-opacity="0.18"/>
<stop offset="1" stop-color="white" stop-opacity="0"/>
</linearGradient>
<linearGradient id="paint1_linear_993_73" x1="990.5" y1="88" x2="990.5" y2="196" gradientUnits="userSpaceOnUse">
<stop stop-color="white" stop-opacity="0.18"/>
<stop offset="1" stop-color="white" stop-opacity="0"/>
</linearGradient>
</defs>
</svg>
