<svg width="156" height="79" viewBox="0 0 156 79" fill="none" xmlns="http://www.w3.org/2000/svg">
<path d="M127.607 41.6989L127.632 28.6335H129.217L141.797 13.7273H154.3L137.399 33.4659H134.817L127.607 41.6989ZM117.737 53V0.636353H128.629V53H117.737ZM142.283 53L130.726 35.8949L137.987 28.1989L155.041 53H142.283Z" fill="#FAFAFA"/>
<path d="M105.19 0.636353V53H94.1186V11.1449H93.8118L81.8203 18.6619V8.84374L94.7834 0.636353H105.19Z" fill="#FAFAFA"/>
<path d="M69.9631 0.636353V53H58.892V11.1449H58.5852L46.5938 18.6619V8.84374L59.5568 0.636353H69.9631Z" fill="#FAFAFA"/>
<path d="M13.892 45.0227V8.81818H23.0454V45.0227H13.892ZM0.366455 31.4972V22.3437H36.571V31.4972H0.366455Z" fill="#FAFAFA"/>
<path d="M154.887 68.7542L152.962 69.0952C152.882 68.8489 152.754 68.6146 152.579 68.392C152.408 68.1695 152.176 67.9872 151.883 67.8452C151.589 67.7031 151.222 67.6321 150.782 67.6321C150.181 67.6321 149.679 67.767 149.276 68.0369C148.874 68.3021 148.673 68.6453 148.673 69.0667C148.673 69.4313 148.808 69.7249 149.078 69.9474C149.347 70.17 149.783 70.3523 150.384 70.4943L152.117 70.892C153.121 71.124 153.869 71.4815 154.362 71.9645C154.854 72.4474 155.1 73.0748 155.1 73.8466C155.1 74.5 154.911 75.0824 154.532 75.5937C154.158 76.1004 153.635 76.4981 152.962 76.7869C152.295 77.0757 151.521 77.2202 150.64 77.2202C149.418 77.2202 148.422 76.9597 147.65 76.4389C146.878 75.9133 146.405 75.1676 146.229 74.2017L148.282 73.8892C148.41 74.4242 148.673 74.8291 149.07 75.1037C149.468 75.3736 149.987 75.5085 150.626 75.5085C151.322 75.5085 151.878 75.3641 152.295 75.0753C152.712 74.7817 152.92 74.4242 152.92 74.0028C152.92 73.6619 152.792 73.3755 152.536 73.1435C152.285 72.9114 151.899 72.7363 151.379 72.6179L149.532 72.2131C148.514 71.981 147.761 71.6117 147.274 71.1051C146.791 70.5985 146.549 69.9569 146.549 69.1804C146.549 68.5364 146.729 67.973 147.089 67.49C147.449 67.0071 147.946 66.6307 148.58 66.3608C149.215 66.0862 149.942 65.9489 150.761 65.9489C151.94 65.9489 152.868 66.2045 153.545 66.7159C154.222 67.2225 154.669 67.902 154.887 68.7542Z" fill="#FAFAFA"/>
<path d="M139.037 77V66.0909H141.089V67.8239H141.203C141.402 67.2367 141.752 66.7751 142.254 66.4389C142.761 66.098 143.333 65.9276 143.973 65.9276C144.105 65.9276 144.262 65.9323 144.441 65.9418C144.626 65.9512 144.771 65.9631 144.875 65.9773V68.0085C144.789 67.9848 144.638 67.9588 144.42 67.9304C144.202 67.8972 143.985 67.8807 143.767 67.8807C143.265 67.8807 142.817 67.9872 142.424 68.2003C142.036 68.4086 141.728 68.6998 141.501 69.0739C141.274 69.4432 141.16 69.8646 141.16 70.3381V77H139.037Z" fill="#FAFAFA"/>
<path d="M132 77.2202C130.925 77.2202 130 76.9905 129.223 76.5312C128.451 76.0672 127.855 75.4162 127.433 74.5781C127.017 73.7353 126.808 72.7481 126.808 71.6165C126.808 70.499 127.017 69.5142 127.433 68.6619C127.855 67.8096 128.442 67.1444 129.195 66.6662C129.952 66.188 130.838 65.9489 131.851 65.9489C132.466 65.9489 133.063 66.0507 133.641 66.2542C134.218 66.4578 134.737 66.7775 135.196 67.2131C135.655 67.6487 136.018 68.2145 136.283 68.9105C136.548 69.6018 136.681 70.4422 136.681 71.4318V72.1846H128.009V70.5937H134.6C134.6 70.035 134.486 69.5402 134.259 69.1094C134.031 68.6738 133.712 68.3305 133.3 68.0795C132.893 67.8286 132.414 67.7031 131.865 67.7031C131.269 67.7031 130.748 67.8499 130.303 68.1435C129.862 68.4323 129.521 68.8111 129.28 69.2798C129.043 69.7438 128.925 70.2481 128.925 70.7926V72.0355C128.925 72.7647 129.053 73.3849 129.308 73.8963C129.569 74.4077 129.931 74.7983 130.395 75.0682C130.859 75.3333 131.401 75.4659 132.021 75.4659C132.424 75.4659 132.791 75.4091 133.122 75.2954C133.454 75.1771 133.74 75.0019 133.982 74.7699C134.223 74.5379 134.408 74.2514 134.536 73.9105L136.546 74.2727C136.385 74.8646 136.096 75.383 135.679 75.8281C135.267 76.2685 134.749 76.6117 134.124 76.8579C133.503 77.0994 132.796 77.2202 132 77.2202Z" fill="#FAFAFA"/>
<path d="M124.75 68.7542L122.826 69.0952C122.745 68.8489 122.617 68.6146 122.442 68.392C122.272 68.1695 122.04 67.9872 121.746 67.8452C121.453 67.7031 121.086 67.6321 120.645 67.6321C120.044 67.6321 119.542 67.767 119.14 68.0369C118.737 68.3021 118.536 68.6453 118.536 69.0667C118.536 69.4313 118.671 69.7249 118.941 69.9474C119.211 70.17 119.646 70.3523 120.248 70.4943L121.981 70.892C122.984 71.124 123.732 71.4815 124.225 71.9645C124.717 72.4474 124.964 73.0748 124.964 73.8466C124.964 74.5 124.774 75.0824 124.395 75.5937C124.021 76.1004 123.498 76.4981 122.826 76.7869C122.158 77.0757 121.384 77.2202 120.503 77.2202C119.282 77.2202 118.285 76.9597 117.513 76.4389C116.741 75.9133 116.268 75.1676 116.093 74.2017L118.145 73.8892C118.273 74.4242 118.536 74.8291 118.934 75.1037C119.331 75.3736 119.85 75.5085 120.489 75.5085C121.185 75.5085 121.741 75.3641 122.158 75.0753C122.575 74.7817 122.783 74.4242 122.783 74.0028C122.783 73.6619 122.655 73.3755 122.4 73.1435C122.149 72.9114 121.763 72.7363 121.242 72.6179L119.395 72.2131C118.377 71.981 117.624 71.6117 117.137 71.1051C116.654 70.5985 116.412 69.9569 116.412 69.1804C116.412 68.5364 116.592 67.973 116.952 67.49C117.312 67.0071 117.809 66.6307 118.444 66.3608C119.078 66.0862 119.805 65.9489 120.624 65.9489C121.803 65.9489 122.731 66.2045 123.408 66.7159C124.085 67.2225 124.533 67.902 124.75 68.7542Z" fill="#FAFAFA"/>
<path d="M111.354 62.4545H113.555V72.0213C113.555 73.0393 113.316 73.9413 112.838 74.7273C112.36 75.5085 111.688 76.124 110.821 76.5738C109.955 77.0189 108.939 77.2415 107.774 77.2415C106.614 77.2415 105.601 77.0189 104.734 76.5738C103.868 76.124 103.196 75.5085 102.717 74.7273C102.239 73.9413 102 73.0393 102 72.0213V62.4545H104.195V71.8437C104.195 72.5019 104.339 73.0866 104.628 73.598C104.921 74.1094 105.336 74.5118 105.871 74.8054C106.406 75.0942 107.04 75.2386 107.774 75.2386C108.513 75.2386 109.15 75.0942 109.685 74.8054C110.224 74.5118 110.636 74.1094 110.92 73.598C111.209 73.0866 111.354 72.5019 111.354 71.8437V62.4545Z" fill="#FAFAFA"/>
<path d="M91.8645 76.1667C93.1324 76.1667 94.1666 75.1325 94.1666 73.8646C94.1666 71.6192 92.3391 69.7917 90.0937 69.7917H86.9062C84.6608 69.7917 82.8333 71.6192 82.8333 73.8646C82.8333 75.1325 83.8674 76.1667 85.1353 76.1667H91.8645Z" fill="white"/>
<path d="M85.6665 66.25C85.6665 67.8154 86.9344 69.0834 88.4998 69.0834C90.0653 69.0834 91.3332 67.8154 91.3332 66.25C91.3332 64.6846 90.0653 63.4167 88.4998 63.4167C86.9344 63.4167 85.6665 64.6846 85.6665 66.25Z" fill="white"/>
</svg>
