<svg width="208" height="148" viewBox="0 0 208 148" fill="none" xmlns="http://www.w3.org/2000/svg">
<path d="M1.13778 16V2.90909H6.30256C7.29545 2.90909 8.14134 3.09872 8.8402 3.47798C9.53906 3.85298 10.0717 4.375 10.4382 5.04403C10.8089 5.70881 10.9943 6.47585 10.9943 7.34517C10.9943 8.21449 10.8068 8.98153 10.4318 9.64631C10.0568 10.3111 9.51349 10.8288 8.80185 11.1996C8.09446 11.5703 7.23793 11.7557 6.23224 11.7557H2.94034V9.53764H5.7848C6.31747 9.53764 6.75639 9.44602 7.10156 9.26278C7.45099 9.07528 7.71094 8.81747 7.88139 8.48935C8.05611 8.15696 8.14347 7.77557 8.14347 7.34517C8.14347 6.91051 8.05611 6.53125 7.88139 6.20739C7.71094 5.87926 7.45099 5.62571 7.10156 5.44673C6.75213 5.26349 6.30895 5.17188 5.77202 5.17188H3.90554V16H1.13778ZM17.0188 16.1918C16.0259 16.1918 15.1673 15.9808 14.4428 15.5589C13.7227 15.1328 13.1665 14.5405 12.7745 13.782C12.3825 13.0192 12.1864 12.1349 12.1864 11.1293C12.1864 10.1151 12.3825 9.22869 12.7745 8.47017C13.1665 7.70739 13.7227 7.11506 14.4428 6.69318C15.1673 6.26705 16.0259 6.05398 17.0188 6.05398C18.0117 6.05398 18.8683 6.26705 19.5884 6.69318C20.3129 7.11506 20.8711 7.70739 21.2631 8.47017C21.6552 9.22869 21.8512 10.1151 21.8512 11.1293C21.8512 12.1349 21.6552 13.0192 21.2631 13.782C20.8711 14.5405 20.3129 15.1328 19.5884 15.5589C18.8683 15.9808 18.0117 16.1918 17.0188 16.1918ZM17.0316 14.0824C17.4833 14.0824 17.8604 13.9545 18.163 13.6989C18.4656 13.4389 18.6935 13.0852 18.8469 12.6378C19.0046 12.1903 19.0835 11.6811 19.0835 11.1101C19.0835 10.5391 19.0046 10.0298 18.8469 9.58239C18.6935 9.13494 18.4656 8.78125 18.163 8.52131C17.8604 8.26136 17.4833 8.13139 17.0316 8.13139C16.5756 8.13139 16.1921 8.26136 15.881 8.52131C15.5742 8.78125 15.342 9.13494 15.1843 9.58239C15.0309 10.0298 14.9542 10.5391 14.9542 11.1101C14.9542 11.6811 15.0309 12.1903 15.1843 12.6378C15.342 13.0852 15.5742 13.4389 15.881 13.6989C16.1921 13.9545 16.5756 14.0824 17.0316 14.0824ZM23.6218 19.6818V6.18182H26.3065V7.83097H26.4279C26.5472 7.56676 26.7198 7.2983 26.9457 7.02557C27.1758 6.74858 27.4741 6.51847 27.8406 6.33523C28.2113 6.14773 28.6715 6.05398 29.2212 6.05398C29.9371 6.05398 30.5977 6.24148 31.2028 6.61648C31.8079 6.98722 32.2915 7.54759 32.6538 8.29759C33.016 9.04332 33.1971 9.97869 33.1971 11.1037C33.1971 12.1989 33.0202 13.1236 32.6665 13.8778C32.3171 14.6278 31.8398 15.1967 31.2347 15.5845C30.6339 15.968 29.9606 16.1598 29.2148 16.1598C28.6864 16.1598 28.2369 16.0724 27.8661 15.8977C27.4996 15.723 27.1992 15.5036 26.9648 15.2393C26.7305 14.9709 26.5515 14.7003 26.4279 14.4276H26.3448V19.6818H23.6218ZM26.2873 11.0909C26.2873 11.6747 26.3683 12.1839 26.5302 12.6186C26.6921 13.0533 26.9265 13.392 27.2333 13.6349C27.5401 13.8736 27.913 13.9929 28.3519 13.9929C28.7951 13.9929 29.1701 13.8714 29.4769 13.6286C29.7837 13.3814 30.016 13.0405 30.1737 12.6058C30.3356 12.1669 30.4165 11.6619 30.4165 11.0909C30.4165 10.5241 30.3377 10.0256 30.18 9.59517C30.0224 9.16477 29.7901 8.82812 29.4833 8.58523C29.1765 8.34233 28.7994 8.22088 28.3519 8.22088C27.9087 8.22088 27.5337 8.33807 27.2269 8.57244C26.9244 8.80682 26.6921 9.1392 26.5302 9.5696C26.3683 10 26.2873 10.5071 26.2873 11.0909ZM35.0124 19.6818V6.18182H37.6971V7.83097H37.8185C37.9379 7.56676 38.1104 7.2983 38.3363 7.02557C38.5664 6.74858 38.8647 6.51847 39.2312 6.33523C39.6019 6.14773 40.0621 6.05398 40.6119 6.05398C41.3278 6.05398 41.9883 6.24148 42.5934 6.61648C43.1985 6.98722 43.6822 7.54759 44.0444 8.29759C44.4066 9.04332 44.5877 9.97869 44.5877 11.1037C44.5877 12.1989 44.4109 13.1236 44.0572 13.8778C43.7077 14.6278 43.2305 15.1967 42.6254 15.5845C42.0245 15.968 41.3512 16.1598 40.6055 16.1598C40.0771 16.1598 39.6275 16.0724 39.2567 15.8977C38.8903 15.723 38.5898 15.5036 38.3555 15.2393C38.1211 14.9709 37.9421 14.7003 37.8185 14.4276H37.7354V19.6818H35.0124ZM37.6779 11.0909C37.6779 11.6747 37.7589 12.1839 37.9208 12.6186C38.0827 13.0533 38.3171 13.392 38.6239 13.6349C38.9308 13.8736 39.3036 13.9929 39.7425 13.9929C40.1857 13.9929 40.5607 13.8714 40.8675 13.6286C41.1744 13.3814 41.4066 13.0405 41.5643 12.6058C41.7262 12.1669 41.8072 11.6619 41.8072 11.0909C41.8072 10.5241 41.7283 10.0256 41.5707 9.59517C41.413 9.16477 41.1808 8.82812 40.8739 8.58523C40.5671 8.34233 40.19 8.22088 39.7425 8.22088C39.2994 8.22088 38.9244 8.33807 38.6175 8.57244C38.315 8.80682 38.0827 9.1392 37.9208 9.5696C37.7589 10 37.6779 10.5071 37.6779 11.0909ZM46.4031 16V6.18182H49.1261V16H46.4031ZM47.771 4.91619C47.3661 4.91619 47.0188 4.78196 46.729 4.51349C46.4435 4.24077 46.3008 3.91477 46.3008 3.53551C46.3008 3.16051 46.4435 2.83878 46.729 2.57031C47.0188 2.29758 47.3661 2.16122 47.771 2.16122C48.1758 2.16122 48.521 2.29758 48.8065 2.57031C49.0962 2.83878 49.2411 3.16051 49.2411 3.53551C49.2411 3.91477 49.0962 4.24077 48.8065 4.51349C48.521 4.78196 48.1758 4.91619 47.771 4.91619ZM54.0304 10.3239V16H51.3074V6.18182H53.9025V7.91406H54.0176C54.2349 7.34304 54.5993 6.89133 55.1106 6.55895C55.622 6.2223 56.242 6.05398 56.9707 6.05398C57.6525 6.05398 58.247 6.20312 58.7541 6.50142C59.2612 6.79972 59.6554 7.22585 59.9366 7.77983C60.2179 8.32955 60.3585 8.9858 60.3585 9.74858V16H57.6355V10.2344C57.6397 9.63352 57.4863 9.16477 57.1752 8.82812C56.8642 8.48722 56.4359 8.31676 55.8904 8.31676C55.524 8.31676 55.2001 8.3956 54.9189 8.55327C54.6419 8.71094 54.4245 8.94105 54.2669 9.24361C54.1135 9.5419 54.0346 9.90199 54.0304 10.3239ZM70.6737 8.98153L68.1808 9.13494C68.1381 8.92187 68.0465 8.73011 67.9059 8.55966C67.7653 8.38494 67.5799 8.24645 67.3498 8.14418C67.1239 8.03764 66.8533 7.98438 66.538 7.98438C66.1161 7.98438 65.7603 8.07386 65.4705 8.25284C65.1808 8.42756 65.0359 8.66193 65.0359 8.95597C65.0359 9.19034 65.1296 9.38849 65.3171 9.55043C65.5046 9.71236 65.8263 9.84233 66.2823 9.94034L68.0593 10.2983C69.0138 10.4943 69.7255 10.8097 70.1942 11.2443C70.663 11.679 70.8974 12.25 70.8974 12.9574C70.8974 13.6009 70.7077 14.1655 70.3285 14.6513C69.9535 15.1371 69.4379 15.5163 68.7816 15.7891C68.1296 16.0575 67.3775 16.1918 66.5252 16.1918C65.2255 16.1918 64.19 15.9212 63.4187 15.38C62.6516 14.8345 62.2021 14.093 62.07 13.1555L64.7482 13.0149C64.8292 13.4112 65.0252 13.7138 65.3363 13.9226C65.6474 14.1271 66.0458 14.2294 66.5316 14.2294C67.0089 14.2294 67.3924 14.1378 67.6822 13.9545C67.9762 13.767 68.1254 13.5263 68.1296 13.2322C68.1254 12.9851 68.021 12.7827 67.8164 12.625C67.6119 12.4631 67.2965 12.3395 66.8704 12.2543L65.1701 11.9155C64.2113 11.7237 63.4975 11.3913 63.0288 10.9183C62.5643 10.4453 62.332 9.84233 62.332 9.10938C62.332 8.47869 62.5025 7.93537 62.8434 7.4794C63.1886 7.02344 63.6722 6.67188 64.2944 6.42472C64.9208 6.17756 65.6538 6.05398 66.4933 6.05398C67.7333 6.05398 68.7092 6.31605 69.4208 6.8402C70.1367 7.36435 70.5543 8.07812 70.6737 8.98153Z" fill="#FAFAFA"/>
<path d="M7.984 38.016H3.792L3.12 40H0.256L4.32 28.768H7.488L11.552 40H8.656L7.984 38.016ZM7.28 35.904L5.888 31.792L4.512 35.904H7.28ZM12.2449 35.52C12.2449 34.6027 12.4155 33.7973 12.7569 33.104C13.1089 32.4107 13.5835 31.8773 14.1809 31.504C14.7782 31.1307 15.4449 30.944 16.1809 30.944C16.8102 30.944 17.3595 31.072 17.8289 31.328C18.3089 31.584 18.6769 31.92 18.9329 32.336V31.072H21.6689V40H18.9329V38.736C18.6662 39.152 18.2929 39.488 17.8129 39.744C17.3435 40 16.7942 40.128 16.1649 40.128C15.4395 40.128 14.7782 39.9413 14.1809 39.568C13.5835 39.184 13.1089 38.6453 12.7569 37.952C12.4155 37.248 12.2449 36.4373 12.2449 35.52ZM18.9329 35.536C18.9329 34.8533 18.7409 34.3147 18.3569 33.92C17.9835 33.5253 17.5249 33.328 16.9809 33.328C16.4369 33.328 15.9729 33.5253 15.5889 33.92C15.2155 34.304 15.0289 34.8373 15.0289 35.52C15.0289 36.2027 15.2155 36.7467 15.5889 37.152C15.9729 37.5467 16.4369 37.744 16.9809 37.744C17.5249 37.744 17.9835 37.5467 18.3569 37.152C18.7409 36.7573 18.9329 36.2187 18.9329 35.536ZM33.8389 34.24C34.4895 34.3787 35.0122 34.704 35.4069 35.216C35.8015 35.7173 35.9989 36.2933 35.9989 36.944C35.9989 37.8827 35.6682 38.6293 35.0069 39.184C34.3562 39.728 33.4442 40 32.2709 40H27.0389V28.768H32.0949C33.2362 28.768 34.1269 29.0293 34.7669 29.552C35.4175 30.0747 35.7429 30.784 35.7429 31.68C35.7429 32.3413 35.5669 32.8907 35.2149 33.328C34.8735 33.7653 34.4149 34.0693 33.8389 34.24ZM29.7749 33.312H31.5669C32.0149 33.312 32.3562 33.216 32.5909 33.024C32.8362 32.8213 32.9589 32.528 32.9589 32.144C32.9589 31.76 32.8362 31.4667 32.5909 31.264C32.3562 31.0613 32.0149 30.96 31.5669 30.96H29.7749V33.312ZM31.7909 37.792C32.2495 37.792 32.6015 37.6907 32.8469 37.488C33.1029 37.2747 33.2309 36.9707 33.2309 36.576C33.2309 36.1813 33.0975 35.872 32.8309 35.648C32.5749 35.424 32.2175 35.312 31.7589 35.312H29.7749V37.792H31.7909ZM40.3218 32.336C40.5778 31.92 40.9458 31.584 41.4258 31.328C41.9058 31.072 42.4551 30.944 43.0738 30.944C43.8098 30.944 44.4764 31.1307 45.0738 31.504C45.6711 31.8773 46.1404 32.4107 46.4818 33.104C46.8338 33.7973 47.0098 34.6027 47.0098 35.52C47.0098 36.4373 46.8338 37.248 46.4818 37.952C46.1404 38.6453 45.6711 39.184 45.0738 39.568C44.4764 39.9413 43.8098 40.128 43.0738 40.128C42.4444 40.128 41.8951 40.0053 41.4258 39.76C40.9564 39.504 40.5884 39.168 40.3218 38.752V40H37.5858V28.16H40.3218V32.336ZM44.2258 35.52C44.2258 34.8373 44.0338 34.304 43.6498 33.92C43.2764 33.5253 42.8124 33.328 42.2578 33.328C41.7138 33.328 41.2498 33.5253 40.8658 33.92C40.4924 34.3147 40.3058 34.8533 40.3058 35.536C40.3058 36.2187 40.4924 36.7573 40.8658 37.152C41.2498 37.5467 41.7138 37.744 42.2578 37.744C42.8018 37.744 43.2658 37.5467 43.6498 37.152C44.0338 36.7467 44.2258 36.2027 44.2258 35.52ZM51.3717 34.368C51.3717 33.2587 51.6118 32.272 52.0918 31.408C52.5718 30.5333 53.2384 29.856 54.0918 29.376C54.9558 28.8853 55.9318 28.64 57.0198 28.64C58.3531 28.64 59.4944 28.992 60.4438 29.696C61.3931 30.4 62.0278 31.36 62.3478 32.576H59.3398C59.1158 32.1067 58.7958 31.7493 58.3798 31.504C57.9744 31.2587 57.5104 31.136 56.9878 31.136C56.1451 31.136 55.4624 31.4293 54.9398 32.016C54.4171 32.6027 54.1558 33.3867 54.1558 34.368C54.1558 35.3493 54.4171 36.1333 54.9398 36.72C55.4624 37.3067 56.1451 37.6 56.9878 37.6C57.5104 37.6 57.9744 37.4773 58.3798 37.232C58.7958 36.9867 59.1158 36.6293 59.3398 36.16H62.3478C62.0278 37.376 61.3931 38.336 60.4438 39.04C59.4944 39.7333 58.3531 40.08 57.0198 40.08C55.9318 40.08 54.9558 39.84 54.0918 39.36C53.2384 38.8693 52.5718 38.192 52.0918 37.328C51.6118 36.464 51.3717 35.4773 51.3717 34.368ZM63.4793 35.536C63.4793 34.608 63.6659 33.7973 64.0393 33.104C64.4233 32.4107 64.9513 31.8773 65.6233 31.504C66.3059 31.1307 67.0846 30.944 67.9593 30.944C69.0793 30.944 70.0126 31.2373 70.7593 31.824C71.5166 32.4107 72.0126 33.2373 72.2473 34.304H69.3353C69.0899 33.6213 68.6153 33.28 67.9113 33.28C67.4099 33.28 67.0099 33.4773 66.7113 33.872C66.4126 34.256 66.2633 34.8107 66.2633 35.536C66.2633 36.2613 66.4126 36.8213 66.7113 37.216C67.0099 37.6 67.4099 37.792 67.9113 37.792C68.6153 37.792 69.0899 37.4507 69.3353 36.768H72.2473C72.0126 37.8133 71.5166 38.6347 70.7593 39.232C70.0019 39.8293 69.0686 40.128 67.9593 40.128C67.0846 40.128 66.3059 39.9413 65.6233 39.568C64.9513 39.1947 64.4233 38.6613 64.0393 37.968C63.6659 37.2747 63.4793 36.464 63.4793 35.536ZM81.3094 28.768C82.4934 28.768 83.528 29.0027 84.4134 29.472C85.2987 29.9413 85.9814 30.6027 86.4614 31.456C86.952 32.2987 87.1974 33.2747 87.1974 34.384C87.1974 35.4827 86.952 36.4587 86.4614 37.312C85.9814 38.1653 85.2934 38.8267 84.3974 39.296C83.512 39.7653 82.4827 40 81.3094 40H77.1014V28.768H81.3094ZM81.1334 37.632C82.168 37.632 82.9734 37.3493 83.5494 36.784C84.1254 36.2187 84.4134 35.4187 84.4134 34.384C84.4134 33.3493 84.1254 32.544 83.5494 31.968C82.9734 31.392 82.168 31.104 81.1334 31.104H79.8374V37.632H81.1334ZM88.1824 35.52C88.1824 34.6027 88.353 33.7973 88.6944 33.104C89.0464 32.4107 89.521 31.8773 90.1184 31.504C90.7157 31.1307 91.3824 30.944 92.1184 30.944C92.705 30.944 93.2384 31.0667 93.7184 31.312C94.209 31.5573 94.593 31.888 94.8704 32.304V28.16H97.6064V40H94.8704V38.72C94.6144 39.1467 94.2464 39.488 93.7664 39.744C93.297 40 92.7477 40.128 92.1184 40.128C91.3824 40.128 90.7157 39.9413 90.1184 39.568C89.521 39.184 89.0464 38.6453 88.6944 37.952C88.353 37.248 88.1824 36.4373 88.1824 35.52ZM94.8704 35.536C94.8704 34.8533 94.6784 34.3147 94.2944 33.92C93.921 33.5253 93.4624 33.328 92.9184 33.328C92.3744 33.328 91.9104 33.5253 91.5264 33.92C91.153 34.304 90.9664 34.8373 90.9664 35.52C90.9664 36.2027 91.153 36.7467 91.5264 37.152C91.9104 37.5467 92.3744 37.744 92.9184 37.744C93.4624 37.744 93.921 37.5467 94.2944 37.152C94.6784 36.7573 94.8704 36.2187 94.8704 35.536ZM105.712 30.96V33.232H109.376V35.344H105.712V37.808H109.856V40H102.976V28.768H109.856V30.96H105.712ZM120.049 35.392C120.049 35.648 120.033 35.9147 120.001 36.192H113.809C113.851 36.7467 114.027 37.1733 114.337 37.472C114.657 37.76 115.046 37.904 115.505 37.904C116.187 37.904 116.662 37.616 116.929 37.04H119.841C119.691 37.6267 119.419 38.1547 119.025 38.624C118.641 39.0933 118.155 39.4613 117.569 39.728C116.982 39.9947 116.326 40.128 115.601 40.128C114.726 40.128 113.947 39.9413 113.265 39.568C112.582 39.1947 112.049 38.6613 111.665 37.968C111.281 37.2747 111.089 36.464 111.089 35.536C111.089 34.608 111.275 33.7973 111.649 33.104C112.033 32.4107 112.566 31.8773 113.249 31.504C113.931 31.1307 114.715 30.944 115.601 30.944C116.465 30.944 117.233 31.1253 117.905 31.488C118.577 31.8507 119.099 32.368 119.473 33.04C119.857 33.712 120.049 34.496 120.049 35.392ZM117.249 34.672C117.249 34.2027 117.089 33.8293 116.769 33.552C116.449 33.2747 116.049 33.136 115.569 33.136C115.11 33.136 114.721 33.2693 114.401 33.536C114.091 33.8027 113.899 34.1813 113.825 34.672H117.249ZM132.195 28.768V30.96H127.619V33.328H131.043V35.456H127.619V40H124.883V28.768H132.195ZM138.113 33.344H136.641V40H133.905V33.344H132.913V31.072H133.905V30.816C133.905 29.7173 134.219 28.8853 134.849 28.32C135.478 27.744 136.401 27.456 137.617 27.456C137.819 27.456 137.969 27.4613 138.065 27.472V29.792C137.542 29.76 137.174 29.8347 136.961 30.016C136.747 30.1973 136.641 30.5227 136.641 30.992V31.072H138.113V33.344ZM150.245 32.32C150.042 31.9467 149.749 31.664 149.365 31.472C148.992 31.2693 148.549 31.168 148.037 31.168C147.152 31.168 146.442 31.4613 145.909 32.048C145.376 32.624 145.109 33.3973 145.109 34.368C145.109 35.4027 145.386 36.2133 145.941 36.8C146.506 37.376 147.28 37.664 148.261 37.664C148.933 37.664 149.498 37.4933 149.957 37.152C150.426 36.8107 150.768 36.32 150.981 35.68H147.509V33.664H153.461V36.208C153.258 36.8907 152.912 37.5253 152.421 38.112C151.941 38.6987 151.328 39.1733 150.581 39.536C149.834 39.8987 148.992 40.08 148.053 40.08C146.944 40.08 145.952 39.84 145.077 39.36C144.213 38.8693 143.536 38.192 143.045 37.328C142.565 36.464 142.325 35.4773 142.325 34.368C142.325 33.2587 142.565 32.272 143.045 31.408C143.536 30.5333 144.213 29.856 145.077 29.376C145.941 28.8853 146.928 28.64 148.037 28.64C149.381 28.64 150.512 28.9653 151.429 29.616C152.357 30.2667 152.97 31.168 153.269 32.32H150.245ZM158.368 30.944C158.998 30.944 159.547 31.072 160.016 31.328C160.496 31.584 160.864 31.92 161.12 32.336V31.072H163.856V39.984C163.856 40.8053 163.691 41.5467 163.36 42.208C163.04 42.88 162.544 43.4133 161.872 43.808C161.211 44.2027 160.384 44.4 159.392 44.4C158.07 44.4 156.998 44.0853 156.176 43.456C155.355 42.8373 154.886 41.9947 154.768 40.928H157.472C157.558 41.2693 157.76 41.536 158.08 41.728C158.4 41.9307 158.795 42.032 159.264 42.032C159.83 42.032 160.278 41.8667 160.608 41.536C160.95 41.216 161.12 40.6987 161.12 39.984V38.72C160.854 39.136 160.486 39.4773 160.016 39.744C159.547 40 158.998 40.128 158.368 40.128C157.632 40.128 156.966 39.9413 156.368 39.568C155.771 39.184 155.296 38.6453 154.944 37.952C154.603 37.248 154.432 36.4373 154.432 35.52C154.432 34.6027 154.603 33.7973 154.944 33.104C155.296 32.4107 155.771 31.8773 156.368 31.504C156.966 31.1307 157.632 30.944 158.368 30.944ZM161.12 35.536C161.12 34.8533 160.928 34.3147 160.544 33.92C160.171 33.5253 159.712 33.328 159.168 33.328C158.624 33.328 158.16 33.5253 157.776 33.92C157.403 34.304 157.216 34.8373 157.216 35.52C157.216 36.2027 157.403 36.7467 157.776 37.152C158.16 37.5467 158.624 37.744 159.168 37.744C159.712 37.744 160.171 37.5467 160.544 37.152C160.928 36.7573 161.12 36.2187 161.12 35.536ZM178.954 28.768V40H176.218V35.376H171.962V40H169.226V28.768H171.962V33.168H176.218V28.768H178.954ZM186.418 30.976C187.442 30.976 188.263 31.3173 188.882 32C189.5 32.672 189.81 33.6 189.81 34.784V40H187.09V35.152C187.09 34.5547 186.935 34.0907 186.626 33.76C186.316 33.4293 185.9 33.264 185.378 33.264C184.855 33.264 184.439 33.4293 184.13 33.76C183.82 34.0907 183.666 34.5547 183.666 35.152V40H180.93V28.16H183.666V32.272C183.943 31.8773 184.322 31.5627 184.802 31.328C185.282 31.0933 185.82 30.976 186.418 30.976ZM196.381 40.128C195.901 40.128 195.507 39.9893 195.197 39.712C194.899 39.424 194.749 39.072 194.749 38.656C194.749 38.2293 194.899 37.872 195.197 37.584C195.507 37.296 195.901 37.152 196.381 37.152C196.851 37.152 197.235 37.296 197.533 37.584C197.843 37.872 197.997 38.2293 197.997 38.656C197.997 39.072 197.843 39.424 197.533 39.712C197.235 39.9893 196.851 40.128 196.381 40.128ZM200.897 40.128C200.417 40.128 200.022 39.9893 199.713 39.712C199.414 39.424 199.265 39.072 199.265 38.656C199.265 38.2293 199.414 37.872 199.713 37.584C200.022 37.296 200.417 37.152 200.897 37.152C201.366 37.152 201.75 37.296 202.049 37.584C202.358 37.872 202.513 38.2293 202.513 38.656C202.513 39.072 202.358 39.424 202.049 39.712C201.75 39.9893 201.366 40.128 200.897 40.128ZM205.413 40.128C204.933 40.128 204.538 39.9893 204.229 39.712C203.93 39.424 203.781 39.072 203.781 38.656C203.781 38.2293 203.93 37.872 204.229 37.584C204.538 37.296 204.933 37.152 205.413 37.152C205.882 37.152 206.266 37.296 206.565 37.584C206.874 37.872 207.029 38.2293 207.029 38.656C207.029 39.072 206.874 39.424 206.565 39.712C206.266 39.9893 205.882 40.128 205.413 40.128Z" fill="#FAFAFA"/>
<path d="M0.432 54.864V52.32H4.864V64H2.016V54.864H0.432ZM10.0303 61.808C10.3929 61.52 10.5583 61.3867 10.5263 61.408C11.5716 60.544 12.3929 59.8347 12.9903 59.28C13.5983 58.7253 14.1103 58.144 14.5263 57.536C14.9423 56.928 15.1503 56.336 15.1503 55.76C15.1503 55.3227 15.0489 54.9813 14.8463 54.736C14.6436 54.4907 14.3396 54.368 13.9343 54.368C13.5289 54.368 13.2089 54.5227 12.9743 54.832C12.7503 55.1307 12.6383 55.5573 12.6383 56.112H9.99825C10.0196 55.2053 10.2116 54.448 10.5743 53.84C10.9476 53.232 11.4329 52.784 12.0303 52.496C12.6383 52.208 13.3103 52.064 14.0463 52.064C15.3156 52.064 16.2703 52.3893 16.9103 53.04C17.5609 53.6907 17.8863 54.5387 17.8863 55.584C17.8863 56.7253 17.4969 57.7867 16.7183 58.768C15.9396 59.7387 14.9476 60.688 13.7423 61.616H18.0623V63.84H10.0303V61.808ZM22.7535 55.616C22.7962 54.4747 23.1695 53.5947 23.8735 52.976C24.5775 52.3573 25.5322 52.048 26.7375 52.048C27.5375 52.048 28.2202 52.1867 28.7855 52.464C29.3615 52.7413 29.7935 53.12 30.0815 53.6C30.3802 54.08 30.5295 54.6187 30.5295 55.216C30.5295 55.92 30.3535 56.496 30.0015 56.944C29.6495 57.3813 29.2388 57.68 28.7695 57.84V57.904C29.3775 58.1067 29.8575 58.4427 30.2095 58.912C30.5615 59.3813 30.7375 59.984 30.7375 60.72C30.7375 61.3813 30.5828 61.968 30.2735 62.48C29.9748 62.9813 29.5322 63.376 28.9455 63.664C28.3695 63.952 27.6815 64.096 26.8815 64.096C25.6015 64.096 24.5775 63.7813 23.8095 63.152C23.0522 62.5227 22.6522 61.5733 22.6095 60.304H25.2655C25.2762 60.7733 25.4095 61.1467 25.6655 61.424C25.9215 61.6907 26.2948 61.824 26.7855 61.824C27.2015 61.824 27.5215 61.7067 27.7455 61.472C27.9802 61.2267 28.0975 60.9067 28.0975 60.512C28.0975 60 27.9322 59.632 27.6015 59.408C27.2815 59.1733 26.7642 59.056 26.0495 59.056H25.5375V56.832H26.0495C26.5935 56.832 27.0308 56.7413 27.3615 56.56C27.7028 56.368 27.8735 56.032 27.8735 55.552C27.8735 55.168 27.7668 54.8693 27.5535 54.656C27.3402 54.4427 27.0468 54.336 26.6735 54.336C26.2682 54.336 25.9642 54.4587 25.7615 54.704C25.5695 54.9493 25.4575 55.2533 25.4255 55.616H22.7535ZM35.7996 61.92V59.712L40.8556 52.48H43.9116V59.552H45.2236V61.92H43.9116V64H41.1756V61.92H35.7996ZM41.3676 55.488L38.6796 59.552H41.3676V55.488ZM58.1784 54.704H53.1864V56.912C53.3997 56.6773 53.6984 56.4853 54.0824 56.336C54.4664 56.1867 54.8824 56.112 55.3304 56.112C56.1304 56.112 56.7917 56.2933 57.3144 56.656C57.8477 57.0187 58.237 57.488 58.4824 58.064C58.7277 58.64 58.8504 59.264 58.8504 59.936C58.8504 61.184 58.4984 62.176 57.7944 62.912C57.0904 63.6373 56.0984 64 54.8184 64C53.965 64 53.2237 63.856 52.5944 63.568C51.965 63.2693 51.4797 62.8587 51.1384 62.336C50.797 61.8133 50.6104 61.2107 50.5784 60.528H53.2504C53.3144 60.8587 53.469 61.136 53.7144 61.36C53.9597 61.5733 54.2957 61.68 54.7224 61.68C55.2237 61.68 55.597 61.52 55.8424 61.2C56.0877 60.88 56.2104 60.4533 56.2104 59.92C56.2104 59.3973 56.0824 58.9973 55.8264 58.72C55.5704 58.4427 55.197 58.304 54.7064 58.304C54.3437 58.304 54.045 58.3947 53.8104 58.576C53.5757 58.7467 53.421 58.976 53.3464 59.264H50.7064V52.304H58.1784V54.704ZM69.5273 55.472C69.4419 55.0773 69.2926 54.784 69.0793 54.592C68.8659 54.3893 68.5619 54.288 68.1673 54.288C67.5593 54.288 67.1219 54.5547 66.8553 55.088C66.5886 55.6107 66.4499 56.4427 66.4393 57.584C66.6739 57.2107 67.0099 56.9173 67.4473 56.704C67.8953 56.4907 68.3859 56.384 68.9193 56.384C69.9646 56.384 70.8019 56.7147 71.4313 57.376C72.0713 58.0373 72.3913 58.96 72.3913 60.144C72.3913 60.9227 72.2313 61.6053 71.9113 62.192C71.6019 62.7787 71.1433 63.2373 70.5353 63.568C69.9379 63.8987 69.2286 64.064 68.4073 64.064C66.7646 64.064 65.6233 63.552 64.9833 62.528C64.3433 61.4933 64.0233 60.0107 64.0233 58.08C64.0233 56.0533 64.3593 54.5493 65.0312 53.568C65.7139 52.576 66.8019 52.08 68.2953 52.08C69.0953 52.08 69.7673 52.24 70.3113 52.56C70.8659 52.8693 71.2819 53.28 71.5593 53.792C71.8473 54.304 72.0179 54.864 72.0712 55.472H69.5273ZM68.2633 58.544C67.8046 58.544 67.4206 58.6827 67.1113 58.96C66.8126 59.2267 66.6633 59.6107 66.6633 60.112C66.6633 60.624 66.8019 61.024 67.0793 61.312C67.3673 61.6 67.7726 61.744 68.2953 61.744C68.7646 61.744 69.1326 61.6053 69.3993 61.328C69.6766 61.04 69.8153 60.6507 69.8153 60.16C69.8153 59.6587 69.6819 59.264 69.4153 58.976C69.1486 58.688 68.7646 58.544 68.2633 58.544ZM84.7854 54.368L80.7694 64H77.9694L82.0334 54.672H77.0574V52.336H84.7854V54.368ZM91.2025 57.728C90.1998 57.1947 89.6985 56.3573 89.6985 55.216C89.6985 54.64 89.8478 54.1173 90.1465 53.648C90.4452 53.168 90.8985 52.7893 91.5065 52.512C92.1145 52.224 92.8612 52.08 93.7465 52.08C94.6318 52.08 95.3732 52.224 95.9705 52.512C96.5785 52.7893 97.0318 53.168 97.3305 53.648C97.6292 54.1173 97.7785 54.64 97.7785 55.216C97.7785 55.792 97.6398 56.2933 97.3625 56.72C97.0958 57.1467 96.7332 57.4827 96.2745 57.728C96.8505 58.0053 97.2932 58.3893 97.6025 58.88C97.9118 59.36 98.0665 59.9253 98.0665 60.576C98.0665 61.3333 97.8745 61.9893 97.4905 62.544C97.1065 63.088 96.5838 63.504 95.9225 63.792C95.2718 64.08 94.5465 64.224 93.7465 64.224C92.9465 64.224 92.2158 64.08 91.5545 63.792C90.9038 63.504 90.3865 63.088 90.0025 62.544C89.6185 61.9893 89.4265 61.3333 89.4265 60.576C89.4265 59.9147 89.5812 59.344 89.8905 58.864C90.1998 58.3733 90.6372 57.9947 91.2025 57.728ZM95.1225 55.632C95.1225 55.1947 94.9945 54.8587 94.7385 54.624C94.4932 54.3787 94.1625 54.256 93.7465 54.256C93.3305 54.256 92.9945 54.3787 92.7385 54.624C92.4932 54.8693 92.3705 55.2107 92.3705 55.648C92.3705 56.064 92.4985 56.3947 92.7545 56.64C93.0105 56.8747 93.3412 56.992 93.7465 56.992C94.1518 56.992 94.4825 56.8693 94.7385 56.624C94.9945 56.3787 95.1225 56.048 95.1225 55.632ZM93.7465 58.912C93.2452 58.912 92.8398 59.0507 92.5305 59.328C92.2212 59.5947 92.0665 59.968 92.0665 60.448C92.0665 60.896 92.2158 61.264 92.5145 61.552C92.8238 61.84 93.2345 61.984 93.7465 61.984C94.2585 61.984 94.6585 61.84 94.9465 61.552C95.2452 61.264 95.3945 60.896 95.3945 60.448C95.3945 59.9787 95.2398 59.6053 94.9305 59.328C94.6318 59.0507 94.2372 58.912 93.7465 58.912ZM105.992 60.576C106.152 61.4187 106.643 61.84 107.464 61.84C108.029 61.84 108.429 61.5893 108.664 61.088C108.899 60.5867 109.016 59.7707 109.016 58.64C108.781 58.9707 108.461 59.2267 108.056 59.408C107.651 59.5893 107.197 59.68 106.696 59.68C106.013 59.68 105.405 59.5413 104.872 59.264C104.339 58.976 103.917 58.5547 103.608 58C103.309 57.4347 103.16 56.752 103.16 55.952C103.16 55.1627 103.32 54.4747 103.64 53.888C103.971 53.3013 104.435 52.848 105.032 52.528C105.64 52.208 106.355 52.048 107.176 52.048C108.755 52.048 109.859 52.5387 110.488 53.52C111.117 54.5013 111.432 55.9467 111.432 57.856C111.432 59.2427 111.304 60.3893 111.048 61.296C110.803 62.192 110.381 62.8747 109.784 63.344C109.197 63.8133 108.392 64.048 107.368 64.048C106.557 64.048 105.864 63.888 105.288 63.568C104.723 63.248 104.285 62.8267 103.976 62.304C103.677 61.7813 103.507 61.2053 103.464 60.576H105.992ZM107.32 57.52C107.768 57.52 108.125 57.3867 108.392 57.12C108.659 56.8427 108.792 56.4693 108.792 56C108.792 55.488 108.653 55.0933 108.376 54.816C108.099 54.5387 107.725 54.4 107.256 54.4C106.787 54.4 106.413 54.544 106.136 54.832C105.869 55.1093 105.736 55.4933 105.736 55.984C105.736 56.4427 105.869 56.816 106.136 57.104C106.413 57.3813 106.808 57.52 107.32 57.52Z" fill="#FAFAFA"/>
<path d="M1.13778 98V84.9091H6.30256C7.29545 84.9091 8.14134 85.0987 8.8402 85.478C9.53906 85.853 10.0717 86.375 10.4382 87.044C10.8089 87.7088 10.9943 88.4759 10.9943 89.3452C10.9943 90.2145 10.8068 90.9815 10.4318 91.6463C10.0568 92.3111 9.51349 92.8288 8.80185 93.1996C8.09446 93.5703 7.23793 93.7557 6.23224 93.7557H2.94034V91.5376H5.7848C6.31747 91.5376 6.75639 91.446 7.10156 91.2628C7.45099 91.0753 7.71094 90.8175 7.88139 90.4893C8.05611 90.157 8.14347 89.7756 8.14347 89.3452C8.14347 88.9105 8.05611 88.5312 7.88139 88.2074C7.71094 87.8793 7.45099 87.6257 7.10156 87.4467C6.75213 87.2635 6.30895 87.1719 5.77202 87.1719H3.90554V98H1.13778ZM15.277 98.1854C14.6506 98.1854 14.0923 98.0767 13.6023 97.8594C13.1122 97.6378 12.7244 97.3118 12.4389 96.8814C12.1577 96.4467 12.017 95.9055 12.017 95.2578C12.017 94.7124 12.1172 94.2543 12.3175 93.8835C12.5178 93.5128 12.7905 93.2145 13.1357 92.9886C13.4808 92.7628 13.8729 92.5923 14.3118 92.4773C14.755 92.3622 15.2195 92.2812 15.7053 92.2344C16.2763 92.1747 16.7365 92.1193 17.0859 92.0682C17.4354 92.0128 17.6889 91.9318 17.8466 91.8253C18.0043 91.7187 18.0831 91.5611 18.0831 91.3523V91.3139C18.0831 90.9091 17.9553 90.5959 17.6996 90.3743C17.4482 90.1527 17.0902 90.0419 16.6257 90.0419C16.1357 90.0419 15.7457 90.1506 15.456 90.3679C15.1662 90.581 14.9744 90.8494 14.8807 91.1733L12.3622 90.9688C12.4901 90.3722 12.7415 89.8565 13.1165 89.4219C13.4915 88.983 13.9751 88.6463 14.5675 88.4119C15.1641 88.1733 15.8544 88.054 16.6385 88.054C17.1839 88.054 17.706 88.1179 18.2045 88.2457C18.7074 88.3736 19.1527 88.5717 19.5405 88.8402C19.9325 89.1087 20.2415 89.4538 20.4673 89.8757C20.6932 90.2933 20.8061 90.794 20.8061 91.3778V98H18.2237V96.6385H18.147C17.9893 96.9453 17.7784 97.2159 17.5142 97.4503C17.25 97.6804 16.9325 97.8615 16.5618 97.9936C16.1911 98.1214 15.7628 98.1854 15.277 98.1854ZM16.0568 96.3061C16.4574 96.3061 16.8111 96.2273 17.1179 96.0696C17.4247 95.9077 17.6655 95.6903 17.8402 95.4176C18.0149 95.1449 18.1023 94.8359 18.1023 94.4908V93.4489C18.017 93.5043 17.8999 93.5554 17.7507 93.6023C17.6058 93.6449 17.4418 93.6854 17.2585 93.7237C17.0753 93.7578 16.892 93.7898 16.7088 93.8196C16.5256 93.8452 16.3594 93.8686 16.2102 93.8899C15.8906 93.9368 15.6115 94.0114 15.3729 94.1136C15.1342 94.2159 14.9489 94.3544 14.8168 94.5291C14.6847 94.6996 14.6186 94.9126 14.6186 95.1683C14.6186 95.5391 14.7528 95.8224 15.0213 96.0185C15.294 96.2102 15.6392 96.3061 16.0568 96.3061ZM27.3548 98.1918C26.3491 98.1918 25.484 97.9787 24.7596 97.5526C24.0394 97.1222 23.4854 96.5256 23.0977 95.7628C22.7141 95 22.5224 94.1222 22.5224 93.1293C22.5224 92.1236 22.7163 91.2415 23.104 90.483C23.4961 89.7202 24.0522 89.1257 24.7724 88.6996C25.4925 88.2692 26.3491 88.054 27.342 88.054C28.1985 88.054 28.9485 88.2095 29.592 88.5206C30.2354 88.8317 30.7447 89.2685 31.1197 89.831C31.4947 90.3935 31.7013 91.054 31.7397 91.8125H29.1701C29.0977 91.3224 28.9059 90.9283 28.5948 90.63C28.288 90.3274 27.8853 90.1761 27.3867 90.1761C26.9648 90.1761 26.5962 90.2912 26.2809 90.5213C25.9698 90.7472 25.7269 91.0774 25.5522 91.5121C25.3775 91.9467 25.2901 92.473 25.2901 93.0909C25.2901 93.7173 25.3754 94.25 25.5458 94.6889C25.7205 95.1278 25.9656 95.4624 26.2809 95.6925C26.5962 95.9226 26.9648 96.0376 27.3867 96.0376C27.6978 96.0376 27.9769 95.9737 28.2241 95.8459C28.4755 95.718 28.6822 95.5327 28.8441 95.2898C29.0103 95.0426 29.119 94.7464 29.1701 94.4013H31.7397C31.6971 95.1513 31.4925 95.8118 31.1261 96.3828C30.7638 96.9496 30.2631 97.3928 29.6239 97.7124C28.9847 98.032 28.2283 98.1918 27.3548 98.1918ZM33.4831 98V88.1818H36.2061V98H33.4831ZM34.851 86.9162C34.4462 86.9162 34.0989 86.782 33.8091 86.5135C33.5236 86.2408 33.3809 85.9148 33.3809 85.5355C33.3809 85.1605 33.5236 84.8388 33.8091 84.5703C34.0989 84.2976 34.4462 84.1612 34.851 84.1612C35.2559 84.1612 35.601 84.2976 35.8865 84.5703C36.1763 84.8388 36.3212 85.1605 36.3212 85.5355C36.3212 85.9148 36.1763 86.2408 35.8865 86.5135C35.601 86.782 35.2559 86.9162 34.851 86.9162ZM43.6673 88.1818V90.2273H37.6076V88.1818H43.6673ZM38.9947 98V87.4723C38.9947 86.7607 39.1332 86.1705 39.4102 85.7017C39.6914 85.233 40.0749 84.8814 40.5607 84.647C41.0465 84.4126 41.5984 84.2955 42.2163 84.2955C42.6339 84.2955 43.0153 84.3274 43.3604 84.3913C43.7099 84.4553 43.9698 84.5128 44.1403 84.5639L43.6545 86.6094C43.5479 86.5753 43.4158 86.5433 43.2582 86.5135C43.1048 86.4837 42.9471 86.4688 42.7852 86.4688C42.3846 86.4688 42.1055 86.5625 41.9478 86.75C41.7901 86.9332 41.7113 87.1911 41.7113 87.5234V98H38.9947ZM45.3308 98V88.1818H48.0538V98H45.3308ZM46.6987 86.9162C46.2939 86.9162 45.9466 86.782 45.6568 86.5135C45.3713 86.2408 45.2285 85.9148 45.2285 85.5355C45.2285 85.1605 45.3713 84.8388 45.6568 84.5703C45.9466 84.2976 46.2939 84.1612 46.6987 84.1612C47.1035 84.1612 47.4487 84.2976 47.7342 84.5703C48.024 84.8388 48.1689 85.1605 48.1689 85.5355C48.1689 85.9148 48.024 86.2408 47.7342 86.5135C47.4487 86.782 47.1035 86.9162 46.6987 86.9162ZM54.6712 98.1918C53.6655 98.1918 52.8004 97.9787 52.076 97.5526C51.3558 97.1222 50.8018 96.5256 50.4141 95.7628C50.0305 95 49.8388 94.1222 49.8388 93.1293C49.8388 92.1236 50.0327 91.2415 50.4205 90.483C50.8125 89.7202 51.3686 89.1257 52.0888 88.6996C52.8089 88.2692 53.6655 88.054 54.6584 88.054C55.5149 88.054 56.2649 88.2095 56.9084 88.5206C57.5518 88.8317 58.0611 89.2685 58.4361 89.831C58.8111 90.3935 59.0178 91.054 59.0561 91.8125H56.4865C56.4141 91.3224 56.2223 90.9283 55.9112 90.63C55.6044 90.3274 55.2017 90.1761 54.7031 90.1761C54.2812 90.1761 53.9126 90.2912 53.5973 90.5213C53.2862 90.7472 53.0433 91.0774 52.8686 91.5121C52.6939 91.9467 52.6065 92.473 52.6065 93.0909C52.6065 93.7173 52.6918 94.25 52.8622 94.6889C53.0369 95.1278 53.282 95.4624 53.5973 95.6925C53.9126 95.9226 54.2812 96.0376 54.7031 96.0376C55.0142 96.0376 55.2933 95.9737 55.5405 95.8459C55.7919 95.718 55.9986 95.5327 56.1605 95.2898C56.3267 95.0426 56.4354 94.7464 56.4865 94.4013H59.0561C59.0135 95.1513 58.8089 95.8118 58.4425 96.3828C58.0803 96.9496 57.5795 97.3928 56.9403 97.7124C56.3011 98.032 55.5447 98.1918 54.6712 98.1918ZM65.2356 98.1918C64.2427 98.1918 63.3841 97.9808 62.6596 97.5589C61.9395 97.1328 61.3833 96.5405 60.9913 95.782C60.5993 95.0192 60.4032 94.1349 60.4032 93.1293C60.4032 92.1151 60.5993 91.2287 60.9913 90.4702C61.3833 89.7074 61.9395 89.1151 62.6596 88.6932C63.3841 88.267 64.2427 88.054 65.2356 88.054C66.2285 88.054 67.085 88.267 67.8052 88.6932C68.5297 89.1151 69.0879 89.7074 69.4799 90.4702C69.872 91.2287 70.068 92.1151 70.068 93.1293C70.068 94.1349 69.872 95.0192 69.4799 95.782C69.0879 96.5405 68.5297 97.1328 67.8052 97.5589C67.085 97.9808 66.2285 98.1918 65.2356 98.1918ZM65.2484 96.0824C65.7001 96.0824 66.0772 95.9545 66.3798 95.6989C66.6824 95.4389 66.9103 95.0852 67.0637 94.6378C67.2214 94.1903 67.3002 93.6811 67.3002 93.1101C67.3002 92.5391 67.2214 92.0298 67.0637 91.5824C66.9103 91.1349 66.6824 90.7812 66.3798 90.5213C66.0772 90.2614 65.7001 90.1314 65.2484 90.1314C64.7924 90.1314 64.4089 90.2614 64.0978 90.5213C63.791 90.7812 63.5588 91.1349 63.4011 91.5824C63.2477 92.0298 63.171 92.5391 63.171 93.1101C63.171 93.6811 63.2477 94.1903 63.4011 94.6378C63.5588 95.0852 63.791 95.4389 64.0978 95.6989C64.4089 95.9545 64.7924 96.0824 65.2484 96.0824Z" fill="#FAFAFA"/>
<path d="M4.8 123.08C4.064 123.08 3.39733 122.899 2.8 122.536C2.21333 122.173 1.74933 121.651 1.408 120.968C1.06667 120.275 0.896 119.459 0.896 118.52C0.896 116.899 1.24267 115.4 1.936 114.024C2.62933 112.637 3.65333 111.528 5.008 110.696C6.36267 109.853 7.98933 109.432 9.888 109.432C10.3787 109.432 10.9013 109.469 11.456 109.544C12.0213 109.619 12.5333 109.731 12.992 109.88C13.2907 109.965 13.44 110.179 13.44 110.52C13.44 110.797 13.3333 111.059 13.12 111.304C12.9173 111.549 12.6773 111.672 12.4 111.672C12.3147 111.672 12.2507 111.667 12.208 111.656C11.6533 111.528 11.1787 111.437 10.784 111.384C10.3893 111.32 9.97333 111.288 9.536 111.288C8.18133 111.288 7.02933 111.619 6.08 112.28C5.13067 112.931 4.42133 113.795 3.952 114.872C3.48267 115.949 3.248 117.112 3.248 118.36C3.248 119.267 3.424 119.971 3.776 120.472C4.13867 120.963 4.608 121.208 5.184 121.208C5.83467 121.208 6.40533 120.941 6.896 120.408C7.38667 119.875 7.83467 119.011 8.24 117.816C8.64533 116.621 9.04533 115 9.44 112.952C9.504 112.653 9.632 112.451 9.824 112.344C10.016 112.237 10.272 112.184 10.592 112.184C11.3493 112.184 11.728 112.429 11.728 112.92C11.728 113.005 11.712 113.112 11.68 113.24C11.4027 114.275 11.1467 115.421 10.912 116.68C10.688 117.928 10.576 118.877 10.576 119.528C10.576 120.104 10.6613 120.525 10.832 120.792C11.0027 121.048 11.264 121.176 11.616 121.176C11.9573 121.176 12.2827 121.064 12.592 120.84C12.9013 120.605 13.2907 120.211 13.76 119.656C13.888 119.507 14.032 119.432 14.192 119.432C14.3307 119.432 14.4373 119.496 14.512 119.624C14.5973 119.752 14.64 119.928 14.64 120.152C14.64 120.568 14.5387 120.899 14.336 121.144C13.8133 121.773 13.3013 122.253 12.8 122.584C12.2987 122.915 11.6853 123.08 10.96 123.08C10.2133 123.08 9.61067 122.867 9.152 122.44C8.69333 122.003 8.40533 121.389 8.288 120.6C7.49867 122.253 6.336 123.08 4.8 123.08ZM15.1861 123.08C14.5781 123.08 14.0821 122.84 13.6981 122.36C13.3248 121.88 13.1381 121.251 13.1381 120.472C13.1381 119.619 13.3355 118.813 13.7301 118.056C14.1248 117.288 14.6475 116.675 15.2981 116.216C15.9595 115.747 16.6581 115.512 17.3941 115.512C17.6288 115.512 17.7835 115.56 17.8581 115.656C17.9435 115.741 18.0128 115.901 18.0661 116.136C18.2688 116.093 18.4928 116.072 18.7381 116.072C18.9941 116.072 19.1915 116.136 19.3301 116.264C19.4688 116.392 19.5381 116.573 19.5381 116.808C19.5381 117.053 19.4848 117.48 19.3781 118.088C19.2608 118.739 19.1701 119.363 19.1061 119.96C19.0421 120.547 19.0101 121.208 19.0101 121.944C19.0101 122.349 18.9248 122.643 18.7541 122.824C18.5941 122.995 18.3275 123.08 17.9541 123.08C17.5915 123.08 17.3195 122.995 17.1381 122.824C16.9675 122.643 16.8821 122.355 16.8821 121.96L16.8981 121.704C16.5675 122.621 15.9968 123.08 15.1861 123.08ZM15.8101 121.464C16.1088 121.464 16.3808 121.256 16.6261 120.84C16.8715 120.424 17.0901 119.683 17.2821 118.616L17.5861 117C17.1488 117.011 16.7435 117.181 16.3701 117.512C15.9968 117.832 15.6981 118.259 15.4741 118.792C15.2501 119.325 15.1381 119.891 15.1381 120.488C15.1381 120.808 15.1968 121.053 15.3141 121.224C15.4421 121.384 15.6075 121.464 15.8101 121.464ZM38.0286 112.76C38.0286 113.667 37.7086 114.451 37.0686 115.112C36.4286 115.763 35.4953 116.232 34.2686 116.52C34.93 116.701 35.4313 117 35.7726 117.416C36.114 117.821 36.2846 118.291 36.2846 118.824C36.2846 119.667 36.018 120.397 35.4846 121.016C34.962 121.635 34.194 122.115 33.1806 122.456C32.1673 122.787 30.946 122.952 29.5166 122.952C28.9833 122.952 28.5566 122.936 28.2366 122.904C28.226 123.203 28.098 123.427 27.8526 123.576C27.6073 123.725 27.2926 123.8 26.9086 123.8C26.5246 123.8 26.258 123.715 26.1086 123.544C25.97 123.373 25.9113 123.123 25.9326 122.792C26.0286 121.299 26.2153 119.736 26.4926 118.104C26.77 116.461 27.122 114.877 27.5486 113.352C27.6233 113.085 27.7726 112.899 27.9966 112.792C28.2206 112.685 28.514 112.632 28.8766 112.632C29.5273 112.632 29.8526 112.813 29.8526 113.176C29.8526 113.325 29.8206 113.496 29.7566 113.688C29.4793 114.52 29.202 115.651 28.9246 117.08C28.6473 118.499 28.45 119.853 28.3326 121.144C28.8446 121.187 29.2606 121.208 29.5806 121.208C31.074 121.208 32.1673 120.995 32.8606 120.568C33.5646 120.131 33.9166 119.576 33.9166 118.904C33.9166 118.435 33.714 118.04 33.3086 117.72C32.914 117.4 32.2473 117.224 31.3086 117.192C31.0953 117.181 30.946 117.128 30.8606 117.032C30.7753 116.936 30.7326 116.781 30.7326 116.568C30.7326 116.259 30.7966 116.008 30.9246 115.816C31.0526 115.624 31.2873 115.523 31.6286 115.512C32.386 115.491 33.0686 115.379 33.6766 115.176C34.2953 114.973 34.7806 114.691 35.1326 114.328C35.4846 113.955 35.6606 113.523 35.6606 113.032C35.6606 112.413 35.3566 111.928 34.7486 111.576C34.1406 111.213 33.2073 111.032 31.9486 111.032C30.8073 111.032 29.7033 111.181 28.6366 111.48C27.57 111.768 26.6633 112.136 25.9166 112.584C25.5753 112.787 25.2873 112.888 25.0526 112.888C24.8606 112.888 24.7113 112.824 24.6046 112.696C24.5086 112.557 24.4606 112.387 24.4606 112.184C24.4606 111.917 24.514 111.688 24.6206 111.496C24.738 111.304 25.01 111.085 25.4366 110.84C26.3326 110.328 27.3833 109.928 28.5886 109.64C29.794 109.352 31.026 109.208 32.2846 109.208C34.2153 109.208 35.6553 109.533 36.6046 110.184C37.554 110.835 38.0286 111.693 38.0286 112.76ZM41.311 123.08C40.2443 123.08 39.4657 122.669 38.975 121.848C38.495 121.027 38.255 119.837 38.255 118.28C38.255 116.904 38.4257 115.411 38.767 113.8C39.1083 112.179 39.6043 110.803 40.255 109.672C40.9163 108.531 41.7003 107.96 42.607 107.96C43.0977 107.96 43.4923 108.173 43.791 108.6C44.0897 109.016 44.239 109.56 44.239 110.232C44.239 111.107 44.0737 111.976 43.743 112.84C43.4123 113.704 42.863 114.611 42.095 115.56C42.6177 115.603 43.071 115.779 43.455 116.088C43.8497 116.397 44.1483 116.797 44.351 117.288C44.5643 117.779 44.671 118.312 44.671 118.888C44.671 119.688 44.511 120.408 44.191 121.048C43.8817 121.688 43.471 122.189 42.959 122.552C42.447 122.904 41.8977 123.08 41.311 123.08ZM40.367 116.648C41.071 115.357 41.631 114.221 42.047 113.24C42.4737 112.248 42.687 111.368 42.687 110.6C42.687 110.259 42.6443 109.997 42.559 109.816C42.4843 109.635 42.3777 109.544 42.239 109.544C42.0257 109.544 41.791 109.864 41.535 110.504C41.2897 111.133 41.0603 111.992 40.847 113.08C40.6337 114.168 40.4737 115.357 40.367 116.648ZM41.375 121.352C41.7377 121.352 42.0417 121.155 42.287 120.76C42.543 120.365 42.671 119.789 42.671 119.032C42.671 118.445 42.5643 118.003 42.351 117.704C42.1377 117.405 41.8817 117.256 41.583 117.256C41.2097 117.256 40.895 117.448 40.639 117.832C40.383 118.216 40.255 118.776 40.255 119.512C40.255 120.152 40.3617 120.621 40.575 120.92C40.7883 121.208 41.055 121.352 41.375 121.352ZM56.4511 123.08C55.1818 123.08 54.0778 122.851 53.1391 122.392C52.2005 121.923 51.4805 121.261 50.9791 120.408C50.4778 119.555 50.2271 118.563 50.2271 117.432C50.2271 115.864 50.5205 114.472 51.1071 113.256C51.7045 112.04 52.5098 111.101 53.5231 110.44C54.5365 109.768 55.6618 109.432 56.8991 109.432C58.0511 109.432 58.9258 109.731 59.5231 110.328C60.1205 110.915 60.4191 111.693 60.4191 112.664C60.4191 113.315 60.3018 113.837 60.0671 114.232C59.8431 114.627 59.5178 114.824 59.0911 114.824C58.7925 114.824 58.5578 114.755 58.3871 114.616C58.2165 114.477 58.1311 114.275 58.1311 114.008C58.1311 113.912 58.1525 113.736 58.1951 113.48C58.2591 113.16 58.2911 112.904 58.2911 112.712C58.2911 111.741 57.7738 111.256 56.7391 111.256C56.0351 111.256 55.3631 111.485 54.7231 111.944C54.0831 112.403 53.5658 113.08 53.1711 113.976C52.7765 114.861 52.5791 115.917 52.5791 117.144C52.5791 118.424 52.9365 119.416 53.6511 120.12C54.3658 120.813 55.4218 121.16 56.8191 121.16C57.5125 121.16 58.2111 121.075 58.9151 120.904C59.6298 120.723 60.4191 120.451 61.2831 120.088C61.4431 120.024 61.5765 119.992 61.6831 119.992C61.8538 119.992 61.9818 120.056 62.0671 120.184C62.1525 120.312 62.1951 120.477 62.1951 120.68C62.1951 121.331 61.8431 121.811 61.1391 122.12C60.3818 122.451 59.5925 122.696 58.7711 122.856C57.9605 123.005 57.1871 123.08 56.4511 123.08ZM63.7596 123.08C62.7463 123.08 61.9516 122.787 61.3756 122.2C60.8103 121.603 60.5276 120.819 60.5276 119.848C60.5276 118.984 60.6983 118.227 61.0396 117.576C61.381 116.925 61.8236 116.424 62.3676 116.072C62.9116 115.72 63.4823 115.544 64.0796 115.544C64.6663 115.544 65.1196 115.72 65.4396 116.072C65.7703 116.413 65.9356 116.856 65.9356 117.4C65.9356 117.848 65.8343 118.227 65.6316 118.536C65.4396 118.845 65.1836 119 64.8636 119C64.661 119 64.4956 118.952 64.3676 118.856C64.2503 118.76 64.1916 118.627 64.1916 118.456C64.1916 118.381 64.2023 118.296 64.2236 118.2C64.245 118.104 64.261 118.035 64.2716 117.992C64.325 117.832 64.3516 117.683 64.3516 117.544C64.3516 117.405 64.3143 117.299 64.2396 117.224C64.1756 117.149 64.0796 117.112 63.9516 117.112C63.7063 117.112 63.477 117.224 63.2636 117.448C63.0503 117.661 62.8796 117.955 62.7516 118.328C62.6236 118.701 62.5596 119.112 62.5596 119.56C62.5596 120.168 62.6823 120.632 62.9276 120.952C63.1836 121.261 63.541 121.416 63.9996 121.416C64.3623 121.416 64.693 121.309 64.9916 121.096C65.301 120.883 65.605 120.568 65.9036 120.152C66.0316 119.992 66.1756 119.912 66.3356 119.912C66.4743 119.912 66.581 119.976 66.6556 120.104C66.741 120.232 66.7836 120.408 66.7836 120.632C66.7836 121.016 66.693 121.347 66.5116 121.624C66.2236 122.072 65.845 122.429 65.3756 122.696C64.9063 122.952 64.3676 123.08 63.7596 123.08ZM75.6468 123.08C75.0281 123.08 74.3294 123.027 73.5508 122.92C73.1241 122.867 72.8308 122.755 72.6708 122.584C72.5108 122.413 72.4414 122.136 72.4628 121.752C72.5374 120.696 72.7134 119.395 72.9908 117.848C73.2681 116.291 73.6041 114.792 73.9988 113.352C74.0734 113.085 74.2228 112.899 74.4468 112.792C74.6708 112.685 74.9641 112.632 75.3268 112.632C75.9774 112.632 76.3028 112.813 76.3028 113.176C76.3028 113.325 76.2708 113.496 76.2068 113.688C75.9294 114.541 75.6521 115.688 75.3748 117.128C75.0974 118.557 74.9001 119.923 74.7828 121.224C75.1028 121.256 75.4654 121.272 75.8708 121.272C77.7374 121.272 79.1294 120.707 80.0468 119.576C80.9748 118.445 81.4388 116.936 81.4388 115.048C81.4388 113.779 81.0761 112.797 80.3508 112.104C79.6254 111.411 78.6014 111.064 77.2788 111.064C76.4254 111.064 75.5774 111.197 74.7348 111.464C73.9028 111.731 73.1508 112.083 72.4788 112.52C72.3401 112.616 72.1908 112.664 72.0308 112.664C71.8494 112.664 71.7054 112.589 71.5988 112.44C71.4921 112.28 71.4388 112.088 71.4388 111.864C71.4388 111.608 71.4814 111.4 71.5668 111.24C71.6521 111.069 71.7961 110.915 71.9988 110.776C72.7348 110.275 73.5988 109.896 74.5908 109.64C75.5828 109.373 76.5374 109.24 77.4548 109.24C78.7561 109.24 79.8814 109.469 80.8308 109.928C81.7801 110.376 82.5108 111.037 83.0228 111.912C83.5348 112.787 83.7908 113.843 83.7908 115.08C83.7908 116.691 83.4708 118.099 82.8308 119.304C82.1908 120.499 81.2574 121.427 80.0308 122.088C78.8041 122.749 77.3428 123.08 75.6468 123.08ZM90.3733 119.432C90.4906 120.307 90.6613 121.171 90.8853 122.024C90.9279 122.163 90.9493 122.307 90.9493 122.456C90.9493 122.936 90.6559 123.176 90.0693 123.176C89.7386 123.176 89.4826 123.085 89.3013 122.904C89.1306 122.723 88.9706 122.381 88.8213 121.88L88.8053 121.816C88.3999 122.317 88.0319 122.653 87.7013 122.824C87.3813 122.995 87.0079 123.08 86.5813 123.08C85.9306 123.08 85.3919 122.84 84.9653 122.36C84.5493 121.869 84.3413 121.235 84.3413 120.456C84.3413 119.603 84.5226 118.813 84.8853 118.088C85.2479 117.363 85.7439 116.771 86.3733 116.312C87.0026 115.843 87.7066 115.56 88.4852 115.464C88.6879 113.448 89.0719 111.693 89.6373 110.2C90.2133 108.707 90.9759 107.96 91.9253 107.96C92.3839 107.96 92.7626 108.168 93.0613 108.584C93.3706 109 93.5253 109.629 93.5253 110.472C93.5253 111.645 93.2373 113.016 92.6613 114.584C92.0853 116.152 91.3226 117.768 90.3733 119.432ZM91.7493 109.528C91.4399 109.528 91.1466 110.317 90.8693 111.896C90.6026 113.475 90.4213 115.192 90.3253 117.048C91.5093 114.488 92.1013 112.408 92.1013 110.808C92.1013 110.403 92.0639 110.088 91.9893 109.864C91.9253 109.64 91.8453 109.528 91.7493 109.528ZM87.1413 121.464C87.3546 121.464 87.5573 121.384 87.7493 121.224C87.9519 121.064 88.2079 120.755 88.5173 120.296C88.4106 119.517 88.3573 118.712 88.3573 117.88C88.3573 117.549 88.3626 117.293 88.3733 117.112C87.7866 117.283 87.3013 117.672 86.9173 118.28C86.5333 118.888 86.3413 119.56 86.3413 120.296C86.3413 121.075 86.6079 121.464 87.1413 121.464ZM107.986 120.088C108.146 120.024 108.28 119.992 108.386 119.992C108.557 119.992 108.685 120.056 108.77 120.184C108.856 120.312 108.898 120.477 108.898 120.68C108.898 121 108.818 121.272 108.658 121.496C108.509 121.72 108.248 121.923 107.874 122.104C107.245 122.403 106.429 122.643 105.426 122.824C104.424 122.995 103.437 123.08 102.466 123.08C101.122 123.08 99.9969 122.931 99.0903 122.632C98.1836 122.323 97.5063 121.901 97.0583 121.368C96.6209 120.835 96.4023 120.232 96.4023 119.56C96.4023 118.643 96.6956 117.864 97.2823 117.224C97.8796 116.573 98.7543 116.104 99.9062 115.816C99.2769 115.635 98.7916 115.315 98.4503 114.856C98.1196 114.397 97.9543 113.885 97.9543 113.32C97.9543 112.552 98.1943 111.875 98.6743 111.288C99.1649 110.691 99.8209 110.232 100.642 109.912C101.464 109.592 102.365 109.432 103.346 109.432C104.669 109.432 105.661 109.72 106.322 110.296C106.984 110.861 107.314 111.597 107.314 112.504C107.314 113.133 107.197 113.645 106.962 114.04C106.738 114.424 106.413 114.616 105.986 114.616C105.688 114.616 105.453 114.552 105.282 114.424C105.112 114.285 105.026 114.083 105.026 113.816C105.026 113.635 105.053 113.437 105.106 113.224C105.16 112.872 105.186 112.632 105.186 112.504C105.186 112.12 105.042 111.811 104.754 111.576C104.466 111.331 103.986 111.208 103.314 111.208C102.408 111.208 101.682 111.4 101.138 111.784C100.594 112.168 100.322 112.685 100.322 113.336C100.322 113.837 100.525 114.253 100.93 114.584C101.346 114.904 102.018 115.08 102.946 115.112C103.181 115.123 103.346 115.176 103.442 115.272C103.538 115.368 103.586 115.528 103.586 115.752C103.586 116.456 103.266 116.813 102.626 116.824C101.741 116.845 101.005 116.968 100.418 117.192C99.8423 117.416 99.4209 117.704 99.1543 118.056C98.8983 118.397 98.7703 118.765 98.7703 119.16C98.7703 119.821 99.0796 120.323 99.6983 120.664C100.317 120.995 101.298 121.16 102.642 121.16C103.528 121.16 104.461 121.059 105.442 120.856C106.434 120.643 107.282 120.387 107.986 120.088ZM113.059 119.912C113.197 119.912 113.304 119.976 113.379 120.104C113.464 120.232 113.507 120.408 113.507 120.632C113.507 121.016 113.416 121.347 113.235 121.624C112.936 122.083 112.541 122.44 112.051 122.696C111.571 122.952 110.995 123.08 110.323 123.08C109.299 123.08 108.504 122.776 107.939 122.168C107.373 121.549 107.09 120.717 107.09 119.672C107.09 118.936 107.245 118.253 107.555 117.624C107.864 116.984 108.291 116.477 108.835 116.104C109.389 115.731 110.013 115.544 110.707 115.544C111.325 115.544 111.821 115.731 112.195 116.104C112.568 116.467 112.755 116.963 112.755 117.592C112.755 118.328 112.488 118.963 111.955 119.496C111.432 120.019 110.536 120.435 109.267 120.744C109.523 121.235 109.955 121.48 110.562 121.48C111 121.48 111.357 121.379 111.635 121.176C111.923 120.973 112.253 120.632 112.627 120.152C112.755 119.992 112.899 119.912 113.059 119.912ZM110.435 117.112C110.04 117.112 109.704 117.341 109.427 117.8C109.16 118.259 109.027 118.813 109.027 119.464V119.496C109.656 119.347 110.152 119.123 110.515 118.824C110.877 118.525 111.059 118.179 111.059 117.784C111.059 117.581 111 117.421 110.883 117.304C110.776 117.176 110.627 117.112 110.435 117.112ZM131.567 109.736C131.866 109.779 132.068 109.869 132.175 110.008C132.292 110.147 132.351 110.328 132.351 110.552C132.351 111.288 131.956 111.629 131.167 111.576L130.607 111.528C129.978 111.475 129.348 111.432 128.719 111.4C128.1 111.368 127.45 111.352 126.767 111.352H126.047C125.919 112.931 125.786 114.371 125.647 115.672L128.399 115.624C128.794 115.624 129.055 115.693 129.183 115.832C129.322 115.971 129.391 116.157 129.391 116.392C129.391 116.755 129.284 117.043 129.071 117.256C128.858 117.459 128.554 117.56 128.159 117.56H125.423L125.327 118.248C125.103 120.008 124.623 121.261 123.887 122.008C123.162 122.755 122.159 123.128 120.879 123.128C120.154 123.128 119.487 122.973 118.879 122.664C118.271 122.344 117.823 121.96 117.535 121.512C117.418 121.331 117.359 121.112 117.359 120.856C117.359 120.6 117.418 120.376 117.535 120.184C117.663 119.992 117.818 119.896 117.999 119.896C118.127 119.896 118.25 119.939 118.367 120.024C118.495 120.109 118.655 120.275 118.847 120.52C119.359 121.192 119.994 121.528 120.751 121.528C121.359 121.528 121.866 121.283 122.271 120.792C122.687 120.291 122.954 119.507 123.071 118.44L123.167 117.56H122.399C122.154 117.56 121.94 117.491 121.759 117.352C121.588 117.213 121.503 117.016 121.503 116.76C121.503 116.429 121.588 116.179 121.759 116.008C121.93 115.827 122.18 115.736 122.511 115.736C122.81 115.736 123.103 115.731 123.391 115.72C123.519 114.547 123.658 113.123 123.807 111.448C122.655 111.555 121.844 111.741 121.375 112.008C120.906 112.275 120.671 112.669 120.671 113.192C120.671 113.555 120.778 113.901 120.991 114.232C121.055 114.328 121.087 114.424 121.087 114.52C121.087 114.712 120.98 114.883 120.767 115.032C120.554 115.171 120.314 115.24 120.047 115.24C119.759 115.24 119.514 115.155 119.311 114.984C119.183 114.877 119.06 114.659 118.943 114.328C118.826 113.997 118.767 113.629 118.767 113.224C118.767 111.901 119.444 110.941 120.799 110.344C122.164 109.747 124.154 109.448 126.767 109.448C128.58 109.448 130.18 109.544 131.567 109.736ZM135.918 118.52C136.216 118.52 136.366 118.744 136.366 119.192C136.366 120.035 135.704 120.456 134.382 120.456C134.126 120.456 133.758 120.408 133.278 120.312C133.416 120.973 133.528 121.709 133.614 122.52C133.71 123.32 133.758 123.981 133.758 124.504C133.758 125.656 133.571 126.536 133.198 127.144C132.824 127.752 132.334 128.056 131.726 128.056C130.958 128.056 130.408 127.512 130.078 126.424C129.758 125.336 129.598 123.693 129.598 121.496C129.598 119.448 129.816 117.373 130.254 115.272C130.702 113.16 131.31 111.416 132.078 110.04C132.856 108.653 133.71 107.96 134.638 107.96C135.139 107.96 135.528 108.184 135.806 108.632C136.094 109.08 136.238 109.683 136.238 110.44C136.238 112.947 134.739 115.677 131.742 118.632C131.635 119.677 131.582 120.595 131.582 121.384C131.582 122.483 131.619 123.608 131.694 124.76C131.768 125.923 131.891 126.504 132.062 126.504C132.382 126.504 132.542 125.949 132.542 124.84C132.542 124.008 132.483 123.203 132.366 122.424C132.259 121.645 132.11 120.824 131.918 119.96C131.907 119.821 131.95 119.645 132.046 119.432C132.152 119.219 132.28 119.032 132.43 118.872C132.579 118.712 132.712 118.632 132.83 118.632C133.043 118.632 133.299 118.643 133.598 118.664C133.694 118.675 133.806 118.68 133.934 118.68C134.36 118.68 134.835 118.643 135.358 118.568C135.443 118.557 135.534 118.547 135.63 118.536C135.726 118.525 135.822 118.52 135.918 118.52ZM134.302 109.544C134.11 109.544 133.87 109.869 133.582 110.52C133.304 111.171 133.027 112.035 132.75 113.112C132.472 114.179 132.232 115.309 132.03 116.504C132.883 115.533 133.539 114.525 133.998 113.48C134.456 112.424 134.691 111.437 134.702 110.52C134.702 109.869 134.568 109.544 134.302 109.544ZM153.21 119.464C153.348 119.464 153.455 119.533 153.53 119.672C153.615 119.8 153.658 119.965 153.658 120.168C153.658 120.413 153.62 120.605 153.546 120.744C153.471 120.883 153.354 121.005 153.194 121.112C152.564 121.528 151.562 122.211 150.186 123.16C149.77 125.368 149.231 127.107 148.57 128.376C147.908 129.645 147.071 130.28 146.058 130.28C145.514 130.28 145.071 130.109 144.73 129.768C144.388 129.437 144.218 129 144.218 128.456C144.218 127.955 144.33 127.448 144.554 126.936C144.778 126.424 145.194 125.832 145.802 125.16C146.42 124.488 147.29 123.72 148.41 122.856L148.458 122.552C147.615 122.904 146.788 123.08 145.978 123.08C144.783 123.08 143.732 122.851 142.826 122.392C141.919 121.923 141.215 121.261 140.714 120.408C140.212 119.555 139.962 118.563 139.962 117.432C139.962 115.853 140.26 114.461 140.858 113.256C141.455 112.04 142.276 111.101 143.322 110.44C144.378 109.768 145.556 109.432 146.858 109.432C148.106 109.432 149.039 109.725 149.658 110.312C150.287 110.888 150.602 111.656 150.602 112.616C150.602 113.245 150.484 113.752 150.25 114.136C150.026 114.509 149.7 114.696 149.274 114.696C148.986 114.696 148.751 114.627 148.57 114.488C148.399 114.349 148.314 114.157 148.314 113.912C148.314 113.805 148.335 113.624 148.378 113.368C148.442 113.069 148.474 112.835 148.474 112.664C148.474 112.216 148.335 111.869 148.058 111.624C147.791 111.379 147.338 111.256 146.698 111.256C145.919 111.256 145.194 111.48 144.522 111.928C143.86 112.376 143.327 113.048 142.922 113.944C142.516 114.829 142.314 115.896 142.314 117.144C142.314 118.424 142.66 119.416 143.354 120.12C144.058 120.813 145.071 121.16 146.394 121.16C147.13 121.16 147.898 120.995 148.698 120.664L148.922 118.712H147.29C146.991 118.712 146.762 118.643 146.602 118.504C146.442 118.355 146.362 118.115 146.362 117.784C146.362 117.485 146.442 117.251 146.602 117.08C146.762 116.909 146.975 116.824 147.242 116.824H150.234C150.468 116.824 150.66 116.904 150.81 117.064C150.97 117.213 151.034 117.432 151.002 117.72C150.97 118.061 150.863 118.835 150.682 120.04L150.506 121.256C151.359 120.616 152.138 120.061 152.842 119.592C152.98 119.507 153.103 119.464 153.21 119.464ZM146.234 128.728C146.511 128.728 146.815 128.413 147.146 127.784C147.476 127.155 147.786 126.141 148.074 124.744C147.263 125.437 146.676 126.061 146.314 126.616C145.962 127.181 145.786 127.677 145.786 128.104C145.786 128.52 145.935 128.728 146.234 128.728ZM157.942 116.072C158.209 116.072 158.395 116.115 158.502 116.2C158.619 116.275 158.678 116.429 158.678 116.664C158.678 116.792 158.673 116.893 158.662 116.968C158.619 117.299 158.486 118.152 158.262 119.528C158.102 120.456 158.001 121.069 157.958 121.368C157.553 124.12 157.003 126.291 156.31 127.88C155.627 129.48 154.71 130.28 153.558 130.28C153.014 130.28 152.571 130.109 152.23 129.768C151.889 129.437 151.718 129 151.718 128.456C151.718 127.699 152.017 126.883 152.614 126.008C153.211 125.144 154.331 124.077 155.974 122.808L156.07 122.184C155.889 122.472 155.649 122.696 155.35 122.856C155.062 123.005 154.774 123.08 154.486 123.08C153.825 123.08 153.297 122.84 152.902 122.36C152.507 121.88 152.31 121.251 152.31 120.472C152.31 119.619 152.507 118.813 152.902 118.056C153.297 117.288 153.819 116.675 154.47 116.216C155.131 115.747 155.83 115.512 156.566 115.512C156.801 115.512 156.955 115.56 157.03 115.656C157.115 115.741 157.185 115.901 157.238 116.136C157.441 116.093 157.675 116.072 157.942 116.072ZM155.062 121.464C155.307 121.464 155.542 121.315 155.766 121.016C155.99 120.717 156.15 120.291 156.246 119.736L156.758 117C156.321 117.011 155.915 117.181 155.542 117.512C155.169 117.832 154.87 118.259 154.646 118.792C154.422 119.325 154.31 119.891 154.31 120.488C154.31 120.819 154.374 121.064 154.502 121.224C154.641 121.384 154.827 121.464 155.062 121.464ZM153.734 128.728C154.001 128.728 154.299 128.408 154.63 127.768C154.971 127.128 155.297 126.109 155.606 124.712C154.785 125.416 154.193 126.051 153.83 126.616C153.467 127.181 153.286 127.677 153.286 128.104C153.286 128.285 153.318 128.435 153.382 128.552C153.457 128.669 153.574 128.728 153.734 128.728ZM178.756 119.432C178.895 119.432 179.001 119.496 179.076 119.624C179.161 119.752 179.204 119.928 179.204 120.152C179.204 120.568 179.103 120.899 178.9 121.144C177.844 122.435 176.719 123.08 175.524 123.08C174.489 123.08 173.663 122.68 173.044 121.88C172.425 121.08 172.116 119.933 172.116 118.44C172.116 118.077 172.132 117.715 172.164 117.352C171.46 117.48 170.692 117.576 169.86 117.64C169.305 117.683 168.927 117.709 168.724 117.72C168.511 118.808 168.212 120.141 167.828 121.72C167.604 122.648 167.177 123.112 166.548 123.112C165.865 123.112 165.524 122.803 165.524 122.184C165.524 122.045 165.551 121.853 165.604 121.608C165.967 120.147 166.255 118.909 166.468 117.896L165.7 117.928C165.348 117.928 165.092 117.869 164.932 117.752C164.772 117.624 164.692 117.421 164.692 117.144C164.692 116.792 164.793 116.536 164.996 116.376C165.199 116.205 165.535 116.109 166.004 116.088L166.852 116.056C167.129 114.552 167.268 113.405 167.268 112.616C167.268 112.115 167.193 111.773 167.044 111.592C166.895 111.411 166.697 111.32 166.452 111.32C165.705 111.32 164.863 111.944 163.924 113.192C163.785 113.373 163.631 113.464 163.46 113.464C163.311 113.464 163.183 113.395 163.076 113.256C162.969 113.117 162.916 112.941 162.916 112.728C162.916 112.397 163.049 112.045 163.316 111.672C163.785 111.021 164.377 110.488 165.092 110.072C165.807 109.645 166.532 109.432 167.268 109.432C167.961 109.432 168.495 109.672 168.868 110.152C169.252 110.621 169.444 111.357 169.444 112.36C169.444 113.245 169.316 114.445 169.06 115.96L170.628 115.88C171.3 115.848 171.876 115.795 172.356 115.72C172.548 114.547 172.841 113.448 173.236 112.424C173.631 111.4 174.121 110.568 174.708 109.928C175.295 109.288 175.951 108.968 176.676 108.968C177.209 108.968 177.631 109.181 177.94 109.608C178.249 110.024 178.404 110.573 178.404 111.256C178.404 113.901 177.055 115.736 174.356 116.76C174.324 117.187 174.308 117.629 174.308 118.088C174.308 119.208 174.447 120.003 174.724 120.472C175.001 120.941 175.391 121.176 175.892 121.176C176.329 121.176 176.729 121.064 177.092 120.84C177.455 120.605 177.865 120.211 178.324 119.656C178.452 119.507 178.596 119.432 178.756 119.432ZM176.596 110.36C176.361 110.36 176.111 110.573 175.844 111C175.588 111.427 175.343 112.008 175.108 112.744C174.873 113.48 174.687 114.285 174.548 115.16C175.401 114.808 176.031 114.307 176.436 113.656C176.841 113.005 177.044 112.168 177.044 111.144C177.044 110.899 177.001 110.707 176.916 110.568C176.831 110.429 176.724 110.36 176.596 110.36ZM183.573 115.544C183.914 115.544 184.17 115.635 184.341 115.816C184.522 115.987 184.613 116.243 184.613 116.584C184.613 116.861 184.554 117.384 184.437 118.152C184.33 118.803 184.245 119.421 184.181 120.008C184.117 120.584 184.085 121.229 184.085 121.944C184.085 122.349 183.999 122.643 183.829 122.824C183.669 122.995 183.402 123.08 183.029 123.08C182.677 123.08 182.421 122.989 182.261 122.808C182.101 122.627 182.021 122.355 182.021 121.992C182.021 121.565 182.095 120.861 182.245 119.88C182.373 119.027 182.437 118.483 182.437 118.248C182.437 118.077 182.378 117.992 182.261 117.992C182.122 117.992 181.925 118.173 181.669 118.536C181.413 118.888 181.157 119.357 180.901 119.944C180.645 120.531 180.437 121.149 180.277 121.8C180.159 122.301 180.021 122.643 179.861 122.824C179.711 122.995 179.471 123.08 179.141 123.08C178.81 123.08 178.565 122.963 178.405 122.728C178.255 122.483 178.154 122.109 178.101 121.608C178.047 121.107 178.021 120.371 178.021 119.4C178.021 117.757 178.186 116.045 178.517 114.264C178.858 112.483 179.354 110.989 180.005 109.784C180.666 108.568 181.455 107.96 182.373 107.96C182.863 107.96 183.258 108.173 183.557 108.6C183.866 109.016 184.021 109.56 184.021 110.232C184.021 111.309 183.706 112.429 183.077 113.592C182.447 114.744 181.423 116.093 180.005 117.64C179.973 118.195 179.957 118.765 179.957 119.352C180.309 118.445 180.698 117.709 181.125 117.144C181.562 116.568 181.989 116.157 182.405 115.912C182.831 115.667 183.221 115.544 183.573 115.544ZM182.037 109.544C181.845 109.544 181.631 109.821 181.397 110.376C181.162 110.92 180.933 111.661 180.709 112.6C180.495 113.528 180.319 114.541 180.181 115.64C180.842 114.861 181.386 114.013 181.813 113.096C182.25 112.179 182.469 111.347 182.469 110.6C182.469 110.259 182.431 109.997 182.357 109.816C182.282 109.635 182.175 109.544 182.037 109.544ZM191.091 123.08C190.621 123.08 190.264 122.952 190.019 122.696C189.784 122.44 189.667 122.104 189.667 121.688C189.667 121.208 189.8 120.824 190.067 120.536C190.344 120.248 190.728 120.104 191.219 120.104C191.688 120.104 192.04 120.221 192.275 120.456C192.52 120.68 192.643 121.016 192.643 121.464C192.643 121.955 192.504 122.349 192.227 122.648C191.949 122.936 191.571 123.08 191.091 123.08ZM195.2 123.08C194.731 123.08 194.373 122.952 194.128 122.696C193.893 122.44 193.776 122.104 193.776 121.688C193.776 121.208 193.909 120.824 194.176 120.536C194.453 120.248 194.837 120.104 195.328 120.104C195.797 120.104 196.149 120.221 196.384 120.456C196.629 120.68 196.752 121.016 196.752 121.464C196.752 121.955 196.613 122.349 196.336 122.648C196.059 122.936 195.68 123.08 195.2 123.08ZM199.31 123.08C198.84 123.08 198.483 122.952 198.238 122.696C198.003 122.44 197.886 122.104 197.886 121.688C197.886 121.208 198.019 120.824 198.286 120.536C198.563 120.248 198.947 120.104 199.438 120.104C199.907 120.104 200.259 120.221 200.494 120.456C200.739 120.68 200.862 121.016 200.862 121.464C200.862 121.955 200.723 122.349 200.446 122.648C200.168 122.936 199.79 123.08 199.31 123.08Z" fill="#FAFAFA"/>
<path d="M3.136 147.08C2.86933 147.08 2.63467 147 2.432 146.84C2.22933 146.68 2.128 146.429 2.128 146.088L2.144 145.912C2.26133 144.813 2.4 143.672 2.56 142.488C2.73067 141.293 2.87467 140.376 2.992 139.736L1.744 140.088L1.552 140.12C1.34933 140.12 1.18933 140.04 1.072 139.88C0.954667 139.72 0.896 139.539 0.896 139.336L0.912 139.192C0.933333 138.989 0.997333 138.824 1.104 138.696C1.21067 138.568 1.41333 138.44 1.712 138.312C2.02133 138.184 2.48 138.045 3.088 137.896L3.76 137.736C4.00533 137.683 4.208 137.656 4.368 137.656C4.67733 137.656 4.90667 137.736 5.056 137.896C5.216 138.056 5.296 138.28 5.296 138.568C5.296 138.696 5.28 138.835 5.248 138.984C5.07733 139.816 4.752 142.184 4.272 146.088C4.18667 146.749 3.808 147.08 3.136 147.08ZM17.866 145.208C18.09 145.208 18.2607 145.283 18.378 145.432C18.4953 145.581 18.554 145.768 18.554 145.992C18.554 146.269 18.4633 146.52 18.282 146.744C18.1113 146.957 17.8767 147.064 17.578 147.064C17.066 147.064 16.3033 147.027 15.29 146.952C15.0873 146.941 14.714 146.92 14.17 146.888C13.626 146.856 13.1993 146.84 12.89 146.84C12.7513 146.84 12.5487 146.888 12.282 146.984C12.2287 146.995 12.122 147.021 11.962 147.064C11.8127 147.107 11.6847 147.128 11.578 147.128C11.4073 147.128 11.2633 147.053 11.146 146.904C11.0393 146.744 10.986 146.509 10.986 146.2C10.986 145.859 11.066 145.597 11.226 145.416C11.386 145.224 11.6367 145.053 11.978 144.904C12.7033 144.584 13.386 144.179 14.026 143.688C14.6767 143.187 15.194 142.648 15.578 142.072C15.9727 141.496 16.17 140.947 16.17 140.424C16.17 140.008 16.074 139.704 15.882 139.512C15.7007 139.309 15.4073 139.208 15.002 139.208C14.5327 139.208 14.154 139.336 13.866 139.592C13.5887 139.848 13.45 140.205 13.45 140.664C13.45 141.293 13.1353 141.608 12.506 141.608C12.2073 141.608 11.9727 141.523 11.802 141.352C11.642 141.181 11.562 140.936 11.562 140.616C11.562 140.083 11.7007 139.592 11.978 139.144C12.2553 138.696 12.6713 138.339 13.226 138.072C13.7807 137.795 14.458 137.656 15.258 137.656C16.218 137.656 16.97 137.896 17.514 138.376C18.058 138.856 18.33 139.523 18.33 140.376C18.33 141.187 17.9727 142.035 17.258 142.92C16.554 143.805 15.5353 144.589 14.202 145.272L17.866 145.208ZM29.1175 142.44C29.6615 142.515 30.1148 142.739 30.4775 143.112C30.8508 143.485 31.0375 143.955 31.0375 144.52C31.0375 145.064 30.8722 145.528 30.5415 145.912C30.2108 146.296 29.7628 146.589 29.1975 146.792C28.6428 146.984 28.0348 147.08 27.3735 147.08C26.2108 147.08 25.3362 146.877 24.7495 146.472C24.1735 146.067 23.8855 145.56 23.8855 144.952C23.8855 144.6 23.9708 144.328 24.1415 144.136C24.3122 143.933 24.5415 143.832 24.8295 143.832C25.0748 143.832 25.2562 143.896 25.3735 144.024C25.5015 144.141 25.6082 144.349 25.6935 144.648C25.7682 144.936 25.9228 145.155 26.1575 145.304C26.3922 145.453 26.7548 145.528 27.2455 145.528C27.7148 145.528 28.0988 145.443 28.3975 145.272C28.7068 145.091 28.8615 144.819 28.8615 144.456C28.8615 144.083 28.7175 143.811 28.4295 143.64C28.1415 143.459 27.6935 143.357 27.0855 143.336C26.8615 143.325 26.6908 143.251 26.5735 143.112C26.4668 142.963 26.4135 142.787 26.4135 142.584C26.4135 142.328 26.4562 142.147 26.5415 142.04C26.6375 141.923 26.7975 141.843 27.0215 141.8C27.7255 141.693 28.2322 141.491 28.5415 141.192C28.8615 140.883 29.0215 140.515 29.0215 140.088C29.0215 139.501 28.6162 139.208 27.8055 139.208C26.9095 139.208 26.3815 139.56 26.2215 140.264C26.1468 140.552 26.0348 140.76 25.8855 140.888C25.7468 141.005 25.5495 141.064 25.2935 141.064C25.0055 141.064 24.7815 140.984 24.6215 140.824C24.4722 140.653 24.3975 140.429 24.3975 140.152C24.3975 139.725 24.5468 139.32 24.8455 138.936C25.1442 138.552 25.5655 138.243 26.1095 138.008C26.6642 137.773 27.3095 137.656 28.0455 137.656C29.0695 137.656 29.8535 137.853 30.3975 138.248C30.9415 138.643 31.2135 139.229 31.2135 140.008C31.2135 140.52 31.0162 141 30.6215 141.448C30.2375 141.885 29.7362 142.216 29.1175 142.44ZM43.9684 143.4C44.5337 143.4 44.8164 143.64 44.8164 144.12C44.8164 144.504 44.7097 144.771 44.4964 144.92C44.283 145.069 43.947 145.144 43.4884 145.144H43.1524L43.0884 145.992C43.0564 146.483 42.9497 146.813 42.7684 146.984C42.5977 147.155 42.315 147.24 41.9204 147.24C41.355 147.24 41.0724 146.893 41.0724 146.2C41.0724 146.083 41.0777 145.992 41.0884 145.928L41.1684 145.144C39.6217 145.144 38.4484 145.139 37.6484 145.128C37.4137 145.128 37.2057 145.021 37.0244 144.808C36.843 144.595 36.7524 144.317 36.7524 143.976C36.7524 143.773 36.7897 143.56 36.8644 143.336C37.3337 141.971 38.0377 140.419 38.9764 138.68C39.179 138.307 39.3817 138.045 39.5844 137.896C39.7977 137.736 40.123 137.656 40.5604 137.656C40.795 137.656 40.971 137.709 41.0884 137.816C41.2164 137.923 41.2804 138.061 41.2804 138.232C41.2804 138.413 41.227 138.595 41.1204 138.776C40.075 140.685 39.339 142.227 38.9124 143.4H41.3764C41.5044 142.408 41.6804 141.464 41.9044 140.568C41.9897 140.237 42.1284 139.987 42.3204 139.816C42.5124 139.635 42.779 139.544 43.1204 139.544C43.6644 139.544 43.9364 139.779 43.9364 140.248C43.9364 140.387 43.9257 140.493 43.9044 140.568C43.7124 141.475 43.5417 142.419 43.3924 143.4H43.9684ZM53.9971 139.368C53.6878 139.368 53.4638 139.373 53.3251 139.384C53.1865 139.853 53.0318 140.493 52.8611 141.304C54.2371 141.379 55.2825 141.661 55.9971 142.152C56.7118 142.643 57.0691 143.309 57.0691 144.152C57.0691 144.707 56.9251 145.208 56.6371 145.656C56.3598 146.093 55.9491 146.44 55.4051 146.696C54.8611 146.952 54.2211 147.08 53.4851 147.08C52.4931 147.08 51.6931 146.888 51.0851 146.504C50.4878 146.12 50.1891 145.603 50.1891 144.952C50.1891 144.6 50.2691 144.328 50.4291 144.136C50.5998 143.933 50.8345 143.832 51.1331 143.832C51.3678 143.832 51.5491 143.896 51.6771 144.024C51.8051 144.141 51.9118 144.349 51.9971 144.648C52.1785 145.299 52.7278 145.624 53.6451 145.624C54.0398 145.624 54.3651 145.507 54.6211 145.272C54.8771 145.027 55.0051 144.728 55.0051 144.376C55.0051 143.437 54.0078 142.936 52.0131 142.872C51.5865 142.861 51.2771 142.792 51.0851 142.664C50.9038 142.536 50.8131 142.339 50.8131 142.072C50.8131 141.944 50.8291 141.811 50.8611 141.672L51.0371 140.904C51.1011 140.595 51.2078 140.12 51.3571 139.48H51.3251C51.1118 139.48 50.9411 139.432 50.8131 139.336C50.6851 139.229 50.6211 139.085 50.6211 138.904C50.6211 138.381 50.8771 138.04 51.3891 137.88C51.8691 137.731 52.7331 137.656 53.9811 137.656C54.8771 137.656 55.5278 137.672 55.9331 137.704C56.3385 137.725 56.6531 137.763 56.8771 137.816C57.0905 137.869 57.2398 137.944 57.3251 138.04C57.4105 138.125 57.4531 138.259 57.4531 138.44C57.4531 138.803 57.3785 139.064 57.2291 139.224C57.0905 139.373 56.8505 139.448 56.5091 139.448C56.3385 139.448 56.0078 139.437 55.5171 139.416C54.6211 139.384 54.1145 139.368 53.9971 139.368ZM67.0888 139.24C66.4701 139.24 65.9634 139.485 65.5688 139.976C65.1848 140.456 64.9448 141.176 64.8488 142.136C65.1261 141.816 65.4408 141.592 65.7928 141.464C66.1448 141.325 66.5341 141.256 66.9608 141.256C67.4941 141.256 67.9688 141.368 68.3848 141.592C68.8114 141.816 69.1421 142.131 69.3768 142.536C69.6114 142.931 69.7288 143.373 69.7288 143.864C69.7288 144.472 69.5848 145.021 69.2968 145.512C69.0194 145.992 68.6088 146.376 68.0648 146.664C67.5314 146.941 66.8968 147.08 66.1608 147.08C65.0621 147.08 64.2194 146.739 63.6328 146.056C63.0568 145.363 62.7688 144.408 62.7688 143.192C62.7688 142.104 62.9501 141.144 63.3128 140.312C63.6861 139.469 64.2088 138.819 64.8808 138.36C65.5634 137.891 66.3581 137.656 67.2648 137.656C68.0861 137.656 68.7581 137.848 69.2808 138.232C69.8141 138.605 70.1181 139.101 70.1927 139.72L70.2088 139.896C70.2088 140.173 70.1181 140.392 69.9368 140.552C69.7661 140.701 69.5208 140.776 69.2008 140.776C68.9661 140.776 68.7741 140.717 68.6248 140.6C68.4861 140.472 68.3634 140.259 68.2568 139.96C68.1714 139.736 68.0274 139.56 67.8248 139.432C67.6328 139.304 67.3874 139.24 67.0888 139.24ZM66.4808 142.856C66.0221 142.856 65.6648 142.984 65.4088 143.24C65.1528 143.496 65.0248 143.837 65.0248 144.264C65.0248 144.648 65.1314 144.952 65.3448 145.176C65.5581 145.4 65.8568 145.512 66.2408 145.512C66.6674 145.512 67.0088 145.379 67.2648 145.112C67.5314 144.835 67.6648 144.477 67.6648 144.04C67.6648 143.677 67.5581 143.389 67.3448 143.176C67.1314 142.963 66.8434 142.856 66.4808 142.856ZM82.5554 137.688C82.726 137.688 82.8647 137.768 82.9714 137.928C83.0887 138.077 83.1474 138.307 83.1474 138.616C83.1474 138.904 83.0887 139.123 82.9714 139.272C82.854 139.411 82.7047 139.539 82.5234 139.656C82.3527 139.773 82.23 139.859 82.1554 139.912C81.0247 140.691 80.2354 141.581 79.7874 142.584C79.35 143.587 79.0834 144.659 78.9874 145.8C78.9447 146.248 78.822 146.573 78.6194 146.776C78.4274 146.979 78.182 147.08 77.8834 147.08C77.5847 147.08 77.334 146.979 77.1314 146.776C76.9287 146.563 76.8274 146.195 76.8274 145.672C76.8274 145.064 76.9394 144.397 77.1634 143.672C77.398 142.936 77.766 142.205 78.2674 141.48C78.7794 140.755 79.4247 140.109 80.2034 139.544L76.2674 139.608C76.0434 139.608 75.8727 139.533 75.7554 139.384C75.638 139.235 75.5794 139.048 75.5794 138.824C75.5794 138.547 75.6647 138.301 75.8354 138.088C76.0167 137.864 76.2567 137.752 76.5554 137.752C77.078 137.752 77.8407 137.789 78.8434 137.864C79.046 137.875 79.4194 137.896 79.9634 137.928C80.5074 137.96 80.934 137.976 81.2434 137.976C81.382 137.976 81.5847 137.928 81.8514 137.832C81.9047 137.821 82.006 137.795 82.1554 137.752C82.3154 137.709 82.4487 137.688 82.5554 137.688ZM93.0949 142.248C94.1402 142.781 94.6629 143.496 94.6629 144.392C94.6629 144.925 94.5082 145.395 94.1989 145.8C93.9002 146.205 93.4735 146.52 92.9189 146.744C92.3642 146.968 91.7189 147.08 90.9829 147.08C89.9482 147.08 89.1375 146.877 88.5509 146.472C87.9749 146.067 87.6869 145.501 87.6869 144.776C87.6869 144.317 87.8255 143.896 88.1029 143.512C88.3802 143.128 88.8282 142.771 89.4469 142.44C89.0629 142.184 88.7695 141.88 88.5669 141.528C88.3749 141.165 88.2789 140.787 88.2789 140.392C88.2789 139.539 88.5989 138.872 89.2389 138.392C89.8789 137.901 90.7482 137.656 91.8469 137.656C92.7535 137.656 93.4789 137.853 94.0229 138.248C94.5775 138.643 94.8549 139.176 94.8549 139.848C94.8549 140.339 94.7162 140.781 94.4389 141.176C94.1615 141.56 93.7135 141.917 93.0949 142.248ZM91.7189 139.208C91.2709 139.208 90.9135 139.304 90.6469 139.496C90.3802 139.677 90.2469 139.944 90.2469 140.296C90.2469 140.776 90.6522 141.203 91.4629 141.576C92.0069 141.309 92.3855 141.059 92.5989 140.824C92.8229 140.589 92.9349 140.344 92.9349 140.088C92.9349 139.501 92.5295 139.208 91.7189 139.208ZM91.0629 145.528C91.5642 145.528 91.9589 145.443 92.2469 145.272C92.5349 145.101 92.6789 144.867 92.6789 144.568C92.6789 144.333 92.5509 144.109 92.2949 143.896C92.0495 143.683 91.5909 143.427 90.9189 143.128C90.4282 143.352 90.0869 143.581 89.8949 143.816C89.7029 144.051 89.6069 144.307 89.6069 144.584C89.6069 144.883 89.7349 145.117 89.9909 145.288C90.2575 145.448 90.6149 145.528 91.0629 145.528ZM104.157 137.656C105.255 137.656 106.093 138.003 106.669 138.696C107.255 139.379 107.549 140.328 107.549 141.544C107.549 142.632 107.362 143.597 106.989 144.44C106.626 145.272 106.103 145.923 105.421 146.392C104.749 146.851 103.959 147.08 103.053 147.08C102.231 147.08 101.554 146.893 101.021 146.52C100.498 146.136 100.199 145.635 100.125 145.016L100.109 144.84C100.109 144.563 100.194 144.349 100.365 144.2C100.546 144.04 100.797 143.96 101.117 143.96C101.351 143.96 101.538 144.024 101.677 144.152C101.826 144.269 101.954 144.477 102.061 144.776C102.146 145 102.285 145.176 102.477 145.304C102.679 145.432 102.93 145.496 103.229 145.496C103.847 145.496 104.349 145.256 104.733 144.776C105.127 144.285 105.373 143.56 105.469 142.6C105.191 142.92 104.877 143.149 104.525 143.288C104.173 143.416 103.783 143.48 103.357 143.48C102.823 143.48 102.343 143.368 101.917 143.144C101.501 142.92 101.175 142.611 100.941 142.216C100.706 141.811 100.589 141.363 100.589 140.872C100.589 140.264 100.727 139.72 101.005 139.24C101.293 138.749 101.703 138.365 102.237 138.088C102.781 137.8 103.421 137.656 104.157 137.656ZM103.837 141.88C104.295 141.88 104.653 141.752 104.909 141.496C105.165 141.24 105.293 140.899 105.293 140.472C105.293 140.088 105.186 139.784 104.973 139.56C104.759 139.336 104.461 139.224 104.077 139.224C103.65 139.224 103.303 139.363 103.037 139.64C102.781 139.907 102.653 140.259 102.653 140.696C102.653 141.059 102.759 141.347 102.973 141.56C103.186 141.773 103.474 141.88 103.837 141.88Z" fill="#FAFAFA"/>
</svg>
