<svg width="368" height="98" viewBox="0 0 368 98" fill="none" xmlns="http://www.w3.org/2000/svg">
<rect width="80" height="74" rx="12" fill="#111826"/>
<path opacity="0.5" d="M14.5994 96L16.5085 84.3636H17.6449L15.7358 96H14.5994ZM9.30398 92.7727L9.4858 91.6364H18.1676L17.9858 92.7727H9.30398ZM10.5085 96L12.4176 84.3636H13.554L11.6449 96H10.5085ZM9.9858 88.7273L10.1676 87.5909H18.8494L18.6676 88.7273H9.9858ZM24.4205 84.3636V96H23.0114V85.8409H22.9432L20.1023 87.7273V86.2955L23.0114 84.3636H24.4205ZM31.858 84.3636V96H30.4489V85.8409H30.3807L27.5398 87.7273V86.2955L30.4489 84.3636H31.858ZM39.2955 84.3636V96H37.8864V85.8409H37.8182L34.9773 87.7273V86.2955L37.8864 84.3636H39.2955ZM46.3693 96.1591C45.589 96.1591 44.8996 96.0208 44.3011 95.7443C43.7064 95.464 43.2424 95.0795 42.9091 94.5909C42.5758 94.0985 42.411 93.5379 42.4148 92.9091C42.411 92.4167 42.5076 91.9621 42.7045 91.5455C42.9015 91.125 43.1705 90.7746 43.5114 90.4943C43.8561 90.2102 44.2405 90.0303 44.6648 89.9545V89.8864C44.108 89.7424 43.6648 89.4299 43.3352 88.9489C43.0057 88.464 42.8428 87.9129 42.8466 87.2955C42.8428 86.7045 42.9924 86.1761 43.2955 85.7102C43.5985 85.2443 44.0152 84.8769 44.5455 84.608C45.0795 84.339 45.6875 84.2045 46.3693 84.2045C47.0436 84.2045 47.6458 84.339 48.1761 84.608C48.7064 84.8769 49.1231 85.2443 49.4261 85.7102C49.733 86.1761 49.8883 86.7045 49.892 87.2955C49.8883 87.9129 49.7197 88.464 49.3864 88.9489C49.0568 89.4299 48.6193 89.7424 48.0739 89.8864V89.9545C48.4943 90.0303 48.8731 90.2102 49.2102 90.4943C49.5473 90.7746 49.8163 91.125 50.017 91.5455C50.2178 91.9621 50.3201 92.4167 50.3239 92.9091C50.3201 93.5379 50.1496 94.0985 49.8125 94.5909C49.4792 95.0795 49.0152 95.464 48.4205 95.7443C47.8295 96.0208 47.1458 96.1591 46.3693 96.1591ZM46.3693 94.9091C46.8958 94.9091 47.3504 94.8239 47.733 94.6534C48.1155 94.483 48.411 94.2424 48.6193 93.9318C48.8277 93.6212 48.9337 93.2576 48.9375 92.8409C48.9337 92.4015 48.8201 92.0133 48.5966 91.6761C48.3731 91.339 48.0682 91.0739 47.6818 90.8807C47.2992 90.6875 46.8617 90.5909 46.3693 90.5909C45.8731 90.5909 45.4299 90.6875 45.0398 90.8807C44.6534 91.0739 44.3485 91.339 44.125 91.6761C43.9053 92.0133 43.7973 92.4015 43.8011 92.8409C43.7973 93.2576 43.8977 93.6212 44.1023 93.9318C44.3106 94.2424 44.608 94.483 44.9943 94.6534C45.3807 94.8239 45.839 94.9091 46.3693 94.9091ZM46.3693 89.3864C46.786 89.3864 47.1553 89.303 47.4773 89.1364C47.803 88.9697 48.0587 88.7367 48.2443 88.4375C48.4299 88.1383 48.5246 87.7879 48.5284 87.3864C48.5246 86.9924 48.4318 86.6496 48.25 86.358C48.0682 86.0625 47.8163 85.8352 47.4943 85.6761C47.1723 85.5133 46.7973 85.4318 46.3693 85.4318C45.9337 85.4318 45.553 85.5133 45.2273 85.6761C44.9015 85.8352 44.6496 86.0625 44.4716 86.358C44.2936 86.6496 44.2064 86.9924 44.2102 87.3864C44.2064 87.7879 44.2955 88.1383 44.4773 88.4375C44.6629 88.7367 44.9186 88.9697 45.2443 89.1364C45.5701 89.303 45.9451 89.3864 46.3693 89.3864ZM52.5014 96V94.9773L56.3423 90.7727C56.7931 90.2803 57.1643 89.8523 57.456 89.4886C57.7476 89.1212 57.9635 88.7765 58.1037 88.4545C58.2476 88.1288 58.3196 87.7879 58.3196 87.4318C58.3196 87.0227 58.2211 86.6686 58.0241 86.3693C57.831 86.0701 57.5658 85.839 57.2287 85.6761C56.8916 85.5133 56.5128 85.4318 56.0923 85.4318C55.6454 85.4318 55.2552 85.5246 54.9219 85.7102C54.5923 85.892 54.3366 86.1477 54.1548 86.4773C53.9768 86.8068 53.8878 87.1932 53.8878 87.6364H52.5469C52.5469 86.9545 52.7041 86.3561 53.0185 85.8409C53.3329 85.3258 53.7609 84.9242 54.3026 84.6364C54.848 84.3485 55.4598 84.2045 56.1378 84.2045C56.8196 84.2045 57.4238 84.3485 57.9503 84.6364C58.4768 84.9242 58.8897 85.3125 59.1889 85.8011C59.4882 86.2898 59.6378 86.8333 59.6378 87.4318C59.6378 87.8598 59.5601 88.2784 59.4048 88.6875C59.2533 89.0928 58.9882 89.5455 58.6094 90.0455C58.2344 90.5417 57.7135 91.1477 57.0469 91.8636L54.4332 94.6591V94.75H59.8423V96H52.5014ZM66.0526 96.1591C65.5753 96.1515 65.098 96.0606 64.6207 95.8864C64.1435 95.7121 63.7079 95.4186 63.3139 95.0057C62.92 94.589 62.6037 94.0265 62.3651 93.3182C62.1264 92.6061 62.0071 91.7121 62.0071 90.6364C62.0071 89.6061 62.1037 88.6932 62.2969 87.8977C62.4901 87.0985 62.7704 86.4261 63.1378 85.8807C63.5052 85.3314 63.9484 84.9148 64.4673 84.6307C64.9901 84.3466 65.5791 84.2045 66.2344 84.2045C66.8859 84.2045 67.4654 84.3352 67.973 84.5966C68.4844 84.8542 68.901 85.214 69.223 85.6761C69.545 86.1383 69.7533 86.6705 69.848 87.2727H68.4616C68.3329 86.75 68.0829 86.3163 67.7116 85.9716C67.3404 85.6269 66.848 85.4545 66.2344 85.4545C65.3329 85.4545 64.6226 85.8466 64.1037 86.6307C63.5885 87.4148 63.3291 88.5152 63.3253 89.9318H63.4162C63.6283 89.6098 63.8802 89.3352 64.1719 89.108C64.4673 88.8769 64.7931 88.6989 65.1491 88.5739C65.5052 88.4489 65.8821 88.3864 66.2798 88.3864C66.9465 88.3864 67.5563 88.553 68.1094 88.8864C68.6624 89.2159 69.1056 89.6723 69.4389 90.2557C69.7723 90.8352 69.9389 91.5 69.9389 92.25C69.9389 92.9697 69.7779 93.6288 69.456 94.2273C69.134 94.822 68.6813 95.2955 68.098 95.6477C67.5185 95.9962 66.8366 96.1667 66.0526 96.1591ZM66.0526 94.9091C66.5298 94.9091 66.9579 94.7898 67.3366 94.5511C67.7192 94.3125 68.0204 93.9924 68.2401 93.5909C68.4635 93.1894 68.5753 92.7424 68.5753 92.25C68.5753 91.7689 68.4673 91.3314 68.2514 90.9375C68.0393 90.5398 67.7457 90.2235 67.3707 89.9886C66.9995 89.7538 66.5753 89.6364 66.098 89.6364C65.7382 89.6364 65.4029 89.7083 65.0923 89.8523C64.7817 89.9924 64.509 90.1856 64.2741 90.4318C64.0431 90.678 63.8613 90.9602 63.7287 91.2784C63.5961 91.5928 63.5298 91.9242 63.5298 92.2727C63.5298 92.7348 63.6378 93.1667 63.8537 93.5682C64.0734 93.9697 64.3726 94.2936 64.7514 94.5398C65.134 94.786 65.5677 94.9091 66.0526 94.9091Z" fill="#FAFAFA"/>
<rect x="96" width="80" height="74" rx="12" fill="#D20F4E"/>
<path opacity="0.5" d="M106.318 96L108.227 84.3636H109.364L107.455 96H106.318ZM101.023 92.7727L101.205 91.6364H109.886L109.705 92.7727H101.023ZM102.227 96L104.136 84.3636H105.273L103.364 96H102.227ZM101.705 88.7273L101.886 87.5909H110.568L110.386 88.7273H101.705ZM115.844 96H112.253V84.3636H116.003C117.132 84.3636 118.098 84.5966 118.901 85.0625C119.704 85.5246 120.319 86.1894 120.747 87.0568C121.175 87.9205 121.389 88.9545 121.389 90.1591C121.389 91.3712 121.173 92.4148 120.741 93.2898C120.31 94.161 119.681 94.8314 118.855 95.3011C118.029 95.767 117.026 96 115.844 96ZM113.662 94.75H115.753C116.715 94.75 117.512 94.5644 118.145 94.1932C118.777 93.822 119.249 93.2936 119.56 92.608C119.87 91.9223 120.026 91.1061 120.026 90.1591C120.026 89.2197 119.872 88.411 119.565 87.733C119.259 87.0511 118.8 86.5284 118.19 86.1648C117.58 85.7973 116.821 85.6136 115.912 85.6136H113.662V94.75ZM123.548 96V94.9773L127.389 90.7727C127.84 90.2803 128.211 89.8523 128.503 89.4886C128.795 89.1212 129.01 88.7765 129.151 88.4545C129.295 88.1288 129.366 87.7879 129.366 87.4318C129.366 87.0227 129.268 86.6686 129.071 86.3693C128.878 86.0701 128.613 85.839 128.276 85.6761C127.938 85.5133 127.56 85.4318 127.139 85.4318C126.692 85.4318 126.302 85.5246 125.969 85.7102C125.639 85.892 125.384 86.1477 125.202 86.4773C125.024 86.8068 124.935 87.1932 124.935 87.6364H123.594C123.594 86.9545 123.751 86.3561 124.065 85.8409C124.38 85.3258 124.808 84.9242 125.349 84.6364C125.895 84.3485 126.507 84.2045 127.185 84.2045C127.866 84.2045 128.471 84.3485 128.997 84.6364C129.524 84.9242 129.937 85.3125 130.236 85.8011C130.535 86.2898 130.685 86.8333 130.685 87.4318C130.685 87.8598 130.607 88.2784 130.452 88.6875C130.3 89.0928 130.035 89.5455 129.656 90.0455C129.281 90.5417 128.76 91.1477 128.094 91.8636L125.48 94.6591V94.75H130.889V96H123.548ZM137.031 96.1591C136.175 96.1591 135.446 95.9261 134.844 95.4602C134.241 94.9905 133.781 94.3106 133.463 93.4205C133.145 92.5265 132.986 91.447 132.986 90.1818C132.986 88.9242 133.145 87.8504 133.463 86.9602C133.785 86.0663 134.247 85.3845 134.849 84.9148C135.455 84.4413 136.183 84.2045 137.031 84.2045C137.88 84.2045 138.605 84.4413 139.207 84.9148C139.813 85.3845 140.276 86.0663 140.594 86.9602C140.916 87.8504 141.077 88.9242 141.077 90.1818C141.077 91.447 140.918 92.5265 140.599 93.4205C140.281 94.3106 139.821 94.9905 139.219 95.4602C138.616 95.9261 137.887 96.1591 137.031 96.1591ZM137.031 94.9091C137.88 94.9091 138.539 94.5 139.009 93.6818C139.478 92.8636 139.713 91.697 139.713 90.1818C139.713 89.1742 139.605 88.3163 139.389 87.608C139.177 86.8996 138.87 86.3598 138.469 85.9886C138.071 85.6174 137.592 85.4318 137.031 85.4318C136.19 85.4318 135.533 85.8466 135.06 86.6761C134.586 87.5019 134.349 88.6705 134.349 90.1818C134.349 91.1894 134.455 92.0455 134.668 92.75C134.88 93.4545 135.185 93.9905 135.582 94.358C135.984 94.7254 136.467 94.9091 137.031 94.9091ZM143.44 96V84.3636H150.418V85.6136H144.849V89.5455H149.895V90.7955H144.849V96H143.44ZM152.354 93.6136V92.4545L157.467 84.3636H158.308V86.1591H157.74L153.876 92.2727V92.3636H160.763V93.6136H152.354ZM157.831 96V93.2614V92.7216V84.3636H159.172V96H157.831ZM163.097 96V84.3636H170.119V85.6136H164.506V89.5455H169.756V90.7955H164.506V94.75H170.21V96H163.097Z" fill="#FAFAFA"/>
<rect x="192" width="80" height="74" rx="12" fill="#A3137C"/>
<path opacity="0.5" d="M202.818 96L204.727 84.3636H205.864L203.955 96H202.818ZM197.523 92.7727L197.705 91.6364H206.386L206.205 92.7727H197.523ZM198.727 96L200.636 84.3636H201.773L199.864 96H198.727ZM198.205 88.7273L198.386 87.5909H207.068L206.886 88.7273H198.205ZM209.23 96H207.753L212.026 84.3636H213.48L217.753 96H216.276L212.798 86.2045H212.707L209.23 96ZM209.776 91.4545H215.73V92.7045H209.776V91.4545ZM223.293 96.1591C222.543 96.1591 221.874 96.0303 221.287 95.7727C220.704 95.5152 220.24 95.1572 219.895 94.6989C219.554 94.2367 219.368 93.7008 219.338 93.0909H220.77C220.8 93.4659 220.929 93.7898 221.156 94.0625C221.384 94.3314 221.681 94.5398 222.048 94.6875C222.416 94.8352 222.823 94.9091 223.27 94.9091C223.77 94.9091 224.213 94.822 224.599 94.6477C224.986 94.4735 225.289 94.2311 225.509 93.9205C225.728 93.6098 225.838 93.25 225.838 92.8409C225.838 92.4129 225.732 92.036 225.52 91.7102C225.308 91.3807 224.997 91.1231 224.588 90.9375C224.179 90.7519 223.679 90.6591 223.088 90.6591H222.156V89.4091H223.088C223.55 89.4091 223.955 89.3258 224.304 89.1591C224.656 88.9924 224.931 88.7576 225.128 88.4545C225.329 88.1515 225.429 87.7955 225.429 87.3864C225.429 86.9924 225.342 86.6496 225.168 86.358C224.993 86.0663 224.747 85.839 224.429 85.6761C224.115 85.5133 223.743 85.4318 223.315 85.4318C222.914 85.4318 222.535 85.5057 222.179 85.6534C221.827 85.7973 221.539 86.0076 221.315 86.2841C221.092 86.5568 220.971 86.8864 220.952 87.2727H219.588C219.611 86.6629 219.795 86.1288 220.139 85.6705C220.484 85.2083 220.935 84.8485 221.491 84.5909C222.052 84.3333 222.668 84.2045 223.338 84.2045C224.058 84.2045 224.675 84.3504 225.19 84.642C225.705 84.9299 226.101 85.3106 226.378 85.7841C226.654 86.2576 226.793 86.7689 226.793 87.3182C226.793 87.9735 226.62 88.5322 226.276 88.9943C225.935 89.4564 225.471 89.7765 224.884 89.9545V90.0455C225.618 90.1667 226.192 90.4792 226.605 90.983C227.018 91.483 227.224 92.1023 227.224 92.8409C227.224 93.4735 227.052 94.0417 226.707 94.5455C226.366 95.0455 225.901 95.4394 225.31 95.7273C224.719 96.0152 224.046 96.1591 223.293 96.1591ZM233.639 84.3636V96H232.23V85.8409H232.162L229.321 87.7273V86.2955L232.23 84.3636H233.639ZM240.918 96.1591C240.168 96.1591 239.499 96.0303 238.912 95.7727C238.329 95.5152 237.865 95.1572 237.52 94.6989C237.179 94.2367 236.993 93.7008 236.963 93.0909H238.395C238.425 93.4659 238.554 93.7898 238.781 94.0625C239.009 94.3314 239.306 94.5398 239.673 94.6875C240.041 94.8352 240.448 94.9091 240.895 94.9091C241.395 94.9091 241.838 94.822 242.224 94.6477C242.611 94.4735 242.914 94.2311 243.134 93.9205C243.353 93.6098 243.463 93.25 243.463 92.8409C243.463 92.4129 243.357 92.036 243.145 91.7102C242.933 91.3807 242.622 91.1231 242.213 90.9375C241.804 90.7519 241.304 90.6591 240.713 90.6591H239.781V89.4091H240.713C241.175 89.4091 241.58 89.3258 241.929 89.1591C242.281 88.9924 242.556 88.7576 242.753 88.4545C242.954 88.1515 243.054 87.7955 243.054 87.3864C243.054 86.9924 242.967 86.6496 242.793 86.358C242.618 86.0663 242.372 85.839 242.054 85.6761C241.74 85.5133 241.368 85.4318 240.94 85.4318C240.539 85.4318 240.16 85.5057 239.804 85.6534C239.452 85.7973 239.164 86.0076 238.94 86.2841C238.717 86.5568 238.596 86.8864 238.577 87.2727H237.213C237.236 86.6629 237.42 86.1288 237.764 85.6705C238.109 85.2083 238.56 84.8485 239.116 84.5909C239.677 84.3333 240.293 84.2045 240.963 84.2045C241.683 84.2045 242.3 84.3504 242.815 84.642C243.33 84.9299 243.726 85.3106 244.003 85.7841C244.279 86.2576 244.418 86.7689 244.418 87.3182C244.418 87.9735 244.245 88.5322 243.901 88.9943C243.56 89.4564 243.096 89.7765 242.509 89.9545V90.0455C243.243 90.1667 243.817 90.4792 244.23 90.983C244.643 91.483 244.849 92.1023 244.849 92.8409C244.849 93.4735 244.677 94.0417 244.332 94.5455C243.991 95.0455 243.526 95.4394 242.935 95.7273C242.344 96.0152 241.671 96.1591 240.918 96.1591ZM247.537 96L252.741 85.7045V85.6136H246.741V84.3636H254.196V85.6818L249.014 96H247.537ZM265.882 88H264.473C264.39 87.5947 264.244 87.2386 264.036 86.9318C263.831 86.625 263.581 86.3674 263.286 86.1591C262.994 85.947 262.67 85.7879 262.314 85.6818C261.958 85.5758 261.587 85.5227 261.2 85.5227C260.496 85.5227 259.857 85.7008 259.286 86.0568C258.717 86.4129 258.265 86.9375 257.928 87.6307C257.594 88.3239 257.428 89.1742 257.428 90.1818C257.428 91.1894 257.594 92.0398 257.928 92.733C258.265 93.4261 258.717 93.9508 259.286 94.3068C259.857 94.6629 260.496 94.8409 261.2 94.8409C261.587 94.8409 261.958 94.7879 262.314 94.6818C262.67 94.5758 262.994 94.4186 263.286 94.2102C263.581 93.9981 263.831 93.7386 264.036 93.4318C264.244 93.1212 264.39 92.7652 264.473 92.3636H265.882C265.776 92.9583 265.583 93.4905 265.303 93.9602C265.022 94.4299 264.674 94.8295 264.257 95.1591C263.84 95.4848 263.373 95.733 262.854 95.9034C262.339 96.0739 261.787 96.1591 261.2 96.1591C260.208 96.1591 259.325 95.9167 258.553 95.4318C257.78 94.947 257.172 94.2576 256.729 93.3636C256.286 92.4697 256.064 91.4091 256.064 90.1818C256.064 88.9545 256.286 87.8939 256.729 87C257.172 86.1061 257.78 85.4167 258.553 84.9318C259.325 84.447 260.208 84.2045 261.2 84.2045C261.787 84.2045 262.339 84.2898 262.854 84.4602C263.373 84.6307 263.84 84.8807 264.257 85.2102C264.674 85.536 265.022 85.9337 265.303 86.4034C265.583 86.8693 265.776 87.4015 265.882 88Z" fill="#FAFAFA"/>
<rect x="288" width="80" height="74" rx="12" fill="#FFC600"/>
<path opacity="0.5" d="M298.318 96L300.227 84.3636H301.364L299.455 96H298.318ZM293.023 92.7727L293.205 91.6364H301.886L301.705 92.7727H293.023ZM294.227 96L296.136 84.3636H297.273L295.364 96H294.227ZM293.705 88.7273L293.886 87.5909H302.568L302.386 88.7273H293.705ZM304.253 96V84.3636H311.23V85.6136H305.662V89.5455H310.707V90.7955H305.662V96H304.253ZM313.643 96V84.3636H320.621V85.6136H315.053V89.5455H320.098V90.7955H315.053V96H313.643ZM332.398 88H330.989C330.905 87.5947 330.759 87.2386 330.551 86.9318C330.347 86.625 330.097 86.3674 329.801 86.1591C329.509 85.947 329.186 85.7879 328.83 85.6818C328.473 85.5758 328.102 85.5227 327.716 85.5227C327.011 85.5227 326.373 85.7008 325.801 86.0568C325.233 86.4129 324.78 86.9375 324.443 87.6307C324.11 88.3239 323.943 89.1742 323.943 90.1818C323.943 91.1894 324.11 92.0398 324.443 92.733C324.78 93.4261 325.233 93.9508 325.801 94.3068C326.373 94.6629 327.011 94.8409 327.716 94.8409C328.102 94.8409 328.473 94.7879 328.83 94.6818C329.186 94.5758 329.509 94.4186 329.801 94.2102C330.097 93.9981 330.347 93.7386 330.551 93.4318C330.759 93.1212 330.905 92.7652 330.989 92.3636H332.398C332.292 92.9583 332.098 93.4905 331.818 93.9602C331.538 94.4299 331.189 94.8295 330.773 95.1591C330.356 95.4848 329.888 95.733 329.369 95.9034C328.854 96.0739 328.303 96.1591 327.716 96.1591C326.723 96.1591 325.841 95.9167 325.068 95.4318C324.295 94.947 323.688 94.2576 323.244 93.3636C322.801 92.4697 322.58 91.4091 322.58 90.1818C322.58 88.9545 322.801 87.8939 323.244 87C323.688 86.1061 324.295 85.4167 325.068 84.9318C325.841 84.447 326.723 84.2045 327.716 84.2045C328.303 84.2045 328.854 84.2898 329.369 84.4602C329.888 84.6307 330.356 84.8807 330.773 85.2102C331.189 85.536 331.538 85.9337 331.818 86.4034C332.098 86.8693 332.292 87.4015 332.398 88ZM338.334 96.1591C337.857 96.1515 337.379 96.0606 336.902 95.8864C336.425 95.7121 335.989 95.4186 335.595 95.0057C335.201 94.589 334.885 94.0265 334.646 93.3182C334.408 92.6061 334.288 91.7121 334.288 90.6364C334.288 89.6061 334.385 88.6932 334.578 87.8977C334.771 87.0985 335.052 86.4261 335.419 85.8807C335.786 85.3314 336.23 84.9148 336.749 84.6307C337.271 84.3466 337.86 84.2045 338.516 84.2045C339.167 84.2045 339.747 84.3352 340.254 84.5966C340.766 84.8542 341.182 85.214 341.504 85.6761C341.826 86.1383 342.035 86.6705 342.129 87.2727H340.743C340.614 86.75 340.364 86.3163 339.993 85.9716C339.622 85.6269 339.129 85.4545 338.516 85.4545C337.614 85.4545 336.904 85.8466 336.385 86.6307C335.87 87.4148 335.61 88.5152 335.607 89.9318H335.697C335.91 89.6098 336.161 89.3352 336.453 89.108C336.749 88.8769 337.074 88.6989 337.43 88.5739C337.786 88.4489 338.163 88.3864 338.561 88.3864C339.228 88.3864 339.838 88.553 340.391 88.8864C340.944 89.2159 341.387 89.6723 341.72 90.2557C342.054 90.8352 342.22 91.5 342.22 92.25C342.22 92.9697 342.059 93.6288 341.737 94.2273C341.415 94.822 340.963 95.2955 340.379 95.6477C339.8 95.9962 339.118 96.1667 338.334 96.1591ZM338.334 94.9091C338.811 94.9091 339.239 94.7898 339.618 94.5511C340 94.3125 340.302 93.9924 340.521 93.5909C340.745 93.1894 340.857 92.7424 340.857 92.25C340.857 91.7689 340.749 91.3314 340.533 90.9375C340.321 90.5398 340.027 90.2235 339.652 89.9886C339.281 89.7538 338.857 89.6364 338.379 89.6364C338.019 89.6364 337.684 89.7083 337.374 89.8523C337.063 89.9924 336.79 90.1856 336.555 90.4318C336.324 90.678 336.143 90.9602 336.01 91.2784C335.877 91.5928 335.811 91.9242 335.811 92.2727C335.811 92.7348 335.919 93.1667 336.135 93.5682C336.355 93.9697 336.654 94.2936 337.033 94.5398C337.415 94.786 337.849 94.9091 338.334 94.9091ZM348.25 96.1591C347.394 96.1591 346.665 95.9261 346.062 95.4602C345.46 94.9905 345 94.3106 344.682 93.4205C344.364 92.5265 344.205 91.447 344.205 90.1818C344.205 88.9242 344.364 87.8504 344.682 86.9602C345.004 86.0663 345.466 85.3845 346.068 84.9148C346.674 84.4413 347.402 84.2045 348.25 84.2045C349.098 84.2045 349.824 84.4413 350.426 84.9148C351.032 85.3845 351.494 86.0663 351.812 86.9602C352.134 87.8504 352.295 88.9242 352.295 90.1818C352.295 91.447 352.136 92.5265 351.818 93.4205C351.5 94.3106 351.04 94.9905 350.438 95.4602C349.835 95.9261 349.106 96.1591 348.25 96.1591ZM348.25 94.9091C349.098 94.9091 349.758 94.5 350.227 93.6818C350.697 92.8636 350.932 91.697 350.932 90.1818C350.932 89.1742 350.824 88.3163 350.608 87.608C350.396 86.8996 350.089 86.3598 349.688 85.9886C349.29 85.6174 348.811 85.4318 348.25 85.4318C347.409 85.4318 346.752 85.8466 346.278 86.6761C345.805 87.5019 345.568 88.6705 345.568 90.1818C345.568 91.1894 345.674 92.0455 345.886 92.75C346.098 93.4545 346.403 93.9905 346.801 94.358C347.203 94.7254 347.686 94.9091 348.25 94.9091ZM358.25 96.1591C357.394 96.1591 356.665 95.9261 356.062 95.4602C355.46 94.9905 355 94.3106 354.682 93.4205C354.364 92.5265 354.205 91.447 354.205 90.1818C354.205 88.9242 354.364 87.8504 354.682 86.9602C355.004 86.0663 355.466 85.3845 356.068 84.9148C356.674 84.4413 357.402 84.2045 358.25 84.2045C359.098 84.2045 359.824 84.4413 360.426 84.9148C361.032 85.3845 361.494 86.0663 361.812 86.9602C362.134 87.8504 362.295 88.9242 362.295 90.1818C362.295 91.447 362.136 92.5265 361.818 93.4205C361.5 94.3106 361.04 94.9905 360.438 95.4602C359.835 95.9261 359.106 96.1591 358.25 96.1591ZM358.25 94.9091C359.098 94.9091 359.758 94.5 360.227 93.6818C360.697 92.8636 360.932 91.697 360.932 90.1818C360.932 89.1742 360.824 88.3163 360.608 87.608C360.396 86.8996 360.089 86.3598 359.688 85.9886C359.29 85.6174 358.811 85.4318 358.25 85.4318C357.409 85.4318 356.752 85.8466 356.278 86.6761C355.805 87.5019 355.568 88.6705 355.568 90.1818C355.568 91.1894 355.674 92.0455 355.886 92.75C356.098 93.4545 356.403 93.9905 356.801 94.358C357.203 94.7254 357.686 94.9091 358.25 94.9091Z" fill="#FAFAFA"/>
</svg>
