<svg width="225" height="225" viewBox="0 0 225 225" fill="none" xmlns="http://www.w3.org/2000/svg">
<rect width="225" height="225" fill="#28282D"/>
<path d="M89.3638 105.177C88.4353 111.464 86.6695 114.707 85.4365 116.274C83.8838 118.253 81.9201 119.182 79.0583 119.304C78.1298 119.349 75.9378 119.425 72.9694 115.407C70.4729 112.027 68.3114 106.974 66.5151 100.398C69.1943 99.743 72.2083 99.5603 74.994 100.672C79.9564 102.635 83.6098 104.979 89.3638 105.177Z" fill="white"/>
<path d="M166.343 106.76C166.1 105.832 165.613 105.147 164.852 104.721C164.091 104.294 163.04 104.249 161.701 104.599C157.667 105.619 154.105 106.258 150.984 106.486C151.791 97.7032 151.365 90.0159 149.675 83.4094C148.488 78.7362 146.463 75.3416 143.586 73.2105C140.709 71.0794 137.406 70.4857 133.676 71.4447C130.647 72.221 128.075 73.7128 126.004 75.9201C123.919 78.1273 122.579 81.0043 121.955 84.5511C121.331 88.0979 121.605 92.1775 122.777 96.7899C123.949 101.402 125.898 105.238 128.607 108.313C131.317 111.388 134.727 113.58 138.867 114.889C137.604 121.922 135.792 127.996 133.433 133.11C131.058 138.225 128.486 141.132 125.685 141.848C123.295 142.457 121.209 141.909 119.443 140.219C117.678 138.529 116.216 135.759 114.664 132.06C107.981 116.077 105.256 99.058 104.343 88.9047C103.841 81.0348 102.668 75.1742 102.608 74.8849C102.075 72.2819 99.5479 70.6075 96.9449 71.125C94.3419 71.6578 92.6674 74.1847 93.185 76.7877C93.2002 76.8638 94.7224 84.5054 94.9355 93.8063C95.1943 105.543 93.2611 114.372 89.349 119.349C86.8829 122.485 83.5949 124.099 79.2718 124.266C77.8561 124.327 73.5177 124.51 68.9815 118.36C66.1197 114.493 63.6841 108.876 61.7205 101.691C59.9851 95.2981 58.95 88.8134 58.3563 83.9118C57.7627 79.0102 57.5952 75.6765 57.5952 75.6156C57.4734 72.9669 55.2205 70.9119 52.5871 71.0337C49.9384 71.1555 47.8834 73.3932 48.0051 76.0418C48.0356 76.6203 48.6901 90.2899 52.4196 104.066C54.6877 112.438 57.6561 119.151 61.2181 124.007C66.1045 130.66 71.5845 133.049 76.1208 133.689C76.7753 135.729 77.5364 138.88 77.5364 142.594C67.0939 143.005 60.2743 145.532 59.8177 145.699C57.3364 146.643 56.0882 149.413 57.0168 151.895C57.7474 153.813 59.5741 155 61.5073 155C62.0706 155 62.649 154.893 63.2122 154.68C63.2579 154.665 67.2005 153.219 73.5634 152.519C79.3783 151.879 88.4508 151.758 98.7411 154.787C101.283 155.533 103.962 154.087 104.708 151.545C105.454 149.002 104.008 146.323 101.466 145.577C96.4121 144.086 91.5866 143.233 87.1569 142.837C87.1722 138.956 86.5785 135.531 85.8935 132.852C90.2927 131.542 93.9918 129.016 96.9297 125.256C97.9343 123.977 98.8477 122.561 99.6545 121.024C100.766 125.225 101.679 127.95 101.877 128.483C104.191 134.633 107.875 144.497 111.832 149.307C115.79 154.117 120.342 155.868 125.472 154.559C131.073 153.128 136.021 148.82 140.313 141.604C144.606 134.389 147.681 125.91 149.553 116.168C153.42 115.985 157.652 115.285 162.264 114.052C164.182 113.504 165.43 112.53 166.039 111.129C166.617 109.744 166.724 108.283 166.343 106.76ZM140.207 105.208C135.823 103.396 132.915 99.6364 131.454 93.9128C130.586 90.5335 130.419 87.7935 130.952 85.6928C131.469 83.6073 132.519 82.3591 134.103 81.9481C135.214 81.6741 136.234 82.009 137.162 82.9832C138.091 83.9574 138.867 85.6776 139.491 88.1284C140.587 92.4058 140.831 98.099 140.207 105.208Z" fill="white"/>
<path d="M175.37 140.25C176.695 141.604 177.364 143.294 177.364 145.334C177.364 147.298 176.771 148.972 175.568 150.357C174.381 151.742 172.767 152.793 170.743 153.508C168.718 154.224 166.526 154.574 164.136 154.574C159.935 154.574 156.799 153.843 154.698 152.382C152.598 150.92 151.547 149.094 151.547 146.902C151.547 145.638 151.852 144.649 152.476 143.933C153.085 143.218 153.922 142.868 154.957 142.868C155.84 142.868 156.51 143.096 156.951 143.538C157.393 143.979 157.773 144.74 158.078 145.821C158.352 146.856 158.9 147.648 159.752 148.18C160.605 148.713 161.914 148.987 163.68 148.987C165.369 148.987 166.77 148.668 167.866 148.028C168.962 147.389 169.51 146.415 169.51 145.121C169.51 143.781 168.992 142.776 167.957 142.152C166.922 141.513 165.308 141.163 163.101 141.087C162.294 141.056 161.685 140.767 161.29 140.25C160.879 139.732 160.681 139.108 160.681 138.377C160.681 137.449 160.848 136.794 161.168 136.383C161.488 135.972 162.066 135.698 162.873 135.546C165.415 135.165 167.257 134.419 168.383 133.323C169.525 132.227 170.088 130.903 170.088 129.366C170.088 127.25 168.627 126.184 165.704 126.184C162.477 126.184 160.574 127.448 159.996 129.99C159.722 131.025 159.326 131.771 158.808 132.212C158.291 132.654 157.56 132.882 156.647 132.882C155.612 132.882 154.805 132.578 154.257 131.984C153.694 131.39 153.42 130.583 153.42 129.594C153.42 128.056 153.952 126.595 155.033 125.21C156.114 123.825 157.636 122.713 159.615 121.861C161.594 121.009 163.923 120.598 166.572 120.598C170.271 120.598 173.087 121.313 175.051 122.729C177.014 124.16 177.989 126.275 177.989 129.076C177.989 130.918 177.288 132.654 175.888 134.237C174.487 135.835 172.661 137.038 170.438 137.844C172.402 138.103 174.046 138.91 175.37 140.25Z" fill="white"/>
</svg>
