<svg width="201" height="81" viewBox="0 0 201 81" fill="none" xmlns="http://www.w3.org/2000/svg">
<rect width="81" height="81" rx="12" fill="#28282D"/>
<path d="M41.2615 55.2284V42.2276C47.3802 41.5269 51.7336 36.4036 51.7336 30.5594C51.7336 28.3501 51.1201 25.6023 50.0569 22.9384C49.831 22.3719 49.2818 22 48.6722 22H31.318C30.7079 22 30.1588 22.3719 29.9332 22.9385C28.9732 25.3437 28.2274 28.1789 28.2679 30.7951C28.2679 30.7976 28.2686 30.8 28.2686 30.8024C28.3868 36.5663 32.7044 41.5548 38.7279 42.2276V55.2284C34.7398 55.5548 31.6829 57.3275 31.6829 58.2187C31.6829 59.2034 35.404 60 39.9952 60C44.5863 60 48.3079 59.2034 48.3079 58.2187C48.3079 57.3275 45.2499 55.5545 41.2615 55.2284ZM32.0347 24.5335H47.9551C48.7501 26.7013 49.2001 28.8661 49.2001 30.5595C49.2001 30.9707 49.1636 31.3735 49.1111 31.7711C48.319 31.5737 47.498 31.5476 46.6173 31.8611C44.3173 32.68 42.8263 33.2045 40.4863 32.2869C38.1597 31.3738 36.6894 27.2261 33.8994 27.5417C32.791 27.6665 31.84 28.0311 30.9815 28.5375C31.1807 27.2808 31.5283 25.9151 32.0347 24.5335Z" fill="white"/>
<path d="M99.2273 48V33H101.773V48H99.2273ZM93 41.7727V39.2273H108V41.7727H93Z" fill="white"/>
<rect x="120" width="81" height="81" rx="12" fill="#28282D"/>
<path d="M179.304 40.824C179.795 40.824 180.147 40.9307 180.36 41.144C180.595 41.3573 180.712 41.6347 180.712 41.976C180.712 42.5307 180.541 43.0213 180.2 43.448C179.88 43.8747 179.368 44.0987 178.664 44.12C176.979 44.1413 175.464 44.0133 174.12 43.736C172.627 46.9147 170.824 49.56 168.712 51.672C166.621 53.7627 164.552 54.808 162.504 54.808C160.627 54.808 159.219 53.816 158.28 51.832C157.341 49.8267 156.808 47.1493 156.68 43.8C155.4 47.512 153.949 50.2747 152.328 52.088C150.728 53.9013 149.021 54.808 147.208 54.808C145.16 54.808 143.613 53.5387 142.568 51C141.523 48.44 141 45.0053 141 40.696C141 37.56 141.277 34.1147 141.832 30.36C141.981 29.2933 142.248 28.5573 142.632 28.152C143.037 27.7253 143.667 27.512 144.52 27.512C145.16 27.512 145.651 27.6507 145.992 27.928C146.355 28.2053 146.536 28.7173 146.536 29.464C146.536 29.6133 146.515 29.9013 146.472 30.328C145.832 34.7013 145.512 38.424 145.512 41.496C145.512 44.3547 145.757 46.5627 146.248 48.12C146.739 49.6773 147.4 50.456 148.232 50.456C148.979 50.456 149.875 49.6773 150.92 48.12C151.987 46.5413 153.043 44.216 154.088 41.144C155.133 38.0507 156.019 34.3707 156.744 30.104C156.915 29.1227 157.224 28.4507 157.672 28.088C158.141 27.704 158.771 27.512 159.56 27.512C160.221 27.512 160.701 27.6613 161 27.96C161.32 28.2373 161.48 28.664 161.48 29.24C161.48 29.5813 161.459 29.848 161.416 30.04C160.819 33.5173 160.52 36.9947 160.52 40.472C160.52 42.84 160.595 44.728 160.744 46.136C160.915 47.544 161.224 48.6213 161.672 49.368C162.141 50.0933 162.813 50.456 163.688 50.456C164.712 50.456 165.853 49.688 167.112 48.152C168.371 46.5947 169.523 44.664 170.568 42.36C169.267 41.5493 168.285 40.504 167.624 39.224C166.963 37.9227 166.632 36.4293 166.632 34.744C166.632 33.0587 166.888 31.64 167.4 30.488C167.933 29.3147 168.648 28.44 169.544 27.864C170.461 27.288 171.475 27 172.584 27C173.949 27 175.027 27.4907 175.816 28.472C176.627 29.4533 177.032 30.7973 177.032 32.504C177.032 34.9147 176.509 37.592 175.464 40.536C176.552 40.728 177.832 40.824 179.304 40.824ZM169.864 34.52C169.864 36.6107 170.536 38.1573 171.88 39.16C172.712 36.7707 173.128 34.7973 173.128 33.24C173.128 32.344 173.011 31.6933 172.776 31.288C172.541 30.8613 172.221 30.648 171.816 30.648C171.24 30.648 170.771 30.9893 170.408 31.672C170.045 32.3333 169.864 33.2827 169.864 34.52Z" fill="white"/>
</svg>
