<svg width="443" height="225" viewBox="0 0 443 225" fill="none" xmlns="http://www.w3.org/2000/svg">
<rect width="443" height="225" fill="#28282D"/>
<path d="M115.87 114.659C118.553 118.268 120.512 118.183 121.363 118.151C123.95 118.046 125.717 117.21 127.122 115.432C128.229 114.024 129.837 111.114 130.667 105.483C125.483 105.303 122.194 103.197 117.701 101.44C115.189 100.456 112.475 100.615 110.058 101.197C111.666 107.102 113.624 111.632 115.87 114.659Z" fill="#FAFAFA"/>
<path d="M105.524 150.156C103.778 150.156 102.138 149.097 101.478 147.372C100.627 145.15 101.766 142.663 104.001 141.816C104.683 141.562 120.831 135.635 141.546 141.71C143.835 142.387 145.155 144.779 144.473 147.055C143.792 149.33 141.386 150.632 139.098 149.965C129.826 147.245 121.64 147.351 116.403 147.922C110.676 148.547 107.099 149.849 107.067 149.859C106.545 150.06 106.035 150.156 105.524 150.156Z" fill="#FAFAFA"/>
<path d="M200.072 106.912C199.859 106.076 199.412 105.462 198.72 105.081C198.039 104.7 197.081 104.658 195.878 104.965C192.248 105.885 189.023 106.446 186.223 106.658C186.958 98.784 186.564 91.8837 185.052 85.9782C183.977 81.7872 182.146 78.7392 179.559 76.8342C176.973 74.9292 173.992 74.4 170.618 75.2467C167.882 75.9346 165.572 77.2787 163.698 79.2577C161.825 81.2368 160.601 83.8192 160.047 86.9942C159.483 90.1692 159.738 93.831 160.792 97.9691C161.846 102.107 163.602 105.547 166.04 108.298C168.478 111.05 171.565 113.019 175.28 114.193C174.152 120.501 172.512 125.941 170.373 130.523C168.233 135.106 165.902 137.709 163.379 138.355C161.218 138.905 159.344 138.419 157.748 136.895C156.151 135.371 154.831 132.894 153.437 129.582C147.135 114.596 144.74 98.5829 144.026 89.6823C144.016 89.1849 143.249 88.243 143.036 87.4069C142.674 85.9887 143.59 85.3008 142.653 84.7822C141.706 84.2637 140.418 84.2213 138.789 84.6341C138.704 84.6552 138.608 84.687 138.502 84.7293C136.777 85.3749 135.596 87.0259 135.596 88.8568C135.564 107.589 141.376 124.999 141.908 126.396C143.994 131.91 147.316 140.757 150.892 145.065C154.458 149.372 158.557 150.939 163.198 149.774C168.254 148.494 172.715 144.62 176.579 138.154C180.443 131.688 183.221 124.089 184.914 115.357C188.405 115.199 192.227 114.564 196.368 113.463C198.092 112.976 199.231 112.098 199.774 110.849C200.317 109.579 200.413 108.277 200.072 106.912ZM176.504 105.515C172.555 103.896 169.926 100.52 168.616 95.3867C167.839 92.3493 167.69 89.894 168.159 88.0207C168.627 86.1475 169.574 85.0257 171.001 84.6658C172.001 84.4118 172.917 84.7187 173.758 85.5972C174.599 86.4756 175.301 88.0102 175.865 90.2009C176.845 94.0321 177.058 99.1332 176.504 105.515Z" fill="#FAFAFA"/>
<path d="M121.15 131.211C116.722 131.211 110.591 129.581 105.257 122.363C102.043 118.014 99.3707 112.002 97.3269 104.488C93.9631 92.1268 93.367 79.8713 93.3457 79.3633C93.2392 76.9927 95.0914 74.9712 97.4759 74.8654C99.8604 74.7596 101.883 76.6011 102 78.9717C102.011 79.0882 102.585 90.8992 105.715 102.35C107.482 108.796 109.686 113.823 112.262 117.294C116.349 122.797 120.256 122.639 121.534 122.586C125.43 122.427 128.41 120.988 130.624 118.172C134.148 113.706 135.883 105.79 135.659 95.2701C135.478 86.941 134.095 80.083 134.084 80.0195C133.605 77.6912 135.127 75.4157 137.469 74.9501C139.811 74.4844 142.1 75.9872 142.568 78.3156C142.632 78.6225 144.111 85.9991 144.314 95.0796C144.591 107.79 142.281 117.347 137.437 123.485C133.616 128.332 128.378 130.925 121.885 131.19C121.651 131.211 121.406 131.211 121.15 131.211Z" fill="#FAFAFA"/>
<path d="M123.993 147.594C123.78 147.594 123.556 147.573 123.343 147.541C120.98 147.182 119.351 144.991 119.703 142.641C120.863 135.011 117.861 128.883 117.829 128.819L117.84 128.841L125.557 124.935C125.738 125.274 129.847 133.476 128.261 143.922C127.952 146.07 126.1 147.594 123.993 147.594Z" fill="#FAFAFA"/>
<path d="M190.96 146.409C189.353 143.922 188.554 140.63 188.554 136.524C188.554 134.09 188.863 130.978 189.491 127.168C190.119 123.358 192.567 112.352 193.547 109.05C194.036 107.325 194.686 106.129 195.505 105.483C196.325 104.838 197.624 104.51 199.412 104.51C202.18 104.51 203.564 105.43 203.564 107.261C203.564 108.616 200.551 117.167 199.561 122.999C198.539 128.999 198.411 134.079 198.411 136.185C198.411 137.805 198.624 139.054 199.061 139.911C199.497 140.779 200.232 141.202 201.264 141.202C202.244 141.202 203.468 140.525 204.926 139.181C206.395 137.826 208.343 135.699 210.792 132.778C211.441 132.026 212.175 131.645 212.995 131.645C213.698 131.645 214.262 131.973 214.666 132.619C215.071 133.264 215.273 134.153 215.273 135.296C215.273 137.455 214.751 139.128 213.73 140.324C208.354 146.864 203.329 150.124 198.656 150.124C195.133 150.134 192.567 148.896 190.96 146.409ZM196.336 98.7311C195.197 97.6727 194.622 96.2122 194.622 94.3178C194.622 92.4234 195.367 90.8465 196.868 89.5765C198.358 88.3065 200.221 87.6715 202.446 87.6715C204.458 87.6715 206.086 88.1583 207.332 89.132C208.577 90.1057 209.205 91.4815 209.205 93.2595C209.205 95.4185 208.503 97.133 207.087 98.403C205.671 99.673 203.798 100.308 201.467 100.308C199.189 100.308 197.485 99.7894 196.336 98.7311Z" fill="#FAFAFA"/>
<path d="M210.11 146.896C209.269 144.737 208.844 141.276 208.844 136.524C208.844 129.507 209.844 122.829 211.856 116.511C212.346 114.945 213.144 113.802 214.262 113.072C215.38 112.341 216.934 111.981 218.946 111.981C220.031 111.981 220.787 112.119 221.224 112.384C221.66 112.659 221.873 113.167 221.873 113.918C221.873 114.786 221.468 116.723 220.649 119.75C220.106 121.909 219.669 123.803 219.35 125.422C219.02 127.042 218.754 129.042 218.53 131.412C220.319 126.766 222.331 122.988 224.555 120.067C226.78 117.146 228.973 115.072 231.113 113.834C233.263 112.595 235.232 111.971 237.021 111.971C240.555 111.971 242.322 113.728 242.322 117.241C242.322 119.347 241.726 123.157 240.534 128.661C239.501 133.36 238.99 136.461 238.99 137.974C238.99 140.133 239.778 141.213 241.353 141.213C242.439 141.213 243.727 140.556 245.228 139.223C246.718 137.9 248.72 135.752 251.221 132.778C251.87 132.026 252.605 131.645 253.425 131.645C254.127 131.645 254.691 131.973 255.096 132.619C255.5 133.265 255.703 134.154 255.703 135.297C255.703 137.456 255.181 139.128 254.159 140.324C251.828 143.192 249.316 145.541 246.622 147.372C243.929 149.214 240.874 150.124 237.457 150.124C234.689 150.124 232.592 149.33 231.187 147.732C229.771 146.144 229.069 143.827 229.069 140.81C229.069 139.297 229.452 136.598 230.208 132.714C230.911 129.317 231.272 126.967 231.272 125.666C231.272 124.798 230.974 124.375 230.378 124.375C229.676 124.375 228.675 125.285 227.408 127.084C226.131 128.894 224.832 131.285 223.502 134.249C222.171 137.223 221.096 140.355 220.287 143.647C219.691 146.187 218.999 147.901 218.211 148.79C217.423 149.679 216.189 150.124 214.507 150.124C212.399 150.134 210.951 149.055 210.11 146.896Z" fill="#FAFAFA"/>
<path d="M287.105 132.64C287.51 133.286 287.712 134.175 287.712 135.318C287.712 137.477 287.19 139.149 286.168 140.345C284.157 142.779 281.325 145.012 277.653 147.065C273.991 149.118 270.063 150.145 265.879 150.145C260.174 150.145 255.745 148.61 252.594 145.531C249.443 142.451 247.868 138.239 247.868 132.894C247.868 129.169 248.656 125.697 250.231 122.48C251.807 119.263 253.989 116.712 256.788 114.828C259.588 112.934 262.75 111.992 266.284 111.992C269.435 111.992 271.957 112.923 273.863 114.786C275.768 116.649 276.716 119.178 276.716 122.364C276.716 126.089 275.375 129.285 272.681 131.963C269.988 134.64 265.443 136.757 259.034 138.323C260.386 140.81 262.973 142.049 266.773 142.049C269.222 142.049 272 141.202 275.13 139.498C278.249 137.794 280.952 135.572 283.241 132.809C283.89 132.058 284.625 131.677 285.445 131.677C286.147 131.666 286.701 131.984 287.105 132.64ZM259.812 123.401C258.428 125.719 257.736 128.534 257.736 131.825V131.984C260.94 131.233 263.463 130.09 265.315 128.587C267.157 127.073 268.083 125.316 268.083 123.316C268.083 122.29 267.795 121.464 267.231 120.85C266.656 120.226 265.89 119.919 264.911 119.919C262.899 119.919 261.195 121.083 259.812 123.401Z" fill="#FAFAFA"/>
<path d="M311.961 135.064C312.366 135.709 312.568 136.598 312.568 137.741C312.568 139.689 312.11 141.361 311.184 142.768C309.662 145.086 307.671 146.896 305.191 148.198C302.721 149.489 299.773 150.145 296.345 150.145C291.129 150.145 287.084 148.589 284.199 145.488C281.314 142.387 279.877 138.186 279.877 132.894C279.877 129.169 280.665 125.697 282.24 122.48C283.816 119.263 285.998 116.712 288.798 114.828C291.597 112.934 294.759 111.992 298.293 111.992C301.444 111.992 303.967 112.923 305.872 114.786C307.778 116.649 308.725 119.178 308.725 122.364C308.725 126.089 307.384 129.285 304.691 131.963C301.997 134.64 297.42 136.757 290.959 138.323C292.257 140.81 294.461 142.049 297.558 142.049C299.783 142.049 301.614 141.541 303.062 140.514C304.499 139.488 306.17 137.762 308.076 135.328C308.725 134.513 309.46 134.111 310.279 134.111C310.992 134.09 311.557 134.418 311.961 135.064ZM291.831 123.401C290.448 125.719 289.756 128.534 289.756 131.825V131.984C292.96 131.233 295.483 130.09 297.335 128.587C299.176 127.073 300.103 125.316 300.103 123.316C300.103 122.29 299.815 121.464 299.251 120.85C298.676 120.226 297.91 119.919 296.93 119.919C294.919 119.919 293.226 121.083 291.831 123.401Z" fill="#FAFAFA"/>
<path d="M345.418 132.608C347.058 134.259 347.867 136.334 347.867 138.831C347.867 141.234 347.132 143.287 345.663 144.98C344.194 146.674 342.214 147.965 339.734 148.833C337.243 149.7 334.539 150.145 331.601 150.145C326.438 150.145 322.564 149.256 319.977 147.457C317.39 145.668 316.102 143.424 316.102 140.747C316.102 139.191 316.485 137.985 317.241 137.106C317.997 136.238 319.019 135.794 320.296 135.794C321.382 135.794 322.202 136.069 322.745 136.609C323.287 137.149 323.756 138.08 324.128 139.403C324.458 140.673 325.15 141.636 326.193 142.303C327.237 142.959 328.844 143.287 331.026 143.287C333.113 143.287 334.827 142.895 336.178 142.123C337.53 141.35 338.201 140.154 338.201 138.556C338.201 136.905 337.562 135.699 336.285 134.915C335.008 134.143 333.017 133.698 330.313 133.603C329.323 133.561 328.567 133.212 328.078 132.577C327.577 131.942 327.332 131.18 327.332 130.28C327.332 129.148 327.535 128.333 327.939 127.846C328.344 127.348 329.036 127.01 330.036 126.819C333.166 126.354 335.423 125.443 336.828 124.099C338.222 122.755 338.925 121.147 338.925 119.263C338.925 116.67 337.126 115.379 333.528 115.379C329.547 115.379 327.205 116.934 326.492 120.046C326.162 121.316 325.672 122.226 325.033 122.766C324.394 123.306 323.5 123.581 322.372 123.581C321.095 123.581 320.105 123.221 319.423 122.491C318.731 121.76 318.391 120.787 318.391 119.559C318.391 117.675 319.051 115.887 320.381 114.193C321.712 112.5 323.596 111.135 326.034 110.098C328.471 109.06 331.324 108.542 334.592 108.542C339.138 108.542 342.619 109.41 345.035 111.156C347.451 112.902 348.665 115.495 348.665 118.924C348.665 121.189 347.803 123.295 346.068 125.253C344.332 127.211 342.097 128.682 339.351 129.666C341.756 129.973 343.779 130.968 345.418 132.608Z" fill="#FAFAFA"/>
</svg>
